<?xml version="1.0" encoding="utf-8"?>
<!-- Generator: Adobe Illustrator 25.1.0, SVG Export Plug-In . SVG Version: 6.00 Build 0)  -->
<svg version="1.1" id="Layer_1" xmlns="http://www.w3.org/2000/svg" xmlns:xlink="http://www.w3.org/1999/xlink" x="0px" y="0px"
	 viewBox="0 0 150.75 98.65" style="enable-background:new 0 0 150.75 98.65;" xml:space="preserve">
<g id="Group_170" transform="translate(100.078 -152.47) rotate(150)">
	<path id="Path_224" d="M176.43-156.33c0.06-0.07,0.17-0.05,0.21-0.15c0.15-0.43,0.49-0.41,0.84-0.41c0.29-0.05,0.56-0.16,0.81-0.31
		c0.38-0.15,0.68-0.48,1.14-0.43c0.4,0.07,0.8-0.09,1.04-0.42c0.44-0.52,1.01-0.92,1.64-1.16c0.66-0.29,1.46-0.37,1.84-1.15
		c0.03-0.05,0.08-0.09,0.15-0.1c0.58-0.12,0.4-1.17,0.26-2.13c-0.32-1.04-0.91-1.97-1.71-2.7c-0.69-0.51-1.42-1.22-1.6-0.62
		c-0.02,0.06-0.1,0.04-0.16,0.04c-0.34-0.06-0.68,0.06-0.91,0.31c-0.24,0.26-0.68,0.18-1.01,0.3c-0.29,0.07-0.52,0.29-0.59,0.58
		c-0.07,0.26-0.28,0.27-0.5,0.25c-0.23-0.01-0.46,0.02-0.68,0.08c-0.19,0.09-0.39,0.18-0.59,0.25c-0.23,0.04-0.36,0.22-0.38,0.62
		s-0.15,0.59-0.51,0.34c-0.18-0.12-0.37-0.14-0.44-0.01c-0.3,0.49-0.82,0.51-1.31,0.6c-0.92,0.15-1.58,1.21-2.08,1.05
		c-0.28-0.09-0.44,0.06-0.48,0.46c-0.07,0.62-0.36,0.72-0.78,0.56c-0.63-0.13-1.28,0.12-1.65,0.64c-0.12,0.27-0.4,0.44-0.7,0.41
		c-0.17,0-0.4-0.13-0.54-0.06c-0.21,0.12-0.36,0.4-0.56,0.54s-0.59-0.24-0.73,0.1c-0.21,0.5-0.6,0.54-1.06,0.36
		c-0.35-0.16-0.77-0.07-1.03,0.23c-0.52,0.47-1.28,0.58-1.91,0.28c-0.09-0.03-0.2-0.08-0.24,0.02c-0.2,0.49-0.63,0.33-0.87,0.72
		c-0.13,0.23-0.41,0.34-0.67,0.26c-0.68-0.16-1.39-0.08-2.01,0.23c-0.29,0.16-0.52,0.5-0.9,0.31c-0.32-0.15-0.56,0.16-0.73,0.67
		c-0.11,0.33-0.26,0.41-0.49,0.28c-0.6-0.44-1.42-0.44-2.02,0c-0.28,0.19-0.58,0.35-0.89,0.46c-0.12,0.08-0.28,0.07-0.4-0.02
		c-0.22-0.26-0.6-0.32-0.89-0.13c-0.26,0.14-0.58,0.1-0.8-0.1c-0.3-0.18-0.63-0.29-0.98-0.35c-0.19-0.06-0.37-0.02-0.51,0.29
		c-0.12,0.26-0.26,0.33-0.44,0.12c-0.66-0.75-1.2-0.36-1.76,0.3c-0.3,0.91-0.66,0.69-1.03,0.16c-0.11-0.14-0.24-0.26-0.38-0.36
		c-0.23-0.27-0.62-0.34-0.93-0.17c-0.41,0.23-0.84,0.38-1.24,0.05c-0.28-0.23-0.54-0.27-0.84,0.15c-0.09,0.12-0.21,0.07-0.3-0.01
		c-0.27-0.23-0.56-0.14-0.86,0.09c-0.16,0.17-0.43,0.17-0.6,0.01c-0.01-0.01-0.01-0.01-0.02-0.02c-0.14-0.13-0.3-0.15-0.43-0.31
		c-0.13-0.22-0.41-0.3-0.63-0.17c-0.05,0.03-0.09,0.07-0.13,0.11c-0.23,0.19-0.42,0.09-0.62-0.01c-0.56-0.25-1.05-0.78-1.72-0.4
		c-0.08,0.04-0.15-0.02-0.23-0.04c-0.83-0.17-1.63-0.43-2.4-0.78c-0.14-0.08-0.31-0.04-0.41,0.08c-0.42,0.41-0.71,0.32-0.93-0.02
		c-0.07-0.11-0.14-0.22-0.25-0.21c-0.67,0.06-1.13-0.49-1.68-0.72c-0.39-0.22-0.82-0.33-1.26-0.35c-0.17,0.03-0.34-0.07-0.39-0.23
		c-0.06-0.15-0.19-0.27-0.35-0.31c-0.43-0.18-0.89-0.31-1.35-0.38c-0.29-0.03-0.48-0.17-0.49-0.63c0-0.3-0.03-0.6-0.27-0.55
		c-0.42,0.09-0.77,0-0.88-0.42c-0.12-0.48-0.81-0.04-0.99-0.41c-0.05-0.1-0.15-0.14-0.17-0.28c-0.05-0.28-0.28-0.29-0.52-0.3
		c-0.36-0.01-0.77,0.02-1-0.18c-0.3-0.27-0.79-0.35-0.83-0.93c-0.04-0.6-0.57-0.66-0.8-1.06c-0.02-0.06-0.02-0.13-0.01-0.2
		c0.01-0.24-0.08-0.35-0.29-0.35c-0.47,0.04-0.87-0.31-0.91-0.78c0-0.04,0-0.08,0-0.12c0-0.22-0.19-0.4-0.41-0.39
		c-0.02,0-0.03,0-0.05,0c-0.11,0-0.22-0.04-0.23-0.14c-0.04-0.32-0.32-0.35-0.76-0.19c-0.33,0.12-0.53,0.08-0.51-0.19
		c0.09-0.57-0.29-1.1-0.86-1.19c-0.1-0.02-0.19-0.02-0.29-0.01c-0.36-0.01-0.5-0.21-0.6-0.51c-0.19-0.6-0.16-1.51-1.08-1.29
		c-0.12,0.03-0.16-0.09-0.22-0.15c-0.43-0.42-0.94-0.76-1.5-0.98c-0.13-0.08-0.23-0.19-0.31-0.32l-0.79-1.05
		c-0.64,0.23-0.69-0.46-1.16-0.51c-0.22-0.02-0.25-0.42-0.5-0.38c-0.58,0.1-0.89-0.25-1.36-0.32c-0.36-0.05-0.71-0.16-1.03-0.33
		c-0.55-0.19-1.03-0.55-1.36-1.03c-0.06-0.08-0.17-0.11-0.26-0.07c-0.27,0.08-0.42-0.08-0.55-0.28c-0.08-0.1-0.19-0.16-0.31-0.18
		c-0.68-0.12-1.28-0.51-1.67-1.07c-0.13-0.18-0.29-0.26-0.55-0.02c-0.55,0.51-0.86,0.38-1.07-0.07c-0.12-0.25-0.24-0.53-0.48-0.47
		c-0.5,0.14-1.03-0.05-1.33-0.47c-0.04-0.05-0.11-0.05-0.17-0.06l-1.89-0.56c-0.19-0.1-0.42-0.13-0.63-0.07
		c-0.51,0.22-1.1,0.09-1.46-0.33c-0.16-0.14-0.36-0.24-0.58-0.27c-0.65-0.07-1.21-0.63-1.92-0.35c-0.15,0.06-0.3-0.05-0.42-0.19
		c-0.21-0.25-0.44-0.24-0.71,0.04c-0.33,0.35-0.62,0.42-0.88,0.09s-0.61-0.29-0.94-0.32c-0.98-0.01-1.95-0.13-2.91-0.34
		c-0.32-0.11-0.68,0-0.89,0.27c-0.09,0.13-0.26,0.16-0.39,0.08c-0.02-0.01-0.03-0.02-0.04-0.04c-0.24-0.18-0.5-0.34-0.76-0.48
		c-0.11-0.06-0.24-0.14-0.35-0.08c-0.79,0.42-1.59,0.03-2.38,0.35c-0.31,0.13-0.64-0.05-0.95,0.21c-0.09,0.1-0.25,0.1-0.35,0.01
		c-0.47-0.43-0.92,0.32-1.4-0.4c-0.07-0.1-0.18,0-0.25,0.07c-0.18,0.19-0.47,0.22-0.69,0.08c-0.25-0.15-0.47-0.03-0.64,0.39
		c-0.11,0.26-0.25,0.34-0.41,0.11c-0.29-0.41-0.52-0.41-0.75-0.03c-0.31,0.51-0.69,0.68-1.09,0.15c-0.36-0.47-0.59-0.4-0.81,0.04
		c-0.14,0.23-0.31,0.46-0.49,0.66c-0.17,0.24-0.37,0.23-0.6-0.12c-0.22-0.33-0.46-0.57-0.64-0.42c-0.52,0.45-1.15,0.16-1.73,0.21
		c-0.29,0.03-0.61-0.02-0.84,0.24c-0.26,0.31-0.63,0.13-0.88,0.44c-0.26,0.34-0.64,0.02-0.98-0.06c-0.12-0.03-0.24-0.03-0.36,0
		c-0.43,0.09-0.86,0.18-1.27,0.31c-0.25,0.08-0.52,0.1-0.68,0.48c-0.04,0.2-0.24,0.33-0.44,0.28c-0.04-0.01-0.08-0.02-0.11-0.04
		c-0.27-0.16-0.61-0.17-0.89-0.02c-0.28,0.16-0.63,0.11-0.91,0.25c-0.19,0.07-0.39,0.11-0.59,0.12c-0.78,0.12-1.64,0.02-2.19,0.84
		c-0.09,0.14-0.27,0.1-0.41,0.1c-0.77-0.08-1.52,0.24-1.99,0.85c-0.32,0.48-0.68,0.91-1.29,0.72c-0.2-0.06-0.32,0.12-0.49,0.16
		c-0.53,0.22-1.09,0.34-1.66,0.34c-0.51-0.06-0.65,0.57-0.54,1.54c0.07,0.48,0.24,0.94,0.52,1.34c0.4,0.6,0.77,1.16,1.16,1.75
		c0.43,0.68,0.73,0.8,0.98,0.8c0.08,0,0.13-0.1,0.19-0.16c0.22-0.29,0.49-0.56,0.79-0.78c0.32-0.19,0.79-0.02,0.99-0.52
		c0.45-0.04,0.9-0.06,1.35-0.05c0.4,0.01,0.88,0.32,1.07-0.28c0.03-0.1,0.14-0.08,0.24-0.04c0.24,0.13,0.55,0.05,0.68-0.19
		c0,0,0-0.01,0-0.01c0.08-0.12,0.24-0.17,0.38-0.12c0.46,0.06,0.94-0.01,1.36-0.21c0.41-0.12,0.73-0.54,1.21-0.41
		c0.11,0.03,0.19-0.09,0.27-0.2c0.38-0.49,1.02-0.69,1.61-0.5c1.18,0.25,2.38-0.23,3.08-1.2c0.11-0.14,0.24-0.19,0.4,0
		c0.63,0.72,1.13,0.7,1.56,0.25c0.31-0.37,0.84-0.46,1.25-0.21c0.18,0.13,0.43,0.08,0.56-0.1c0.02-0.03,0.04-0.06,0.05-0.1
		c0.36-0.67,0.81-0.65,1.33,0.15c0.14,0.22,0.29,0.22,0.38-0.02c0.31-0.77,0.71-0.87,1.19-0.41c0.13,0.12,0.29,0.17,0.39,0.02
		c0.21-0.32,0.44-0.24,0.69-0.11c0.47,0.25,1.03,0.25,1.51,0.01c0.43-0.24,0.83-0.5,1.22-0.8c0.14-0.09,0.27-0.04,0.39,0.17
		c0.28,0.46,0.56,0.63,0.86,0.58c0.39-0.07,0.79,0.27,1.18-0.17c0.09-0.1,0.21,0.04,0.31,0.13c0.37,0.36,0.73,0.26,1.09-0.24
		c0.19-0.27,0.36-0.28,0.54-0.12c0.16,0.16,0.33,0.32,0.51,0.45c0.12,0.09,0.27,0.19,0.38,0.03c0.36-0.51,0.69-0.43,1-0.09
		c0.16,0.22,0.45,0.29,0.69,0.18c0.33-0.16,0.72-0.13,1.01,0.09c0.3,0.25,0.74,0.24,1.03-0.02c0.18-0.14,0.32-0.1,0.45,0.1
		c0.06,0.11,0.16,0.19,0.27,0.23c0.97,0.2,1.96,0.32,2.91,0.55c0.16,0.05,0.33-0.01,0.42-0.16c0.33-0.45,0.54-0.46,0.68-0.03
		c0.23,0.72,0.7,0.54,1.12,0.6c0.43,0.04,0.95-0.15,1.22,0.45c0.12,0.27,0.37,0.19,0.64,0.01s0.46-0.08,0.57,0.22
		c0.12,0.34,0.31,0.48,0.65,0.2c0.22-0.18,0.36-0.11,0.46,0.07c0.1,0.21,0.21,0.41,0.33,0.6c0.07,0.1,0.15,0.2,0.27,0.14
		c0.45-0.18,0.78-0.02,1.22-0.16c0.31-0.1,0.53-0.05,0.63,0.28c0.09,0.4,0.46,0.68,0.87,0.67c0.99-0.01,1.92,0.52,2.42,1.38
		c0.06,0.12,0.15,0.23,0.27,0.3c0.32,0.3,0.7,0.54,1.11,0.71c0.29,0.05,0.55,0.22,0.7,0.48c0.13,0.33,0.51,0.48,0.84,0.35
		c0.02-0.01,0.03-0.01,0.05-0.02c0.18-0.09,0.4-0.02,0.49,0.15c0.02,0.05,0.04,0.1,0.04,0.15c0.06,0.26,0.13,0.52,0.34,0.56
		c0.53,0.08,0.81,0.47,0.88,1.1c0.01,0.13,0.09,0.24,0.25,0.17c0.65-0.33,0.87-0.04,1.27,0c0.27,0.03,0.38,0.19,0.34,0.53
		c-0.08,0.7,0.25,0.93,0.83,0.91c0.14-0.03,0.29-0.03,0.43-0.02c0.08,0.02,0.14,0.11,0.07,0.24c-0.35,0.62-0.32,0.87,0.15,0.75
		c0.19-0.05,0.16,0.13,0.09,0.32c-0.1,0.3-0.04,0.43,0.25,0.4c0.34-0.03,0.67,0.12,0.89,0.38c0.23,0.2,0.2,0.66,0.4,0.88
		s0.65,0.18,0.96,0.27c0.09,0.03,0.08,0.18,0.14,0.25c0.23,0.31,0.57,0.51,0.95,0.55c0.69,0.03,1.3,0.49,1.5,1.16
		c0.15,0.29,0.31,0.57,0.5,0.84c0.25,0.4,0.8,0.35,1.15,0.59c0.55,0.38,1.09,0.78,1.64,1.18c0.24,0.19,0.58,0.18,0.82-0.01
		c0.28-0.17,0.47-0.17,0.57,0.05c0.1,0.22,0.23,0.42,0.39,0.6c0.14,0.17,0.26,0.42,0.49,0.43c0.41,0.07,0.77,0.3,1,0.65
		c0.11,0.18,0.35,0.23,0.53,0.11c0.01,0,0.01-0.01,0.02-0.01c0.3-0.17,0.5-0.16,0.62,0.13c0.14,0.36,0.45,0.35,0.74,0.35
		c0.16,0,0.4-0.14,0.46,0.04c0.21,0.55,0.83,0.01,1.04,0.56c0.04,0.11,0.16,0.1,0.27,0.04c0.38-0.19,0.66-0.14,0.83,0.32
		c0.04,0.12,0.14,0.15,0.23,0.18c0.48,0.19,0.98,0.34,1.48,0.45c0.41,0.04,0.79,0.2,1.1,0.47c0.09,0.1,0.22,0.18,0.35,0.09
		c0.27-0.19,0.63-0.22,0.92-0.07c0.45,0.12,0.92,0.13,1.37,0.02c0.3-0.09,0.62-0.05,0.88,0.12c0.38,0.24,0.75,0.61,1.23,0.08
		c0.11-0.12,0.24-0.02,0.35,0.01l1.36,0.34c0.46,0.09,0.92,0.21,1.37,0.35c0.32,0.14,0.7,0.09,0.98-0.13
		c0.2-0.23,0.54-0.28,0.79-0.11c0.25,0.2,0.61,0.22,0.88,0.03c0.11-0.07,0.24-0.12,0.35-0.02c0.22,0.21,0.41,0.05,0.6-0.14
		c0.14-0.13,0.28-0.24,0.41-0.4s0.28-0.18,0.43-0.03c0.12,0.11,0.24,0.22,0.34,0.35c0.44,0.57,0.88,0.68,1.32,0.43
		c0.17-0.1,0.36-0.19,0.53-0.05c0.31,0.24,0.75,0.23,1.06-0.01c0.48-0.34,1.07-0.46,1.64-0.34c0.15,0.05,0.28-0.1,0.43-0.13
		c0.51-0.21,0.97-0.52,1.35-0.91c0.13-0.1,0.27-0.21,0.41-0.11c0.54,0.33,1.21,0.36,1.77,0.07c0.31-0.04,0.59-0.18,0.8-0.4
		c0.24-0.3,0.49-0.42,0.84-0.08c0.12,0.11,0.25,0.2,0.4,0.27c0.72,0.33,1.19-0.49,1.93-0.16c0.18,0.08,0.34-0.1,0.46-0.3
		c0.19-0.31,0.4-0.47,0.69-0.41c0.22,0.04,0.44-0.06,0.56-0.24c0.11-0.12,0.26-0.11,0.41-0.1s0.34,0.15,0.47,0.1
		c0.36-0.12,0.75-0.1,1.1,0.05c0.17,0.09,0.37,0.03,0.47-0.14c0.01-0.01,0.01-0.03,0.02-0.04c0.21-0.64,0.87-1.01,1.53-0.87
		c0.46,0.14,0.96-0.06,1.21-0.47c0.24-0.43,0.77-0.61,1.22-0.42c0.46,0.12,0.94-0.07,1.18-0.48c0.31-0.47,0.88-0.7,1.43-0.58
		c0.48,0.19,1.03-0.01,1.28-0.46c0.2-0.34,0.44-0.63,0.85-0.39c0.5,0.29,0.78,0.13,0.97-0.28c0.06-0.13,0.16-0.21,0.31-0.15
		C175.31-155.49,176.08-155.72,176.43-156.33z"/>
	<path id="Path_225" d="M169.89-173.75c-0.03,0.03-0.05-0.04-0.09,0.03c-0.18,0.29-0.23,0.1-0.29-0.07
		c-0.05-0.15-0.16-0.1-0.25-0.14c-0.12-0.06-0.28,0.05-0.34-0.23s-0.16-0.33-0.31-0.2c-0.18,0.19-0.46,0.22-0.68,0.07
		c-0.21-0.12-0.34-0.5-0.68-0.09c-0.03,0.03-0.04,0.02-0.06,0c-0.12-0.23-0.49,0.69-0.85,1.52c-0.37,1-0.65,2.04-0.84,3.09
		c-0.1,0.8-0.27,1.78-0.01,1.41c0.03-0.04,0.03,0.02,0.04,0.06c0.04,0.25,0.13,0.34,0.27,0.27s0.18,0.24,0.28,0.32
		c0.08,0.06,0.16,0.1,0.32-0.15c0.11-0.18,0.15-0.07,0.18,0.06c0.02,0.11,0.07,0.21,0.15,0.29c0.06,0.06,0.15,0.03,0.2,0.11
		s0.15,0,0.31-0.31s0.25-0.41,0.22-0.01c-0.01,0.2,0.01,0.3,0.08,0.23c0.24-0.26,0.34-0.02,0.47,0.15c0.23,0.32,0.75-0.25,0.79,0.12
		c0.02,0.21,0.11,0.15,0.27-0.17c0.24-0.49,0.33-0.44,0.36-0.11c0.03,0.38,0.36,0.48,0.57,0.18c0.15-0.2,0.24-0.18,0.3-0.05
		c0.04,0.08,0.04,0.29,0.09,0.28c0.09-0.01,0.22-0.19,0.32-0.23s0.04,0.46,0.19,0.22c0.23-0.36,0.33-0.24,0.37,0.1
		c0.04,0.32,0.15,0.35,0.31,0.21c0.3-0.26,0.46-0.03,0.55,0.47c0.01,0.06,0.02,0.15,0.06,0.07c0.22-0.36,0.27-0.08,0.46-0.34
		c0.14-0.19,0.2-0.14,0.25,0c0.13,0.37,0.32,0.57,0.59,0.45c0.13-0.05,0.3-0.29,0.34,0c0.03,0.25,0.2,0.02,0.41-0.4
		c0.14-0.28,0.21-0.31,0.23-0.13c0.07,0.6,0.24,0.83,0.56,0.54c0.11-0.1,0.25-0.18,0.4-0.22c0.05-0.02,0.11-0.03,0.11,0.12
		c0.01,0.35,0.08,0.44,0.22,0.33c0.12-0.1,0.19,0,0.21,0.26c0.02,0.19,0.09,0.37,0.2,0.52c0.04,0.09,0.11,0.1,0.24-0.17
		c0.12-0.23,0.18-0.27,0.18-0.05c-0.01,0.82,0.29,0.53,0.65-0.02c0.34-0.82,0.41-0.59,0.38-0.04c0,0.13,0.01,0.26,0.03,0.38
		c0.03,0.31,0.11,0.39,0.27,0.26c0.2-0.17,0.39-0.3,0.45,0.04c0.04,0.24,0.13,0.28,0.34-0.1c0.06-0.12,0.09-0.06,0.1,0.02
		c0.04,0.23,0.16,0.17,0.33-0.06c0.12-0.17,0.2-0.17,0.22,0c0.02,0.12,0.08,0.14,0.09,0.3c0.02,0.28,0.11,0.29,0.27,0.05
		c0.13-0.19,0.17-0.08,0.23-0.01c0.16,0.2,0.25,0.66,0.58,0.25c0.04-0.05,0.05,0.01,0.08,0.02c0.3,0.07,0.59,0.22,0.82,0.42
		c0.04,0.04,0.09,0.04,0.18-0.13c0.24-0.47,0.34-0.46,0.38-0.18c0.01,0.09,0.03,0.18,0.07,0.14c0.08-0.08,0.2-0.08,0.28,0
		c0.01,0.01,0.03,0.03,0.04,0.05c0.01,0.07-0.01,0.17,0.01,0.16s0.02,0.06,0.16-0.15c0.05-0.07,0.07-0.07,0.01,0.06
		s-0.07,0.15-0.05,0.13c0.07-0.05,0.12-0.09,0.29-0.24c0.1-0.09,0.11-0.05-0.19,0.29c-0.19,0.22-0.4,0.43-0.26,0.29
		c0.26-0.25,0.4-0.34,0.15-0.1c-0.31,0.26,0.42-0.31,0.24-0.14c-0.04,0.04-0.08,0.08-0.13,0.11c-0.21,0.16-0.08,0.07,0.09-0.04
		c0.19-0.13,0.39-0.24,0.6-0.32c0,0.03,0.36-0.13-0.17,0.18c-0.22,0.13-0.3,0.17-0.3,0.18c-0.03,0.02,0.1-0.02-0.02,0.04l-0.18,0.09
		c-0.24,0.11-0.27,0.12-0.08,0.04c0.52-0.21,0.41-0.12-0.06,0.05c-0.2,0.07-0.21,0.07,0.03,0c0.1-0.03,0.15-0.04,0.07-0.01
		c-0.26,0.08-0.04,0.02,0.45-0.1c0.38-0.09,0.49-0.09,0.24-0.03c-0.77,0.2-0.63,0.15-0.15,0.13c0.24-0.01,0.16,0.02-0.03,0.05
		c-0.39,0.08-1.16,0.04-0.36,0.09c0.1,0.01,0.03,0.01,0.02,0.01c-0.1,0.02-0.02,0.04,0.07,0.1c0.02,0.01-0.04,0.01-0.09,0
		c-0.14-0.01-0.27-0.04-0.4-0.09c0.26,0.08,0.23,0.15,0.16,0.19s-0.18,0.07-0.1,0.17s-0.26,0.04-0.13,0.15
		c0.31,0.27,0.13,0.35,0.25,0.54c0.08,0.11,0.1,0.25,0.06,0.38c-0.04,0.17-0.07,0.35-0.46,0.38c-0.06,0-0.04,0.04,0.02,0.1
		c0.15,0.13,0.04,0.15-0.1,0.17c-0.08,0.01-0.08,0.05-0.07,0.09c0.06,0.25-0.08,0.4-0.51,0.44c-0.12,0.01-0.17,0.05,0.11,0.21
		c0.58,0.34,0.53,0.43,0.16,0.4c-0.21-0.02-0.43-0.04-0.32,0.07c0.25,0.26,0.16,0.38-0.18,0.4c-0.04,0-0.03,0.03-0.03,0.05
		l-0.22,0.57c-0.02,0.06-0.11,0.1,0.01,0.21c0.31,0.29,0.13,0.39-0.16,0.44c-0.12,0.02-0.19,0.06-0.2,0.13
		c-0.01,0.21-0.52,0.23-0.22,0.56c0.06,0.07-0.03,0.09-0.16,0.08c-0.23-0.01-0.2,0.07,0.06,0.26c0.33,0.23,0.39,0.35,0.09,0.32
		s-0.27,0.11-0.3,0.2c-0.1,0.29-0.07,0.63-0.42,0.81c-0.1,0.06-0.07,0.17,0.2,0.37c0.14,0.1,0.12,0.14,0,0.15
		c-0.17,0.01-0.35,0.02-0.52,0.05c-0.07,0.01-0.15,0.02-0.11,0.07c0.33,0.4-0.15,0.47,0.05,0.82c0.08,0.14-0.13,0.17,0.07,0.35
		c0.07,0.06,0.07,0.11-0.04,0.1c-0.47-0.04,0.14,0.38-0.6,0.22c-0.1-0.02-0.03,0.05,0.02,0.1c0.15,0.14,0.13,0.21-0.05,0.21
		c-0.18,0.01-0.12,0.11,0.23,0.32c0.21,0.13,0.26,0.2,0.02,0.15c-0.44-0.09-0.48-0.03-0.18,0.18c0.41,0.29,0.46,0.45-0.1,0.33
		c-0.51-0.1-0.5-0.02-0.15,0.22c0.23,0.15,0.32,0.26,0.49,0.39s0.11,0.18-0.26,0.09c-0.35-0.08-0.64-0.13-0.55-0.02
		c0.26,0.3-0.15,0.33-0.27,0.48c-0.06,0.07-0.2,0.12-0.03,0.28c0.2,0.19-0.07,0.19,0.14,0.38s-0.19,0.14-0.36,0.18
		c-0.06,0.01-0.1,0.04-0.12,0.07c-0.06,0.13-0.1,0.26-0.14,0.39c-0.02,0.08-0.09,0.14,0.19,0.34c0.22,0.15,0.19,0.21,0.02,0.21
		c-0.24,0-0.37,0.04-0.33,0.16s-0.13,0.16-0.11,0.28c0.01,0.07-0.07,0.11-0.11,0.16c-0.19,0.19-0.6,0.29-0.13,0.75
		c0.08,0.08-0.02,0.09-0.08,0.11c-0.28,0.13-0.51,0.28-0.11,0.69c0.26,0.26,0.46,0.52,0.03,0.51c-0.14,0-0.04,0.1-0.09,0.14
		c-0.14,0.13-0.12,0.33-0.49,0.37c-0.29,0.03,0.15,0.33,0.97,0.76c0.43,0.22,0.87,0.41,1.32,0.56l1.96,0.68
		c0.76,0.26,1,0.27,1.12,0.23c0.04-0.01-0.01-0.06-0.03-0.1c-0.09-0.16-0.26-0.36-0.25-0.49s0.35-0.13,0.03-0.4
		c0.18-0.1,0.36-0.18,0.55-0.25c0.19-0.06,0.64-0.01,0.23-0.32c-0.07-0.05-0.01-0.06,0.06-0.06c0.23,0,0.27-0.07,0.11-0.22
		c-0.08-0.08-0.03-0.11,0.06-0.12c0.32-0.04,0.3-0.21,0.36-0.36c0.06-0.14-0.17-0.38,0.12-0.43c0.07-0.01-0.01-0.08-0.07-0.15
		c-0.34-0.34-0.14-0.47,0.15-0.56c0.58-0.17,0.66-0.54-0.03-1.22c-0.09-0.09-0.1-0.14,0.12-0.1c0.83,0.16,0.96,0.02,0.69-0.27
		c-0.23-0.25-0.19-0.39,0.16-0.41c0.18-0.01,0.21-0.07-0.02-0.24c-0.5-0.37-0.39-0.48,0.47-0.29c0.24,0.05,0.27,0.01,0.08-0.11
		c-0.63-0.4-0.61-0.54-0.1-0.5c0.14,0.01,0.21-0.02,0.1-0.1c-0.25-0.19-0.13-0.22,0.04-0.24c0.36-0.04,0.43-0.2,0.3-0.44
		c-0.16-0.24-0.33-0.46-0.52-0.68c-0.06-0.08,0.01-0.1,0.22-0.05c0.47,0.09,0.66,0.06,0.66-0.05c-0.01-0.15,0.36-0.15,0.01-0.44
		c-0.08-0.06,0.06-0.05,0.16-0.05c0.37,0.01,0.31-0.15-0.11-0.45c-0.23-0.16-0.22-0.22-0.05-0.22c0.17,0.01,0.34,0.01,0.51,0
		c0.09-0.01,0.19-0.03,0.05-0.12c-0.45-0.31-0.36-0.4-0.03-0.39c0.23,0.01,0.29-0.06,0.21-0.18c-0.12-0.18-0.1-0.29,0.11-0.34
		s0.26-0.15,0-0.38c-0.13-0.11-0.09-0.15,0.1-0.13c0.12,0.01,0.2,0,0.21-0.03c0.14-0.32,0.27-0.65,0.38-0.98
		c0.01-0.04,0.01-0.1-0.18-0.21c-0.45-0.26-0.48-0.35-0.09-0.28c0.65,0.11,0.46-0.13,0.44-0.29s-0.27-0.44,0.24-0.4
		c0.23,0.02,0.13-0.11-0.07-0.26s-0.16-0.22,0.1-0.19c0.28,0.03,0.37-0.02,0.05-0.24c-0.21-0.14-0.17-0.18-0.02-0.18
		c0.17,0,0.35,0.01,0.48-0.01c0.07-0.01,0.15-0.02,0.08-0.08c-0.27-0.24-0.21-0.36-0.45-0.59c-0.17-0.16-0.18-0.25,0.09-0.22
		c0.42,0.03,0.46-0.08,0.37-0.26c-0.23-0.45-0.23-0.8,0.44-0.89c0.06,0,0.12-0.03,0.16-0.08c0.07-0.14,0.27-0.23,0.2-0.43
		c-0.05-0.13-0.04-0.2,0.18-0.36c0.23-0.14,0.3-0.35-0.02-0.64c-0.21-0.19-0.15-0.29,0.09-0.38s0.46-0.19,0.41-0.32
		c-0.11-0.32,0.09-0.56,0.67-0.84c0.12-0.06,0.2-0.15,0.04-0.19c-0.65-0.19-0.48-0.38-0.65-0.55c-0.12-0.11-0.01-0.21,0.35-0.37
		c0.74-0.32,0.78-0.6,0.39-0.74c-0.1-0.03-0.26-0.05-0.3-0.09s0.02-0.09,0.2-0.16c0.87-0.31,1.12-0.51,0.68-0.51
		c-0.18,0,0.03-0.12,0.28-0.24c0.39-0.2,0.5-0.33,0.27-0.34c-0.37-0.01-0.27-0.18-0.22-0.33s0.56-0.49,0.66-0.67
		s-0.28-0.15-0.4-0.21c-0.04-0.02,0.15-0.14,0.17-0.19l0.08-0.15c-0.23-0.06-0.48-0.05-0.71,0.02c-0.89,0.21-1.1,0.1-1.02-0.26
		c0.04-0.17-0.08-0.25-0.1-0.4c-0.04-0.22-0.62-0.02-0.84-0.09c-0.34-0.11-0.68-0.24-1.01-0.39c-0.12-0.06-0.29-0.06-0.68,0.23
		c-0.3,0.22-0.44,0.27-0.43,0.12c0-0.13-0.03-0.26-0.09-0.38c-0.05-0.1-0.08-0.28-0.24-0.23c-0.33,0.1-0.44-0.09-0.56-0.31
		c-0.06-0.11-0.16-0.15-0.36,0.04c-0.24,0.22-0.36,0.26-0.39,0.02c-0.03-0.3-0.24-0.21-0.43-0.15c-0.1,0.04-0.27,0.23-0.29,0.08
		c-0.03-0.24-0.17-0.21-0.28-0.17c-0.07,0.05-0.15,0.1-0.14-0.14c0-0.09-0.04-0.05-0.09,0.02c-0.17,0.27-0.26,0.29-0.25-0.1
		c0-0.1-0.03-0.1-0.05-0.11c-0.14-0.07-0.29-0.12-0.44-0.15c-0.12-0.02-0.25,0-0.3-0.27c-0.01-0.08-0.04-0.14-0.1-0.03
		c-0.18,0.32-0.24,0.23-0.33,0.18c-0.12-0.07-0.27-0.05-0.46,0.11c-0.13,0.11-0.22,0.11-0.27-0.04c-0.08-0.2-0.11-0.57-0.38-0.04
		c-0.07,0.12-0.08,0.02-0.11,0c-0.27-0.19-0.5-0.42-0.7-0.68c-0.08-0.12-0.17-0.15-0.33,0.09c-0.14,0.2-0.24,0.27-0.27,0.07
		c-0.03-0.22-0.12-0.26-0.25-0.11c-0.05,0.06-0.1,0.09-0.11-0.01c-0.01-0.22-0.11-0.08-0.22,0.08c-0.08,0.12-0.15,0.21-0.23,0.35
		s-0.13,0.14-0.13-0.01c0-0.12-0.01-0.23,0-0.38c0.03-0.61-0.06-0.78-0.25-0.6c-0.07,0.07-0.15,0.13-0.16-0.03
		c-0.02-0.35-0.16-0.25-0.3-0.16c-0.22,0.15-0.44,0.31-0.54,0.01c-0.02-0.08-0.1,0.04-0.15,0.04c-0.17,0.02-0.41,0.35-0.63,0.56
		c-0.06,0.06-0.13,0.14-0.14,0c-0.03-0.59-0.24-0.49-0.43-0.5c-0.09-0.01-0.18-0.05-0.32,0.15c-0.16,0.22-0.25,0.26-0.23-0.16
		c0.01-0.12,0-0.24-0.01-0.36c-0.07-0.51-0.44,0.09-0.51-0.44c-0.02-0.13-0.11-0.01-0.2,0.13c-0.15,0.23-0.25,0.3-0.29,0.15
		c-0.03-0.12-0.11-0.09-0.21,0.03c-0.07,0.07-0.1,0.01-0.13-0.05s-0.02-0.25-0.07-0.24c-0.12,0.02-0.18-0.16-0.22-0.43
		c-0.02-0.14-0.06-0.18-0.16-0.02c-0.33,0.52-0.52,0.56-0.62,0.21c-0.07-0.25-0.18-0.37-0.41-0.06s-0.35,0.21-0.39-0.12
		c-0.05-0.34-0.2-0.28-0.4-0.08c-0.23,0.24-0.42,0.29-0.48-0.11c-0.05-0.36-0.17-0.47-0.4-0.17c-0.16,0.21-0.31,0.34-0.3-0.05
		c0.01-0.48-0.09-0.47-0.27-0.21c-0.06,0.08-0.11,0.11-0.11-0.02C170.38-174.17,170.1-173.91,169.89-173.75z"/>
</g>
</svg>
