<?xml version="1.0" encoding="utf-8"?>
<!-- Generator: Adobe Illustrator 25.1.0, SVG Export Plug-In . SVG Version: 6.00 Build 0)  -->
<svg version="1.1" id="Layer_1" xmlns="http://www.w3.org/2000/svg" xmlns:xlink="http://www.w3.org/1999/xlink" x="0px" y="0px"
	 viewBox="0 0 179.06 180.14" style="enable-background:new 0 0 179.06 180.14;" xml:space="preserve">
<style type="text/css">
	.st0{fill:#FFFFFF;}
</style>
<g id="Group_169" transform="translate(713.975 528.226)">
	<path id="Path_222" class="st0" d="M-581.63-364.92l-31.46-24.54c-1.51-1.18-3.7-0.91-4.88,0.6c-0.07,0.09-0.14,0.19-0.2,0.29
		l-21.2,33.79c-1.02,1.63-3.16,2.12-4.79,1.1c-0.89-0.56-1.48-1.48-1.6-2.52l-4.9-39.59c-0.24-1.91-1.97-3.26-3.88-3.02
		c-0.12,0.01-0.23,0.03-0.35,0.06l-38.89,8.9c-1.87,0.43-3.74-0.74-4.17-2.61c-0.23-1.02,0-2.09,0.65-2.91l24.54-31.46
		c1.18-1.51,0.91-3.7-0.6-4.88c-0.09-0.07-0.19-0.14-0.29-0.2l-33.79-21.2c-1.63-1.02-2.12-3.16-1.1-4.79
		c0.56-0.89,1.48-1.48,2.52-1.6l39.59-4.9c1.91-0.24,3.26-1.97,3.02-3.88c-0.01-0.12-0.04-0.23-0.06-0.35l-8.9-38.89
		c-0.43-1.87,0.74-3.74,2.62-4.16c1.02-0.23,2.09,0,2.91,0.65l31.46,24.54c1.51,1.18,3.7,0.91,4.88-0.6
		c0.07-0.09,0.14-0.19,0.2-0.29l21.2-33.79c1.02-1.63,3.16-2.12,4.79-1.11c0.89,0.56,1.48,1.49,1.61,2.53l4.9,39.59
		c0.24,1.91,1.97,3.26,3.88,3.02c0.12-0.01,0.23-0.03,0.35-0.06l38.89-8.9c1.87-0.43,3.74,0.74,4.16,2.62
		c0.23,1.02,0,2.09-0.65,2.91l-24.54,31.46c-1.18,1.51-0.91,3.7,0.6,4.88c0.09,0.07,0.19,0.14,0.29,0.2l33.79,21.2
		c1.63,1.02,2.12,3.16,1.1,4.79c-0.56,0.89-1.48,1.48-2.52,1.6l-39.59,4.9c-1.91,0.24-3.26,1.97-3.02,3.88
		c0.01,0.12,0.03,0.23,0.06,0.35l8.9,38.89c0.43,1.87-0.74,3.74-2.61,4.17C-579.73-364.03-580.81-364.27-581.63-364.92z"/>
	<path id="Path_223" d="M-621.58-379.52c0.21-0.38,0.53-0.8,0.71-1.19c0.78-1.5,1.67-2.94,2.68-4.29c0.44-0.63,0.86-1.28,1.27-1.94
		l0.31-0.5c0.03-0.06,0.07-0.11,0.11-0.16c0.02-0.04,0.05-0.07,0.08-0.11c0.11-0.14,0.24-0.25,0.39-0.33
		c0.43-0.26,0.95-0.29,1.41-0.1c0.11,0.05,0.22,0.11,0.32,0.19c0.17,0.12,0.41,0.33,0.61,0.49c0.42,0.34,0.82,0.69,1.21,1.04
		c1.49,1.34,3.06,2.59,4.71,3.75c2.92,2.06,5.73,4.25,8.54,6.48c3.03,2.41,5.98,4.95,9.2,7.11c0.26,0.18,0.5,0.37,0.74,0.57
		c1.86,1.51,3.94,2.71,6.17,3.57c1.39,0.61,2.22-0.07,1.12-1.5c-1.14-1.74-2.62-3.24-4.35-4.39c-0.25-0.18-0.49-0.38-0.71-0.59
		c-1.37-1.24-2.81-2.41-4.31-3.5c-1.59-1.16-3.09-2.54-4.65-3.8c-1.19-0.99-2.44-1.91-3.74-2.75c-0.9-0.59-1.75-1.26-2.54-1.99
		c-0.91-0.81-1.87-1.6-2.83-2.39s-1.97-1.53-2.92-2.32c-0.92-0.78-1.92-1.46-2.98-2.04c-0.26-0.13-0.51-0.28-0.75-0.43
		c-0.2-0.11-0.59-0.41-0.98-0.6c-0.81-0.43-1.7-0.69-2.61-0.77c-0.57-0.05-1.15,0.01-1.69,0.19c-0.58,0.18-1.12,0.48-1.58,0.88
		c-0.41,0.36-0.77,0.78-1.06,1.24l-0.1,0.16l-0.07,0.11l-0.13,0.23l-0.27,0.45c-0.36,0.6-0.73,1.18-1.1,1.77
		c-0.75,1.17-1.53,2.32-2.32,3.49c-2.9,4.36-5.74,9.63-7.12,11.46c-0.74,0.96-1.34,2.01-1.8,3.13c-0.71,1.67-1.64,3.23-2.77,4.64
		c-1.98,2.76-3.8,5.64-5.43,8.63c-0.16,0.39-0.47,0.69-0.87,0.84c-0.4,0.14-0.84,0.13-1.24-0.04c-0.23-0.09-0.43-0.24-0.59-0.43
		c-0.14-0.17-0.26-0.35-0.36-0.55c-0.03-0.08-0.06-0.16-0.1-0.24c-0.03-0.08-0.04-0.18-0.08-0.26l-0.02-0.07l-0.02-0.13l-0.04-0.26
		l-0.09-0.51c-0.12-0.68-0.25-1.36-0.35-2.04c-0.21-1.37-0.08-2.71-0.41-4.12c-0.47-2.1-0.74-4.25-0.79-6.41
		c-0.09-2.01-0.31-4.02-0.67-6c-0.62-3.65-1.02-7.34-1.19-11.04c-0.01-0.46-0.05-0.91-0.14-1.36c-0.48-1.91-0.59-4.02-1-5.92
		c-0.08-0.35-0.14-0.68-0.2-1.02l-0.08-0.51l-0.04-0.26l-0.07-0.36c-0.2-1-0.68-1.93-1.39-2.66c-1.02-1.06-2.43-1.63-3.9-1.57
		c-0.18,0-0.36,0.02-0.54,0.05l-0.27,0.04l-0.19,0.04l-0.71,0.14l-1.43,0.3c-1.9,0.4-3.8,0.85-5.69,1.33
		c-1.77,0.53-3.56,0.96-5.38,1.29c-1.64,0.26-3.25,0.73-4.78,1.39c-0.97,0.4-1.99,0.67-3.03,0.8c-3.82,0.52-7.59,1.31-11.3,2.36
		c-1.77,0.51-3.59,0.96-5.4,1.42l-0.56,0.14c-0.16,0.05-0.33,0.08-0.5,0.1c-0.22,0.04-0.45,0.03-0.66-0.05
		c-0.43-0.16-0.8-0.44-1.08-0.8c-0.27-0.37-0.44-0.81-0.49-1.26c-0.01-0.43,0.14-0.86,0.44-1.17c0.49-0.6,1-1.18,1.54-1.75
		c1.22-1.3,2.41-2.79,3.61-4.2c0.71-0.8,1.33-1.67,1.86-2.6c0.42-0.79,0.96-1.52,1.6-2.14c2.45-2.52,4.59-5.33,6.38-8.36
		c0.89-1.86,2.15-3.52,3.7-4.88c0.51-0.49,1.03-1.09,1.54-1.64c1.26-1.35,2.43-2.78,3.48-4.3l1.11-1.59
		c0.53-0.79,0.84-1.71,0.9-2.65c0.12-1.92-0.77-3.77-2.34-4.88c-1.34-1.02-2.78-1.89-4.32-2.58c-0.54-0.27-1.06-0.59-1.53-0.96
		c-1.38-1-2.83-1.88-4.35-2.64c-1.1-0.55-2.15-1.2-3.14-1.93c-0.73-0.54-1.55-1.05-2.26-1.6c-1.21-0.94-2.52-1.75-3.9-2.43
		c-1.09-0.57-2.14-1.22-3.15-1.93c-2.91-2.06-5.91-3.97-9.02-5.72c-0.39-0.2-0.79-0.49-1.19-0.74l-0.82-0.51l-0.2-0.13l-0.1-0.08
		c-0.06-0.06-0.15-0.09-0.19-0.15c-0.23-0.2-0.38-0.47-0.45-0.77c-0.14-0.62,0.06-1.27,0.53-1.7c0.23-0.2,0.52-0.33,0.82-0.36
		c0.13-0.03,0.27-0.05,0.4-0.06l0.48-0.05l0.96-0.11l3.82-0.42c0.75-0.06,1.5-0.19,2.23-0.38c1.75-0.5,3.56-0.78,5.38-0.83
		c0.61-0.02,1.23-0.07,1.83-0.16c3.69-0.63,7.4-0.83,11.1-1.31c2.62-0.34,5.26-0.62,7.84-1.08c0.91-0.17,1.82-0.27,2.74-0.31
		c0.92-0.04,1.84-0.13,2.75-0.26l0.13-0.02l0.19-0.03c0.13-0.02,0.26-0.05,0.39-0.08c0.26-0.07,0.51-0.15,0.75-0.26
		c0.49-0.2,0.94-0.48,1.34-0.83c0.81-0.68,1.38-1.59,1.66-2.61c0.14-0.51,0.19-1.03,0.17-1.55c-0.03-0.46-0.11-0.91-0.23-1.35
		l-0.53-2.02c-0.42-1.45-0.7-2.93-0.82-4.43c-0.04-1.06-0.2-2.1-0.5-3.12c-0.64-1.9-1.12-3.86-1.42-5.85
		c-0.31-2.24-1.19-4.13-1.56-6.29c-0.1-0.6-0.26-1.23-0.33-1.82c-0.18-1.22-0.47-2.41-0.85-3.58c-0.53-1.75-1.1-3.53-1.5-5.32
		c-0.28-1.2-0.57-2.42-0.86-3.64c-0.14-0.61-0.27-1.21-0.39-1.82c-0.06-0.26-0.1-0.53-0.12-0.79c-0.01-0.16,0.01-0.33,0.06-0.49
		c0.2-0.62,0.67-1.1,1.28-1.33c0.29-0.11,0.6-0.12,0.9-0.05c0.08,0.01,0.15,0.03,0.22,0.07c0.08,0.03,0.15,0.06,0.21,0.11l0.23,0.16
		l0.38,0.31c0.23,0.2,0.45,0.41,0.66,0.62c0.65,0.65,1.37,1.22,2.15,1.72c2.2,1.43,4.27,3.06,6.18,4.85
		c0.78,0.73,1.63,1.39,2.54,1.96c0.39,0.24,0.76,0.51,1.1,0.82c0.86,0.82,1.85,1.49,2.92,1.99c0.81,0.38,1.54,0.9,2.17,1.54
		c2.08,2.04,4.38,3.86,6.85,5.41c1.15,0.75,2.23,1.6,3.24,2.53c1.06,0.95,2.07,1.93,3.16,2.88c0.88,0.73,1.98,1.14,3.13,1.17
		c1.16,0.02,2.28-0.37,3.18-1.1c0.56-0.43,1.05-0.94,1.46-1.51c1.73-2.65,3.32-5.28,4.92-7.96c0.39-0.65,0.83-1.28,1.26-1.92
		l3.63-5.35c0.85-1.95,2.3-3.65,3.35-5.54c0.5-0.91,1.31-1.84,1.74-2.71c1.03-2.06,2.35-4.01,3.47-6.02c0.46-0.81,0.92-1.6,1.4-2.4
		l0.72-1.19l0.37-0.59l0.18-0.3c0.04-0.05,0.08-0.11,0.12-0.16c0.24-0.32,0.57-0.56,0.96-0.67c0.4-0.11,0.82-0.08,1.21,0.07
		c0.37,0.14,0.67,0.41,0.86,0.76c0.09,0.17,0.15,0.35,0.18,0.54l0.03,0.33l0.03,0.55c0.03,0.46,0.1,0.92,0.2,1.37
		c0.22,1.05,0.35,2.12,0.38,3.2c0.03,0.6,0.12,1.24,0.21,1.84c0.52,3.5,0.87,6.68,1.07,10.11c0.02,0.9,0.16,1.8,0.43,2.66
		c0.57,1.7,0.85,3.49,0.83,5.28c-0.02,1.07,0.06,2.14,0.23,3.19c0.48,2.4,0.78,4.84,0.89,7.29c0.02,0.3,0.07,0.62,0.11,0.93
		l0.32,2.55l0.04,0.32l0.02,0.16l0.01,0.08l0.02,0.12c0.05,0.32,0.12,0.64,0.23,0.95c0.21,0.62,0.54,1.2,0.97,1.7
		c0.85,1.01,2.05,1.67,3.36,1.84c0.64,0.08,1.29,0.05,1.92-0.1l1.25-0.29c1.06-0.25,2.19-0.46,3.17-0.78
		c2.51-0.77,5.07-1.36,7.66-1.77c1.06-0.18,2.14-0.4,3.2-0.65c3.32-0.8,6.7-1.3,9.99-2.29c0.74-0.21,1.5-0.36,2.27-0.45
		c1.21-0.15,2.39-0.45,3.52-0.9c1.41-0.57,2.88-0.95,4.39-1.12c0.83-0.1,1.66-0.26,2.5-0.44l0.63-0.14
		c0.09-0.02,0.23-0.06,0.29-0.06s0.11-0.01,0.16-0.02c0.2-0.03,0.41-0.03,0.61,0.02c0.61,0.18,1.08,0.67,1.22,1.29
		c0.07,0.29,0.06,0.6-0.04,0.89c-0.04,0.07-0.07,0.14-0.09,0.21l-0.14,0.21c-0.07,0.12-0.16,0.23-0.24,0.33l-0.3,0.38
		c-1.58,2.03-3.17,4.05-4.81,6.03c-0.99,1.18-1.89,2.43-2.68,3.75c-0.39,0.65-0.85,1.26-1.38,1.82c-0.92,1-1.84,2.04-2.74,3.08
		c-0.41,0.45-0.8,0.93-1.16,1.42c-2.35,3.44-5.15,6.63-7.57,10.04c-0.97,1.36-2.12,2.67-3.05,4.1l-0.26,0.38l-0.3,0.42
		c-0.26,0.36-0.49,0.74-0.68,1.14c-0.39,0.82-0.53,1.74-0.39,2.64c0.14,0.92,0.53,1.78,1.13,2.5c0.3,0.35,0.64,0.67,1.02,0.93
		l0.27,0.19l0.19,0.12l0.38,0.26c0.5,0.34,0.97,0.71,1.41,1.11c0.36,0.27,0.76,0.51,1.17,0.7c1.1,0.56,2.15,1.22,3.15,1.95
		c0.95,0.73,2.01,1.31,3.12,1.73c0.7,0.26,1.35,0.65,1.91,1.14c0.98,0.91,2.11,1.64,3.34,2.16c1.81,0.77,3.49,1.81,4.97,3.1
		c1.07,1,2.31,1.79,3.66,2.34c0.9,0.38,1.86,0.9,2.8,1.34c0.95,0.43,1.82,1.03,2.57,1.75c0.72,0.74,1.54,1.37,2.43,1.88
		c0.69,0.37,1.36,0.76,2.03,1.17c0.8,0.48,0.98,0.63,1.2,0.98c0.36,0.7,0.23,1.56-0.33,2.11c-0.27,0.26-0.63,0.42-1.01,0.44
		c-0.78,0.09-1.54,0.2-2.26,0.36c-1.68,0.36-3.4,0.43-5.03,0.78c-1.67,0.28-3.36,0.43-5.05,0.47c-0.61,0.04-1.23,0.11-1.85,0.18
		l-6.97,0.87c-1.38,0.14-2.74,0.36-4.09,0.68c-1.04,0.27-2.11,0.42-3.18,0.45c-1.54,0.05-3.08,0.19-4.6,0.42
		c-1.66,0.26-3.38,0.38-5.05,0.63l-1.68,0.22c-0.8,0.12-1.56,0.43-2.22,0.89c-1.31,0.93-2.12,2.41-2.21,4.01
		c-0.02,0.4,0,0.8,0.07,1.19c0.04,0.23,0.06,0.32,0.09,0.45l0.08,0.39l0.33,1.54c0.45,2.05,0.96,4.08,1.59,6.07
		c0.21,0.74,0.37,1.48,0.49,2.24c0.68,3.81,1.58,7.58,2.68,11.29c0.84,2.48,1.46,5.02,1.87,7.61c0.12,0.87,0.42,1.82,0.61,2.73
		c0.32,1.44,0.64,2.89,0.95,4.34l0.45,2.17c0.02,0.08,0.03,0.16,0.04,0.25l0.01,0.16c0,0.05,0.01,0.11,0.02,0.16l-0.02,0.15
		l-0.01,0.15l-0.04,0.14c-0.02,0.09-0.05,0.18-0.1,0.26c-0.27,0.51-0.68,0.93-1.17,1.21c-0.5,0.3-1.08,0.44-1.66,0.43
		c-0.53-0.05-0.94,0.04-0.8,0.48c0.26,0.77,0.8,1.41,1.52,1.81c0.62,0.33,1.34,0.41,2.02,0.22c0.96-0.23,1.83-0.76,2.46-1.52
		c0.44-0.54,0.76-1.18,0.92-1.86c0.17-0.73,0.19-1.48,0.03-2.22c-0.05-0.28-0.12-0.56-0.21-0.83l-0.2-0.73
		c-0.27-0.97-0.53-1.94-0.77-2.92c-0.51-2.09-0.81-4.25-1.51-6.29c-0.47-2.43-0.97-4.87-1.42-7.3c-0.27-2.13-0.74-4.24-1.38-6.29
		c-0.14-0.44-0.24-0.89-0.29-1.35c-0.19-1.37-0.49-2.73-0.91-4.05c-0.22-0.74-0.39-1.49-0.51-2.25c-0.22-1.3-0.48-2.59-0.77-3.88
		l-0.44-1.93l-0.22-0.97l-0.11-0.48c0-0.08-0.04-0.15-0.03-0.23c-0.06-0.6,0.2-1.19,0.69-1.55c0.12-0.09,0.26-0.16,0.4-0.21
		c0.07-0.03,0.15-0.05,0.22-0.06c0.05-0.01,0.06-0.02,0.14-0.02l0.23-0.03c0.62-0.07,1.24-0.13,1.86-0.17
		c0.61-0.06,1.22-0.16,1.81-0.3c3.2-0.61,6.43-1.02,9.68-1.24c6.31-0.47,12.59-1.34,18.79-2.6c0.74-0.17,1.5-0.25,2.25-0.24
		c1.42,0.07,2.85,0.03,4.27-0.11l0.54-0.05l0.14-0.02l0.2-0.04l0.41-0.08c0.55-0.13,1.08-0.35,1.56-0.66
		c0.96-0.62,1.69-1.55,2.05-2.64c0.6-1.78,0.24-3.75-0.96-5.21c-0.16-0.17-0.31-0.33-0.47-0.49s-0.35-0.28-0.52-0.42
		c-0.08-0.06-0.2-0.15-0.25-0.18l-0.19-0.13l-0.38-0.26c-0.51-0.35-1.01-0.7-1.51-1.07c-0.98-0.74-2.04-1.38-3.15-1.9
		c-2.33-1.03-4.46-2.44-6.31-4.19c-0.55-0.51-1.19-0.92-1.89-1.21c-2.23-0.92-4.32-2.16-6.18-3.69c-0.59-0.47-1.22-0.88-1.89-1.23
		c-1.23-0.61-2.41-1.33-3.5-2.16c-2.4-1.71-4.89-3.3-7.45-4.75l-1.41-0.8c-0.26-0.17-0.48-0.41-0.62-0.69
		c-0.15-0.3-0.22-0.64-0.2-0.97c0.01-0.17,0.04-0.35,0.1-0.51c0.03-0.08,0.06-0.17,0.1-0.25c0.05-0.1,0.11-0.19,0.17-0.28
		c0.42-0.63,0.92-1.2,1.47-1.72c1.22-1.12,2.33-2.36,3.32-3.69c1.4-1.85,2.99-3.57,4.22-5.55c0.35-0.5,0.75-0.96,1.18-1.39
		c1.46-1.56,2.74-3.28,3.8-5.14c0.52-0.91,1.15-1.76,1.87-2.52c0.72-0.77,1.45-1.52,2.15-2.32c0.52-0.55,0.99-1.15,1.4-1.79
		c0.98-1.72,2.18-3.3,3.56-4.72c0.48-0.51,0.93-1.03,1.37-1.57l0.32-0.41l0.16-0.21c0.06-0.08,0.14-0.21,0.21-0.31
		c0.3-0.44,0.53-0.93,0.67-1.45c0.79-2.93-0.95-5.95-3.88-6.74c-0.18-0.05-0.35-0.09-0.53-0.11c-0.38-0.06-0.77-0.07-1.15-0.05
		c-0.34,0.03-0.67,0.08-1,0.15c-0.49,0.1-0.99,0.21-1.48,0.33c-0.98,0.24-1.96,0.51-2.9,0.82c-0.86,0.29-1.76,0.49-2.67,0.58
		c-0.61,0.07-1.21,0.17-1.8,0.3l-17.32,3.97c-0.73,0.15-1.45,0.36-2.15,0.64c-1.18,0.58-2.46,0.91-3.77,0.98
		c-1.21,0.1-2.42,0.29-3.6,0.57c-0.6,0.14-1.2,0.29-1.81,0.44l-0.9,0.23l-0.23,0.06l-0.11,0.02c-0.07,0.02-0.15,0.03-0.22,0.03
		c-0.66,0.05-1.28-0.29-1.61-0.86c-0.08-0.14-0.14-0.3-0.16-0.46l-0.02-0.13l-0.03-0.24l-0.05-0.49c-0.06-0.65-0.1-1.3-0.11-1.96
		c-0.05-1.23-0.23-2.45-0.55-3.64c-0.29-1.19-0.44-2.4-0.44-3.62c0.01-1.37-0.16-2.73-0.53-4.05c-0.24-0.88-0.37-1.79-0.39-2.71
		c-0.04-1.06-0.07-2.11-0.13-3.18c-0.02-0.61-0.09-1.22-0.2-1.82c-0.45-2.06-0.72-4.26-1.15-6.3c-0.3-1.33-0.47-2.69-0.5-4.06
		c-0.05-2.15-0.27-4.29-0.65-6.4l-0.17-1.03c-0.01-0.07-0.04-0.21-0.07-0.33l-0.09-0.37c-0.06-0.25-0.15-0.49-0.25-0.73
		c-0.41-0.96-1.11-1.76-2-2.31c-0.87-0.53-1.87-0.79-2.88-0.76c-1.03,0.03-2.02,0.37-2.85,0.98c-0.21,0.15-0.4,0.32-0.57,0.5
		c-0.18,0.17-0.34,0.36-0.49,0.57l-0.22,0.3l-0.15,0.22l-0.28,0.44l-1.15,1.76c-0.77,1.16-1.57,2.31-2.38,3.45
		c-0.44,0.62-0.87,1.28-1.29,1.93c-1.41,2.23-2.89,4.41-4.22,6.71c-0.85,1.46-1.78,2.96-2.74,4.34c-1.07,1.49-2.01,3.08-2.8,4.74
		c-0.53,1.11-1.17,2.15-1.92,3.12c-0.76,0.96-1.45,1.97-2.08,3.03c-0.7,1.23-1.42,2.42-2.18,3.57l-0.14,0.22
		c-0.04,0.06-0.08,0.12-0.12,0.18c-0.05,0.07-0.1,0.13-0.16,0.18c-0.11,0.11-0.25,0.2-0.39,0.26c-0.28,0.13-0.59,0.15-0.89,0.08
		c-0.23-0.06-0.51-0.18-0.7-0.2l-0.16-0.03c-0.09-0.05-0.2-0.11-0.3-0.16c-0.2-0.11-0.41-0.23-0.61-0.36
		c-0.41-0.25-0.81-0.52-1.22-0.8c-0.81-0.56-1.61-1.17-2.43-1.72c-1.01-0.67-1.94-1.44-2.78-2.31c-1.73-1.74-3.66-3.26-5.74-4.55
		c-0.51-0.32-1.02-0.6-1.51-0.95c-0.36-0.24-0.69-0.52-0.97-0.85c-0.69-1.07-1.65-1.93-2.79-2.5c-0.51-0.3-0.95-0.69-1.32-1.15
		c-0.59-0.68-1.3-1.26-2.08-1.71c-1.31-0.81-2.56-1.71-3.75-2.68c-1.26-0.97-2.31-2.05-3.49-3c-0.59-0.47-1.22-0.9-1.86-1.33
		c-0.34-0.22-0.55-0.39-1.13-0.72c-0.25-0.15-0.52-0.27-0.79-0.37c-0.27-0.11-0.56-0.19-0.85-0.24c-0.34-0.07-0.69-0.12-1.03-0.16
		c-0.36-0.02-0.72,0-1.07,0.05c-0.7,0.12-1.37,0.38-1.96,0.76c-0.59,0.39-1.1,0.89-1.51,1.47c-0.81,1.19-1.06,2.66-0.7,4.05
		c0.02,0.11,0.06,0.22,0.09,0.33l0.09,0.29l0.17,0.58l0.33,1.17c0.21,0.78,0.4,1.57,0.58,2.36c0.36,1.58,0.66,3.18,0.92,4.8
		c0.24,1.5,0.57,3.04,0.83,4.55c0.38,2.17,1.05,4.22,1.53,6.35c0.74,3.35,1.49,6.69,2.23,10.04c0.22,1.18,0.57,2.34,1.03,3.45
		c0.37,0.82,0.61,1.69,0.73,2.58c0.07,0.52,0.16,1.05,0.24,1.58l0.14,0.79c0.02,0.09,0.03,0.18,0.03,0.27c0,0.07,0,0.13,0,0.2
		c-0.06,0.52-0.31,0.99-0.71,1.34c-0.17,0.17-0.39,0.3-0.63,0.36c-0.06,0.01-0.12,0.02-0.18,0.04l-0.37,0.05l-0.75,0.08
		c-1,0.1-1.99,0.17-2.98,0.24c-0.92,0.04-1.83,0.18-2.72,0.41c-1.01,0.3-2.06,0.45-3.12,0.46c-1.39,0.05-2.77,0.22-4.14,0.49
		c-0.74,0.18-1.49,0.3-2.25,0.37c-2-0.02-3.99,0.65-5.96,0.62c-0.46,0.01-0.91,0.08-1.36,0.19c-1.47,0.38-2.99,0.56-4.51,0.54
		c-0.46,0.01-0.92,0.05-1.38,0.11l-7.89,0.96l-1.51,0.19l-0.38,0.05l-0.19,0.02c-0.06,0.01-0.12,0.01-0.22,0.03
		c-0.38,0.06-0.75,0.15-1.11,0.28c-1.5,0.55-2.69,1.71-3.28,3.2c-0.37,0.89-0.45,1.87-0.23,2.81c0.3,1.14,0.93,2.17,1.82,2.95
		c0.22,0.18,0.45,0.34,0.68,0.51l0.5,0.32l0.98,0.63c1.96,1.25,3.98,2.48,5.99,3.6c1.38,0.77,2.67,1.56,3.94,2.45
		c1.7,1.31,3.53,2.44,5.46,3.38c0.55,0.28,1.07,0.61,1.57,0.97c4.04,2.63,8.11,5.24,12.1,7.92c0.73,0.49,1.44,0.95,2.16,1.39
		c0.36,0.22,0.72,0.43,1.08,0.63c0.18,0.09,0.35,0.2,0.51,0.33c0.27,0.23,0.44,0.55,0.48,0.9c0.04,0.36-0.06,0.72-0.28,1.01
		l-0.6,0.7c-0.25,0.29-0.49,0.59-0.73,0.9c-0.48,0.61-0.94,1.23-1.38,1.88c-0.33,0.51-0.71,1-1.12,1.45
		c-0.73,0.78-1.36,1.64-1.9,2.56c-0.39,0.63-0.81,1.27-1.18,1.89c-0.39,0.65-0.86,1.26-1.39,1.8c-0.41,0.42-0.83,0.86-1.24,1.25
		c-1.66,1.57-3.15,3.31-4.43,5.2c-0.51,0.77-1.08,1.51-1.7,2.2c-1.25,1.36-2.4,2.81-3.44,4.34c-1.7,2.38-3.39,4.75-5.34,6.98
		c-0.13,0.15-0.23,0.27-0.37,0.46c-0.16,0.24-0.32,0.49-0.47,0.75c-0.13,0.27-0.24,0.56-0.34,0.84c-0.08,0.29-0.15,0.59-0.19,0.89
		c-0.27,2.02,0.67,4.01,2.41,5.07c0.82,0.51,1.78,0.76,2.74,0.73c0.23,0,0.46-0.02,0.69-0.07l0.34-0.07
		c0.1-0.02,0.19-0.04,0.29-0.07l0.94-0.28c0.73-0.23,1.47-0.41,2.23-0.54c3.06-0.45,6.1-1.07,9.09-1.86
		c1.51-0.36,3.08-0.71,4.48-1.16c1.43-0.5,2.91-0.83,4.42-0.96c0.56-0.04,1.16-0.11,1.76-0.2c3.34-0.48,6.63-1.64,10-2.12
		c0.91-0.16,1.8-0.4,2.66-0.72c0.65-0.23,1.3-0.43,1.97-0.6c0.33-0.09,0.67-0.17,1.01-0.24l0.26-0.05l0.15-0.02
		c0.09-0.01,0.18-0.01,0.28,0c0.56,0.06,1.09,0.3,1.49,0.7c0.14,0.15,0.24,0.33,0.3,0.52c0.03,0.1,0.05,0.2,0.06,0.31
		c0.01,0.03,0.02,0.16,0.03,0.25l0.03,0.29c0.07,0.76,0.05,1.53,0.15,2.27c0.26,1.88,0.4,3.72,0.47,5.54
		c0.03,0.92,0.14,1.83,0.35,2.73c0.71,2.99,1.16,6.04,1.34,9.11c0.13,2.32,0.42,4.63,0.88,6.91c0.47,2.27,0.76,4.58,0.85,6.9
		c0.05,1.19,0.16,2.33,0.31,3.45c0.08,0.56,0.16,1.12,0.25,1.69l0.07,0.42l0.02,0.11l0.03,0.15l0.07,0.31
		c0.1,0.42,0.26,0.83,0.46,1.21c0.5,0.91,1.26,1.65,2.18,2.12c0.9,0.46,1.92,0.65,2.93,0.56c1.02-0.1,2-0.5,2.79-1.15
		c0.19-0.17,0.38-0.34,0.55-0.52l0.46-0.58l0.62-0.85c1.48-1.96,2.8-4.05,3.94-6.22c0.74-1.52,1.63-2.97,2.68-4.3
		c1.17-1.39,2.16-2.92,2.95-4.56c0.27-0.55,0.6-1.08,0.98-1.57C-624.85-373.93-623.09-376.65-621.58-379.52z"/>
</g>
</svg>
