<?xml version="1.0" encoding="utf-8"?>
<!-- Generator: Adobe Illustrator 25.1.0, SVG Export Plug-In . SVG Version: 6.00 Build 0)  -->
<svg version="1.1" id="Layer_1" xmlns="http://www.w3.org/2000/svg" xmlns:xlink="http://www.w3.org/1999/xlink" x="0px" y="0px"
	 viewBox="0 0 1468.06 19.16" style="enable-background:new 0 0 1468.06 19.16;" xml:space="preserve">
<path id="Path_25" d="M115.92,7.05c-0.83,0.02-1.85-0.02-2.67,0.03c-3.28,0.21-6.46,0.1-9.76,0.01c-2.94-0.09-6-0.04-9-0.05
	c-4.2-0.02-8.55,0.08-12.58-0.08c-3.96-0.16-7.79-0.18-11.61-0.07c-6.89,0.2-13.77,0.2-20.69,0.16C42.13,7.01,34.63,6.8,27.17,7.11
	c-0.57,0.02-1.21,0.02-1.8,0.01c-4.57-0.06-9.13,0.31-13.63,1.1c-2.85,0.42-3.3,1.59,0.08,2.09c3.89,0.76,7.86,1.05,11.83,0.88
	c0.53-0.03,1.2,0.01,1.78,0.03c3.54,0.15,7.02,0.19,10.71,0.12c3.8-0.07,7.71,0.12,11.59,0.15c3,0.03,6.02,0.04,8.95-0.15
	c2.06-0.13,4.13-0.07,6.24,0.01c2.35,0.08,4.75,0.13,7.13,0.16s4.81-0.01,7.2,0.03c2.32,0.06,4.64-0.03,6.95-0.25
	c2.27-0.26,4.56-0.27,6.84-0.05c1.45,0.13,2.91,0.18,4.37,0.13c5.42-0.21,10.7-0.07,16.15,0.02c10.1,0.16,21.62-0.28,26.04-0.06
	c2.32,0.13,4.65,0.08,6.96-0.15c3.47-0.32,6.96-0.37,10.44-0.13c4.31,0.24,15.37,0.24,19.69,0.02c3.02-0.15,5.94-0.15,8.93-0.08
	c1.79,0.04,3.56,0.17,5.32,0.16c2.67-0.02,5.32-0.16,7.99-0.2s5.21,0.28,8,0.11c4.15-0.24,8.31-0.24,12.46,0
	c3.87,0.19,7.78,0.19,11.66,0.08c7.24-0.21,14.34-0.1,21.42,0.2c0.86,0.04,1.89,0.09,2.64,0.04c3.76-0.27,7.83-0.1,11.58-0.3
	c2.71-0.14,5.23-0.12,7.98-0.04c7.45,0.21,14.97,0.3,22.5,0.18c3.55-0.06,6.94-0.23,10.67-0.06c3.2,0.12,6.4,0.01,9.59-0.33
	c2.01-0.2,4.03-0.24,6.04-0.12c7.31,0.36,14.73,0.48,22.28,0.25c3.55-0.11,7.17-0.16,10.76-0.21c1.46-0.02,3.08-0.04,4.41,0.05
	c3.2,0.22,6.3,0.26,9.71,0.17c2.91-0.08,5.9-0.03,8.91,0.12c3.43,0.18,7.1,0.21,10.67,0.3c2.06,0.07,4.12,0.02,6.17-0.15
	c1.72-0.17,3.44-0.2,5.16-0.06c6.76,0.42,13.53,0.38,20.28-0.12c3.92-0.49,7.89-0.52,11.81-0.09c1.35,0.12,2.88,0.16,4.33,0.23
	c3.51,0.19,6.96,0.23,10.67,0.12c4.72-0.14,9.61-0.26,14.37-0.05c3.22,0.17,6.45,0.13,9.66-0.12c1.16-0.06,2.33-0.06,3.49,0
	c3.34,0.14,6.63,0.08,9.82-0.09c2.41-0.13,4.7-0.14,7.1-0.04c1.76,0.08,3.62,0.07,5.33,0.17c2.96,0.17,5.92,0.16,8.88-0.02
	c2.38-0.14,4.71-0.08,7.12-0.05c6.85,0.1,13.71,0.38,20.61,0.06c0.85-0.04,1.8,0,2.7,0c9.9,0.01,19.8,0.02,29.7,0.12
	c1.45,0.02,3.14,0.01,4.36-0.11c3.49-0.31,7-0.37,10.5-0.18c1.15,0.05,2.4,0.11,3.54,0.08c7.21-0.19,14.37,0.09,21.57,0.07
	c5.1-0.02,10.21,0.03,15.28-0.12c1.81-0.05,3.51-0.06,5.33,0.04c1.7,0.09,3.56,0.11,5.34,0.09c5.41-0.04,10.84-0.08,16.21-0.2
	c2.9-0.1,5.8-0.03,8.69,0.21c2.02,0.22,4.05,0.3,6.08,0.23c3.87-0.22,7.74-0.25,11.61-0.09c4.35,0.22,8.29-0.27,12.49-0.13
	c1.18,0.04,2.44,0.03,3.57,0.09c2.42,0.14,4.72,0.06,7.11-0.04c3.52-0.14,7.11-0.32,10.66-0.31c4.77,0.02,9.66-0.14,14.35,0.14
	c5.02,0.31,10.18,0.08,15.24,0.17c0.59,0.01,1.17,0.05,1.73,0.09c1.77,0.12,3.54,0.13,5.3,0.04c5.05-0.25,10.11-0.24,15.16,0.02
	c2.07,0.11,4.14,0.1,6.2-0.02c0.88-0.06,1.76-0.07,2.64-0.04c2.27,0.13,4.56,0.05,6.82-0.25c1.7-0.22,3.42-0.27,5.13-0.14
	c5.6,0.37,11.23,0.39,16.84,0.06c2.78-0.14,5.22-0.1,7.93,0.01c5.46,0.22,10.89,0.69,16.65,0.2c0.74-0.06,1.78-0.02,2.68-0.01
	c6.02,0.06,12.02,0,18.03-0.07c1.46-0.02,2.95,0.03,4.42,0.05c4.16,0.08,8.31,0.17,12.46,0.26c4.06-0.35,8.32,0.02,12.48-0.12
	c2-0.07,4.35,0.15,6.22,0.04c4.43-0.26,8.96-0.16,13.4-0.29c3.58-0.1,7.12-0.11,10.74-0.12c5.73-0.02,11.39-0.04,17.02,0.18
	c0.85,0.03,1.85,0.01,2.68-0.03c2.11-0.13,4.14-0.06,6.22,0.02c1.16,0.04,2.4,0.04,3.58,0.02c6.84-0.1,13-0.05,19.62,0.2
	c1.73,0.1,3.47,0.06,5.2-0.12c3.42-0.4,6.87-0.47,10.31-0.2c2.05,0.17,4.11,0.23,6.17,0.18c4.75-0.21,9.44-0.19,14.16,0.01
	c0.57,0.02,1.2,0.01,1.8,0.01c6.62,0,13.24,0,19.85,0c2.11,0,4.32,0.04,6.3-0.05c5.1-0.26,10.1-0.18,15.18-0.01
	c2.07,0.07,4.2,0.1,6.3,0.09c6.59-0.04,13.17,0.26,19.78-0.01c1.4-0.06,3.05,0,4.46,0.08c2.33,0.14,4.67,0.11,7-0.1
	c2.91-0.27,5.83-0.31,8.75-0.13c3.2,0.2,6.55,0.13,9.86,0.13c9.92-0.01,19.84-0.11,29.76,0.05c2.99,0.05,6.03,0,8.89-0.21
	c1.46-0.1,2.93-0.11,4.4-0.04c2.62,0.12,5.29,0.21,7.95,0.3c1.17,0.04,2.42,0.09,3.55,0.05c8.03-0.3,16.2-0.02,24.27-0.23
	c3.22-0.08,6.58,0.04,9.85-0.13c1.19-0.06,2.37-0.06,3.56,0c4.59,0.29,9.64-0.18,14.12,0.31c0.88,0.04,1.76,0.03,2.63-0.03
	c2.39-0.12,4.78-0.13,7.15-0.02c2.3,0.12,4.6,0.05,6.89-0.21c1.42-0.17,2.86-0.19,4.29-0.05c2.55,0.28,5.13,0.3,7.69,0.06
	c3.76-0.35,7.55-0.35,11.31-0.02c2.78,0.31,5.6,0.33,8.38,0.04c1.86-0.17,3.97-0.26,5.95-0.39c2-0.15,4.01-0.11,5.99,0.13
	c1.96,0.28,3.93,0.39,5.91,0.34c6.04-0.23,11.98,0.01,17.96,0.05c3,0.02,6.16,0.09,8.97-0.05c3.3-0.16,6.62-0.01,9.81-0.18
	c3.39-0.18,6.54,0.08,9.78,0.17c1.18,0.03,2.39,0.05,3.58,0.05c4.52,0,9.03,0,13.55-0.01c2.7-0.01,5.42,0.02,7.99-0.2
	c2.06-0.16,4.13-0.18,6.2-0.06c2.93,0.15,5.82,0.22,8.9,0.16c3.25-0.05,6.57,0.04,9.83,0c2.12-0.03,4.17,0.01,6.26,0.03
	c8.08,0.07,16.19,0.29,24.24-0.1c1.37-0.07,2.95-0.01,4.42,0.02c7.48,0.14,14.86,0.24,22.39-0.1c4.84-0.22,9.95-0.41,15.11-0.14
	c1.68,0.09,3.6,0,5.4,0.02c5.71,0.05,11.44,0,17.1,0.21c3.79,0.18,7.59-0.08,11.31-0.77c1.32-0.26,1.73-0.6,0.99-0.93
	c-1.03-0.46-2.34-0.9-3.5-1.35c-2.16-0.56-4.4-0.8-6.63-0.74c-0.87-0.02-1.78,0.02-2.67,0.05c-3.88,0.09-7.74,0.24-11.64,0.27
	c-4.15,0.03-8.35-0.18-12.47,0.08c-4.78-0.09-9.57-0.16-14.34-0.27c-4.14-0.23-8.28-0.25-12.42-0.06c-0.89,0.04-1.78,0.03-2.67-0.02
	c-2.67-0.14-5.34-0.15-8.01-0.02c-1.39,0.07-3,0.05-4.44,0c-5.08-0.18-10.18-0.13-15.3-0.13c-4.8,0-9.57,0.2-14.4,0.03
	c-1.12-0.04-2.39,0.03-3.54,0.08c-6.26,0.29-12.6,0.2-18.84,0.04c-12.34-0.31-24.53-0.27-36.61,0.31c-1.46,0.09-2.92,0.08-4.37-0.05
	c-5.55-0.51-11.12-0.62-16.69-0.35c-4.82,0.2-9.54,0.21-14.31,0c-2.36-0.12-4.73-0.1-7.09,0.07c-4.87,0.41-9.77,0.34-14.62-0.21
	c-1.44-0.16-2.89-0.17-4.34-0.02c-4.62,0.46-9.26,0.52-13.89,0.18c-1.45-0.1-2.9-0.11-4.35-0.04c-2.64,0.16-5.29,0.17-7.94,0.03
	c-5.63-0.2-11.38-0.21-17.05-0.07c-4.76,0.11-9.46,0.31-14.18,0.48c-1.45,0.06-2.91,0.02-4.36-0.12c-3.18-0.31-6.37-0.43-9.56-0.39
	c-4.48,0.04-8.98-0.18-13.46,0.1c-1.17,0.03-2.34,0-3.51-0.09c-4.11-0.22-8.23-0.16-12.33,0.18c-2.02,0.17-4.04,0.2-6.06,0.09
	c-2.03-0.1-4.02-0.23-6.08-0.31c-1.46-0.08-2.93-0.08-4.39,0c-3.8,0.31-7.61,0.35-11.41,0.11c-2.67-0.14-5.35-0.16-8.05-0.08
	c-3.88,0.12-7.7,0.13-11.64,0.01c-3.85-0.11-7.83-0.12-11.65,0.1c-1.75,0.1-3.51,0.09-5.26-0.03c-1.1-0.08-2.34-0.12-3.51-0.12
	c-11.43-0.01-22.86,0-34.29,0.01c-1.44-0.02-2.88,0.03-4.31,0.16c-2.49,0.33-5.01,0.37-7.51,0.12c-4.73-0.3-9.47-0.37-14.2-0.19
	c-5.02,0.05-10.04,0.27-15.08-0.05c-2.36-0.12-4.73-0.08-7.09,0.11c-2.35,0.16-4.7,0.16-7.04-0.01c-2.63-0.2-5.26-0.19-7.89,0.03
	c-1.75,0.15-3.52,0.17-5.27,0.06c-2.04-0.1-4.06-0.21-6.12-0.29c-1.15-0.04-2.46-0.09-3.54-0.03c-4.05,0.22-8.33,0.22-12.34,0.42
	c-2.63,0.16-5.26,0.16-7.89,0c-4.06-0.26-8.07-0.26-12.4-0.16c-10.74,0.24-21.56,0.34-32.32-0.05c-1.46-0.05-2.98-0.07-4.48-0.07
	c-5.1-0.01-10.18-0.11-15.3-0.02c-3.27,0.06-6.67,0.07-9.9-0.02c-3.54-0.13-7.08-0.07-10.62,0.16c-2.35,0.16-4.72,0.17-7.07,0.04
	c-2.29-0.11-4.8-0.23-7.08-0.17c-5.47,0.14-10.74,0.08-16.01-0.2c-1.15-0.08-2.31-0.07-3.46,0.02c-3.45,0.44-7.43,0.38-11.21,0.53
	c-2.32,0.1-4.65,0.06-6.97-0.12c-4.71-0.34-9.43-0.36-14.14-0.06c-1.15,0.07-2.26,0.17-3.43,0.2c-0.83,0.04-1.66,0.01-2.49-0.08
	c-2.37-0.47-4.81-0.57-7.21-0.29c-1.13,0.08-2.26,0.04-3.38-0.11c-1.72-0.19-3.46-0.22-5.19-0.08c-2.87,0.23-5.86,0.2-8.88,0.21
	c-3.07,0.01-5.95-0.22-8.88-0.24s-5.87,0.2-8.84,0.29c-0.84,0.03-1.77-0.05-2.66-0.05c-3.6-0.01-7.18-0.04-10.76,0.13
	c-6.23,0.28-12.51,0.25-18.8,0.01c-2.93-0.11-5.95-0.14-8.91-0.23c-4.24-0.13-8.4,0.1-12.6,0.09c-6.62-0.01-13.23-0.04-19.84-0.07
	c-2.32-0.05-4.63,0.03-6.94,0.26c-1.71,0.19-3.44,0.24-5.16,0.15c-2.02-0.1-4.11-0.17-6.18-0.22s-4.24-0.16-6.24-0.1
	c-3.97,0.12-7.78,0.02-11.63-0.1c-1.77-0.08-3.54-0.05-5.31,0.09c-2.02,0.19-4.06,0.22-6.09,0.08c-2.63-0.18-5.35-0.09-8.04-0.02
	c-1.48,0.04-3.21,0.19-4.4,0.1c-3.84-0.29-7.79,0.17-11.57-0.12c-0.88-0.05-1.77-0.04-2.65,0.03c-2.92,0.22-5.85,0.21-8.76-0.02
	c-0.78-0.07-1.77-0.06-2.66-0.06c-5.11-0.01-10.22-0.03-15.33-0.02c-3.92,0.01-7.82,0.04-11.69-0.12c-1.17-0.06-2.35-0.06-3.52,0
	c-2.89,0.23-5.78,0.18-8.8,0.17c-4.49-0.02-9.05,0.02-13.48,0.15c-3.05,0.09-5.96,0.11-8.95,0.03c-4.13-0.23-8.26-0.22-12.38,0.04
	c-0.97,0.09-2.37,0.03-3.57,0.02c-9.31-0.09-18.63-0.14-27.9-0.31c-3.39-0.06-6.57-0.07-9.77,0.11c-2.66,0.17-5.33,0.2-8,0.09
	c-2.97-0.13-5.94-0.15-8.96-0.03c-1.14,0.04-2.47,0.07-3.53,0.01c-2.05-0.1-4.11-0.07-6.15,0.09c-1.43,0.09-2.89,0.16-4.28,0.26
	c-1.46,0.11-2.93,0.11-4.39,0.01c-1.13-0.08-2.3-0.14-3.37-0.24c-4.38-0.38-8.78-0.5-13.17-0.33c-1.75,0.06-3.74,0.11-5.36,0.01
	c-3.61-0.22-7.13-0.13-10.69-0.05c-5.64,0.13-11.25,0.27-16.96,0.1c-1.44-0.04-2.99,0.04-4.49,0.05c-5.15,0.04-10.1,0.29-15.13,0.46
	c-1.45,0.05-3.1,0.11-4.42,0.03c-5.89-0.37-11.91-0.26-17.9-0.24c-2.99,0.01-6.11,0-8.93,0.15c-2.9,0.19-5.82,0.17-8.72-0.06
	c-1.07-0.1-2.24-0.17-3.4-0.22c-6.49-0.31-13.18,0.13-19.73-0.19c-1.77-0.05-3.54-0.01-5.31,0.12c-2.64,0.17-5.25,0.23-7.98,0.14
	c-2.11-0.07-4.15-0.03-6.25,0.05c-1.4,0.06-2.96,0.02-4.43-0.01s-2.94-0.15-4.39-0.14c-3.66,0.03-7.21-0.07-10.72-0.23
	c-1.77-0.1-3.54-0.09-5.3,0.02c-5.8,0.39-11.69,0.44-17.76,0.24c-4.44-0.15-8.98-0.2-13.44,0.03c-4.48,0.23-9.1,0.19-13.42,0
	c-4.59-0.21-8.8-0.14-13.32,0.02c-5.3,0.19-10.84,0.25-16.13,0.01c-4.81-0.22-9.46-0.27-14.22-0.04c-3.25,0.21-6.52,0.21-9.77,0.02
	c-3.49-0.28-6.99-0.31-10.48-0.09c-1.19,0.07-2.38,0.07-3.57,0.01C128.44,6.86,122.18,6.79,115.92,7.05z"/>
</svg>
