<svg id="eQgljEKYH5x1" xmlns="http://www.w3.org/2000/svg" xmlns:xlink="http://www.w3.org/1999/xlink" viewBox="0 0 179.060000 180.140000" shape-rendering="geometricPrecision" text-rendering="geometricPrecision"><g id="eQgljEKYH5x2" transform="matrix(1 0 0 1 713.97500000000002 528.22600000000000)"><path id="eQgljEKYH5x3" d="M-621.580000,-379.520000C-621.370000,-379.900000,-621.050000,-380.320000,-620.870000,-380.710000C-620.090000,-382.210000,-619.200000,-383.650000,-618.190000,-385C-617.750000,-385.630000,-617.330000,-386.280000,-616.920000,-386.940000L-616.610000,-387.440000C-616.580000,-387.500000,-616.540000,-387.550000,-616.500000,-387.600000C-616.480000,-387.640000,-616.450000,-387.670000,-616.420000,-387.710000C-616.310000,-387.850000,-616.180000,-387.960000,-616.030000,-388.040000C-615.600000,-388.300000,-615.080000,-388.330000,-614.620000,-388.140000C-614.510000,-388.090000,-614.400000,-388.030000,-614.300000,-387.950000C-614.130000,-387.830000,-613.890000,-387.620000,-613.690000,-387.460000C-613.270000,-387.120000,-612.870000,-386.770000,-612.480000,-386.420000C-610.990000,-385.080000,-609.420000,-383.830000,-607.770000,-382.670000C-604.850000,-380.610000,-602.040000,-378.420000,-599.230000,-376.190000C-596.200000,-373.780000,-593.250000,-371.240000,-590.030000,-369.080000C-589.770000,-368.900000,-589.530000,-368.710000,-589.290000,-368.510000C-587.430000,-367,-585.350000,-365.800000,-583.120000,-364.940000C-581.730000,-364.330000,-580.900000,-365.010000,-582,-366.440000C-583.140000,-368.180000,-584.620000,-369.680000,-586.350000,-370.830000C-586.600000,-371.010000,-586.840000,-371.210000,-587.060000,-371.420000C-588.430000,-372.660000,-589.870000,-373.830000,-591.370000,-374.920000C-592.960000,-376.080000,-594.460000,-377.460000,-596.020000,-378.720000C-597.210000,-379.710000,-598.460000,-380.630000,-599.760000,-381.470000C-600.660000,-382.060000,-601.510000,-382.730000,-602.300000,-383.460000C-603.210000,-384.270000,-604.170000,-385.060000,-605.130000,-385.850000C-606.090000,-386.640000,-607.100000,-387.380000,-608.050000,-388.170000C-608.970000,-388.950000,-609.970000,-389.630000,-611.030000,-390.210000C-611.290000,-390.340000,-611.540000,-390.490000,-611.780000,-390.640000C-611.980000,-390.750000,-612.370000,-391.050000,-612.760000,-391.240000C-613.570000,-391.670000,-614.460000,-391.930000,-615.370000,-392.010000C-615.940000,-392.060000,-616.520000,-392,-617.060000,-391.820000C-617.640000,-391.640000,-618.180000,-391.340000,-618.640000,-390.940000C-619.050000,-390.580000,-619.410000,-390.160000,-619.700000,-389.700000L-619.800000,-389.540000L-619.870000,-389.430000L-620,-389.200000L-620.270000,-388.750000C-620.630000,-388.150000,-621,-387.570000,-621.370000,-386.980000C-622.120000,-385.810000,-622.900000,-384.660000,-623.690000,-383.490000C-626.590000,-379.130000,-629.430000,-373.860000,-630.810000,-372.030000C-631.550000,-371.070000,-632.150000,-370.020000,-632.610000,-368.900000C-633.320000,-367.230000,-634.250000,-365.670000,-635.380000,-364.260000C-637.360000,-361.500000,-639.180000,-358.620000,-640.810000,-355.630000C-640.970000,-355.240000,-641.280000,-354.940000,-641.680000,-354.790000C-642.080000,-354.650000,-642.520000,-354.660000,-642.920000,-354.830000C-643.150000,-354.920000,-643.350000,-355.070000,-643.510000,-355.260000C-643.650000,-355.430000,-643.770000,-355.610000,-643.870000,-355.810000C-643.900000,-355.890000,-643.930000,-355.970000,-643.970000,-356.050000C-644,-356.130000,-644.010000,-356.230000,-644.050000,-356.310000L-644.070000,-356.380000L-644.090000,-356.510000L-644.130000,-356.770000L-644.220000,-357.280000C-644.340000,-357.960000,-644.470000,-358.640000,-644.570000,-359.320000C-644.780000,-360.690000,-644.650000,-362.030000,-644.980000,-363.440000C-645.450000,-365.540000,-645.720000,-367.690000,-645.770000,-369.850000C-645.860000,-371.860000,-646.080000,-373.870000,-646.440000,-375.850000C-647.060000,-379.500000,-647.460000,-383.190000,-647.630000,-386.890000C-647.640000,-387.350000,-647.680000,-387.800000,-647.770000,-388.250000C-648.250000,-390.160000,-648.360000,-392.270000,-648.770000,-394.170000C-648.850000,-394.520000,-648.910000,-394.850000,-648.970000,-395.190000L-649.050000,-395.700000L-649.090000,-395.960000L-649.160000,-396.320000C-649.360000,-397.320000,-649.840000,-398.250000,-650.550000,-398.980000C-651.570000,-400.040000,-652.980000,-400.610000,-654.450000,-400.550000C-654.630000,-400.550000,-654.810000,-400.530000,-654.990000,-400.500000L-655.260000,-400.460000L-655.450000,-400.420000L-656.160000,-400.280000L-657.590000,-399.980000C-659.490000,-399.580000,-661.390000,-399.130000,-663.280000,-398.650000C-665.050000,-398.120000,-666.840000,-397.690000,-668.660000,-397.360000C-670.300000,-397.100000,-671.910000,-396.630000,-673.440000,-395.970000C-674.410000,-395.570000,-675.430000,-395.300000,-676.470000,-395.170000C-680.290000,-394.650000,-684.060000,-393.860000,-687.770000,-392.810000C-689.540000,-392.300000,-691.360000,-391.850000,-693.170000,-391.390000L-693.730000,-391.250000C-693.890000,-391.200000,-694.060000,-391.170000,-694.230000,-391.150000C-694.450000,-391.110000,-694.680000,-391.120000,-694.890000,-391.200000C-695.320000,-391.360000,-695.690000,-391.640000,-695.970000,-392C-696.240000,-392.370000,-696.410000,-392.810000,-696.460000,-393.260000C-696.470000,-393.690000,-696.320000,-394.120000,-696.020000,-394.430000C-695.530000,-395.030000,-695.020000,-395.610000,-694.480000,-396.180000C-693.260000,-397.480000,-692.070000,-398.970000,-690.870000,-400.380000C-690.160000,-401.180000,-689.540000,-402.050000,-689.010000,-402.980000C-688.590000,-403.770000,-688.050000,-404.500000,-687.410000,-405.120000C-684.960000,-407.640000,-682.820000,-410.450000,-681.030000,-413.480000C-680.140000,-415.340000,-678.880000,-417,-677.330000,-418.360000C-676.820000,-418.850000,-676.300000,-419.450000,-675.790000,-420C-674.530000,-421.350000,-673.360000,-422.780000,-672.310000,-424.300000L-671.200000,-425.890000C-670.670000,-426.680000,-670.360000,-427.600000,-670.300000,-428.540000C-670.180000,-430.460000,-671.070000,-432.310000,-672.640000,-433.420000C-673.980000,-434.440000,-675.420000,-435.310000,-676.960000,-436C-677.500000,-436.270000,-678.020000,-436.590000,-678.490000,-436.960000C-679.870000,-437.960000,-681.320000,-438.840000,-682.840000,-439.600000C-683.940000,-440.150000,-684.990000,-440.800000,-685.980000,-441.530000C-686.710000,-442.070000,-687.530000,-442.580000,-688.240000,-443.130000C-689.450000,-444.070000,-690.760000,-444.880000,-692.140000,-445.560000C-693.230000,-446.130000,-694.280000,-446.780000,-695.290000,-447.490000C-698.200000,-449.550000,-701.200000,-451.460000,-704.310000,-453.210000C-704.700000,-453.410000,-705.100000,-453.700000,-705.500000,-453.950000L-706.320000,-454.460000L-706.520000,-454.590000L-706.620000,-454.670000C-706.680000,-454.730000,-706.770000,-454.760000,-706.810000,-454.820000C-707.040000,-455.020000,-707.190000,-455.290000,-707.260000,-455.590000C-707.400000,-456.210000,-707.200000,-456.860000,-706.730000,-457.290000C-706.500000,-457.490000,-706.210000,-457.620000,-705.910000,-457.650000C-705.780000,-457.680000,-705.640000,-457.700000,-705.510000,-457.710000L-705.030000,-457.760000L-704.070000,-457.870000L-700.250000,-458.290000C-699.500000,-458.350000,-698.750000,-458.480000,-698.020000,-458.670000C-696.270000,-459.170000,-694.460000,-459.450000,-692.640000,-459.500000C-692.030000,-459.520000,-691.410000,-459.570000,-690.810000,-459.660000C-687.120000,-460.290000,-683.410000,-460.490000,-679.710000,-460.970000C-677.090000,-461.310000,-674.450000,-461.590000,-671.870000,-462.050000C-670.960000,-462.220000,-670.050000,-462.320000,-669.130000,-462.360000C-668.210000,-462.400000,-667.290000,-462.490000,-666.380000,-462.620000L-666.250000,-462.640000L-666.060000,-462.670000C-665.930000,-462.690000,-665.800000,-462.720000,-665.670000,-462.750000C-665.410000,-462.820000,-665.160000,-462.900000,-664.920000,-463.010000C-664.430000,-463.210000,-663.980000,-463.490000,-663.580000,-463.840000C-662.770000,-464.520000,-662.200000,-465.430000,-661.920000,-466.450000C-661.780000,-466.960000,-661.730000,-467.480000,-661.750000,-468C-661.780000,-468.460000,-661.860000,-468.910000,-661.980000,-469.350000L-662.510000,-471.370000C-662.930000,-472.820000,-663.210000,-474.300000,-663.330000,-475.800000C-663.370000,-476.860000,-663.530000,-477.900000,-663.830000,-478.920000C-664.470000,-480.820000,-664.950000,-482.780000,-665.250000,-484.770000C-665.560000,-487.010000,-666.440000,-488.900000,-666.810000,-491.060000C-666.910000,-491.660000,-667.070000,-492.290000,-667.140000,-492.880000C-667.320000,-494.100000,-667.610000,-495.290000,-667.990000,-496.460000C-668.520000,-498.210000,-669.090000,-499.990000,-669.490000,-501.780000C-669.770000,-502.980000,-670.060000,-504.200000,-670.350000,-505.420000C-670.490000,-506.030000,-670.620000,-506.630000,-670.740000,-507.240000C-670.800000,-507.500000,-670.840000,-507.770000,-670.860000,-508.030000C-670.870000,-508.190000,-670.850000,-508.360000,-670.800000,-508.520000C-670.600000,-509.140000,-670.130000,-509.620000,-669.520000,-509.850000C-669.230000,-509.960000,-668.920000,-509.970000,-668.620000,-509.900000C-668.540000,-509.890000,-668.470000,-509.870000,-668.400000,-509.830000C-668.320000,-509.800000,-668.250000,-509.770000,-668.190000,-509.720000L-667.960000,-509.560000L-667.580000,-509.250000C-667.350000,-509.050000,-667.130000,-508.840000,-666.920000,-508.630000C-666.270000,-507.980000,-665.550000,-507.410000,-664.770000,-506.910000C-662.570000,-505.480000,-660.500000,-503.850000,-658.590000,-502.060000C-657.810000,-501.330000,-656.960000,-500.670000,-656.050000,-500.100000C-655.660000,-499.860000,-655.290000,-499.590000,-654.950000,-499.280000C-654.090000,-498.460000,-653.100000,-497.790000,-652.030000,-497.290000C-651.220000,-496.910000,-650.490000,-496.390000,-649.860000,-495.750000C-647.780000,-493.710000,-645.480000,-491.890000,-643.010000,-490.340000C-641.860000,-489.590000,-640.780000,-488.740000,-639.770000,-487.810000C-638.710000,-486.860000,-637.700000,-485.880000,-636.610000,-484.930000C-635.730000,-484.200000,-634.630000,-483.790000,-633.480000,-483.760000C-632.320000,-483.740000,-631.200000,-484.130000,-630.300000,-484.860000C-629.740000,-485.290000,-629.250000,-485.800000,-628.840000,-486.370000C-627.110000,-489.020000,-625.520000,-491.650000,-623.920000,-494.330000C-623.530000,-494.980000,-623.090000,-495.610000,-622.660000,-496.250000L-619.030000,-501.600000C-618.180000,-503.550000,-616.730000,-505.250000,-615.680000,-507.140000C-615.180000,-508.050000,-614.370000,-508.980000,-613.940000,-509.850000C-612.910000,-511.910000,-611.590000,-513.860000,-610.470000,-515.870000C-610.010000,-516.680000,-609.550000,-517.470000,-609.070000,-518.270000L-608.350000,-519.460000L-607.980000,-520.050000L-607.800000,-520.350000C-607.760000,-520.400000,-607.720000,-520.460000,-607.680000,-520.510000C-607.440000,-520.830000,-607.110000,-521.070000,-606.720000,-521.180000C-606.320000,-521.290000,-605.900000,-521.260000,-605.510000,-521.110000C-605.140000,-520.970000,-604.840000,-520.700000,-604.650000,-520.350000C-604.560000,-520.180000,-604.500000,-520,-604.470000,-519.810000L-604.440000,-519.480000L-604.410000,-518.930000C-604.380000,-518.470000,-604.310000,-518.010000,-604.210000,-517.560000C-603.990000,-516.510000,-603.860000,-515.440000,-603.830000,-514.360000C-603.800000,-513.760000,-603.710000,-513.120000,-603.620000,-512.520000C-603.100000,-509.020000,-602.750000,-505.840000,-602.550000,-502.410000C-602.530000,-501.510000,-602.390000,-500.610000,-602.120000,-499.750000C-601.550000,-498.050000,-601.270000,-496.260000,-601.290000,-494.470000C-601.310000,-493.400000,-601.230000,-492.330000,-601.060000,-491.280000C-600.580000,-488.880000,-600.280000,-486.440000,-600.170000,-483.990000C-600.150000,-483.690000,-600.100000,-483.370000,-600.060000,-483.060000L-599.740000,-480.510000L-599.700000,-480.190000L-599.680000,-480.030000L-599.670000,-479.950000L-599.650000,-479.830000C-599.600000,-479.510000,-599.530000,-479.190000,-599.420000,-478.880000C-599.210000,-478.260000,-598.880000,-477.680000,-598.450000,-477.180000C-597.600000,-476.170000,-596.400000,-475.510000,-595.090000,-475.340000C-594.450000,-475.260000,-593.800000,-475.290000,-593.170000,-475.440000L-591.920000,-475.730000C-590.860000,-475.980000,-589.730000,-476.190000,-588.750000,-476.510000C-586.240000,-477.280000,-583.680000,-477.870000,-581.090000,-478.280000C-580.030000,-478.460000,-578.950000,-478.680000,-577.890000,-478.930000C-574.570000,-479.730000,-571.190000,-480.230000,-567.900000,-481.220000C-567.160000,-481.430000,-566.400000,-481.580000,-565.630000,-481.670000C-564.420000,-481.820000,-563.240000,-482.120000,-562.110000,-482.570000C-560.700000,-483.140000,-559.230000,-483.520000,-557.720000,-483.690000C-556.890000,-483.790000,-556.060000,-483.950000,-555.220000,-484.130000L-554.590000,-484.270000C-554.500000,-484.290000,-554.360000,-484.330000,-554.300000,-484.330000C-554.240000,-484.330000,-554.190000,-484.340000,-554.140000,-484.350000C-553.940000,-484.380000,-553.730000,-484.380000,-553.530000,-484.330000C-552.920000,-484.150000,-552.450000,-483.660000,-552.310000,-483.040000C-552.240000,-482.750000,-552.250000,-482.440000,-552.350000,-482.150000C-552.390000,-482.080000,-552.420000,-482.010000,-552.440000,-481.940000L-552.580000,-481.730000C-552.650000,-481.610000,-552.740000,-481.500000,-552.820000,-481.400000L-553.120000,-481.020000C-554.700000,-478.990000,-556.290000,-476.970000,-557.930000,-474.990000C-558.920000,-473.810000,-559.820000,-472.560000,-560.610000,-471.240000C-561,-470.590000,-561.460000,-469.980000,-561.990000,-469.420000C-562.910000,-468.420000,-563.830000,-467.380000,-564.730000,-466.340000C-565.140000,-465.890000,-565.530000,-465.410000,-565.890000,-464.920000C-568.240000,-461.480000,-571.040000,-458.290000,-573.460000,-454.880000C-574.430000,-453.520000,-575.580000,-452.210000,-576.510000,-450.780000L-576.770000,-450.400000L-577.070000,-449.980000C-577.330000,-449.620000,-577.560000,-449.240000,-577.750000,-448.840000C-578.140000,-448.020000,-578.280000,-447.100000,-578.140000,-446.200000C-578,-445.280000,-577.610000,-444.420000,-577.010000,-443.700000C-576.710000,-443.350000,-576.370000,-443.030000,-575.990000,-442.770000L-575.720000,-442.580000L-575.530000,-442.460000L-575.150000,-442.200000C-574.650000,-441.860000,-574.180000,-441.490000,-573.740000,-441.090000C-573.380000,-440.820000,-572.980000,-440.580000,-572.570000,-440.390000C-571.470000,-439.830000,-570.420000,-439.170000,-569.420000,-438.440000C-568.470000,-437.710000,-567.410000,-437.130000,-566.300000,-436.710000C-565.600000,-436.450000,-564.950000,-436.060000,-564.390000,-435.570000C-563.410000,-434.660000,-562.280000,-433.930000,-561.050000,-433.410000C-559.240000,-432.640000,-557.560000,-431.600000,-556.080000,-430.310000C-555.010000,-429.310000,-553.770000,-428.520000,-552.420000,-427.970000C-551.520000,-427.590000,-550.560000,-427.070000,-549.620000,-426.630000C-548.670000,-426.200000,-547.800000,-425.600000,-547.050000,-424.880000C-546.330000,-424.140000,-545.510000,-423.510000,-544.620000,-423C-543.930000,-422.630000,-543.260000,-422.240000,-542.590000,-421.830000C-541.790000,-421.350000,-541.610000,-421.200000,-541.390000,-420.850000C-541.030000,-420.150000,-541.160000,-419.290000,-541.720000,-418.740000C-541.990000,-418.480000,-542.350000,-418.320000,-542.730000,-418.300000C-543.510000,-418.210000,-544.270000,-418.100000,-544.990000,-417.940000C-546.670000,-417.580000,-548.390000,-417.510000,-550.020000,-417.160000C-551.690000,-416.880000,-553.380000,-416.730000,-555.070000,-416.690000C-555.680000,-416.650000,-556.300000,-416.580000,-556.920000,-416.510000L-563.890000,-415.640000C-565.270000,-415.500000,-566.630000,-415.280000,-567.980000,-414.960000C-569.020000,-414.690000,-570.090000,-414.540000,-571.160000,-414.510000C-572.700000,-414.460000,-574.240000,-414.320000,-575.760000,-414.090000C-577.420000,-413.830000,-579.140000,-413.710000,-580.810000,-413.460000L-582.490000,-413.240000C-583.290000,-413.120000,-584.050000,-412.810000,-584.710000,-412.350000C-586.020000,-411.420000,-586.830000,-409.940000,-586.920000,-408.340000C-586.940000,-407.940000,-586.920000,-407.540000,-586.850000,-407.150000C-586.810000,-406.920000,-586.790000,-406.830000,-586.760000,-406.700000L-586.680000,-406.310000L-586.350000,-404.770000C-585.900000,-402.720000,-585.390000,-400.690000,-584.760000,-398.700000C-584.550000,-397.960000,-584.390000,-397.220000,-584.270000,-396.460000C-583.590000,-392.650000,-582.690000,-388.880000,-581.590000,-385.170000C-580.750000,-382.690000,-580.130000,-380.150000,-579.720000,-377.560000C-579.600000,-376.690000,-579.300000,-375.740000,-579.110000,-374.830000C-578.790000,-373.390000,-578.470000,-371.940000,-578.160000,-370.490000L-577.710000,-368.320000C-577.690000,-368.240000,-577.680000,-368.160000,-577.670000,-368.070000L-577.660000,-367.910000C-577.660000,-367.860000,-577.650000,-367.800000,-577.640000,-367.750000L-577.660000,-367.600000L-577.670000,-367.450000L-577.710000,-367.310000C-577.730000,-367.220000,-577.760000,-367.130000,-577.810000,-367.050000C-578.080000,-366.540000,-578.490000,-366.120000,-578.980000,-365.840000C-579.480000,-365.540000,-580.060000,-365.400000,-580.640000,-365.410000C-581.170000,-365.460000,-581.580000,-365.370000,-581.440000,-364.930000C-581.180000,-364.160000,-580.640000,-363.520000,-579.920000,-363.120000C-579.300000,-362.790000,-578.580000,-362.710000,-577.900000,-362.900000C-576.940000,-363.130000,-576.070000,-363.660000,-575.440000,-364.420000C-575,-364.960000,-574.680000,-365.600000,-574.520000,-366.280000C-574.350000,-367.010000,-574.330000,-367.760000,-574.490000,-368.500000C-574.540000,-368.780000,-574.610000,-369.060000,-574.700000,-369.330000L-574.900000,-370.060000C-575.170000,-371.030000,-575.430000,-372,-575.670000,-372.980000C-576.180000,-375.070000,-576.480000,-377.230000,-577.180000,-379.270000C-577.650000,-381.700000,-578.150000,-384.140000,-578.600000,-386.570000C-578.870000,-388.700000,-579.340000,-390.810000,-579.980000,-392.860000C-580.120000,-393.300000,-580.220000,-393.750000,-580.270000,-394.210000C-580.460000,-395.580000,-580.760000,-396.940000,-581.180000,-398.260000C-581.400000,-399,-581.570000,-399.750000,-581.690000,-400.510000C-581.910000,-401.810000,-582.170000,-403.100000,-582.460000,-404.390000L-582.900000,-406.320000L-583.120000,-407.290000L-583.230000,-407.770000C-583.230000,-407.850000,-583.270000,-407.920000,-583.260000,-408C-583.320000,-408.600000,-583.060000,-409.190000,-582.570000,-409.550000C-582.450000,-409.640000,-582.310000,-409.710000,-582.170000,-409.760000C-582.100000,-409.790000,-582.020000,-409.810000,-581.950000,-409.820000C-581.900000,-409.830000,-581.890000,-409.840000,-581.810000,-409.840000L-581.580000,-409.870000C-580.960000,-409.940000,-580.340000,-410,-579.720000,-410.040000C-579.110000,-410.100000,-578.500000,-410.200000,-577.910000,-410.340000C-574.710000,-410.950000,-571.480000,-411.360000,-568.230000,-411.580000C-561.920000,-412.050000,-555.640000,-412.920000,-549.440000,-414.180000C-548.700000,-414.350000,-547.940000,-414.430000,-547.190000,-414.420000C-545.770000,-414.350000,-544.340000,-414.390000,-542.920000,-414.530000L-542.380000,-414.580000L-542.240000,-414.600000L-542.040000,-414.640000L-541.630000,-414.720000C-541.080000,-414.850000,-540.550000,-415.070000,-540.070000,-415.380000C-539.110000,-416,-538.380000,-416.930000,-538.020000,-418.020000C-537.420000,-419.800000,-537.780000,-421.770000,-538.980000,-423.230000C-539.140000,-423.400000,-539.290000,-423.560000,-539.450000,-423.720000C-539.610000,-423.880000,-539.800000,-424,-539.970000,-424.140000C-540.050000,-424.200000,-540.170000,-424.290000,-540.220000,-424.320000L-540.410000,-424.450000L-540.790000,-424.710000C-541.300000,-425.060000,-541.800000,-425.410000,-542.300000,-425.780000C-543.280000,-426.520000,-544.340000,-427.160000,-545.450000,-427.680000C-547.780000,-428.710000,-549.910000,-430.120000,-551.760000,-431.870000C-552.310000,-432.380000,-552.950000,-432.790000,-553.650000,-433.080000C-555.880000,-434,-557.970000,-435.240000,-559.830000,-436.770000C-560.420000,-437.240000,-561.050000,-437.650000,-561.720000,-438C-562.950000,-438.610000,-564.130000,-439.330000,-565.220000,-440.160000C-567.620000,-441.870000,-570.110000,-443.460000,-572.670000,-444.910000L-574.080000,-445.710000C-574.340000,-445.880000,-574.560000,-446.120000,-574.700000,-446.400000C-574.850000,-446.700000,-574.920000,-447.040000,-574.900000,-447.370000C-574.890000,-447.540000,-574.860000,-447.720000,-574.800000,-447.880000C-574.770000,-447.960000,-574.740000,-448.050000,-574.700000,-448.130000C-574.650000,-448.230000,-574.590000,-448.320000,-574.530000,-448.410000C-574.110000,-449.040000,-573.610000,-449.610000,-573.060000,-450.130000C-571.840000,-451.250000,-570.730000,-452.490000,-569.740000,-453.820000C-568.340000,-455.670000,-566.750000,-457.390000,-565.520000,-459.370000C-565.170000,-459.870000,-564.770000,-460.330000,-564.340000,-460.760000C-562.880000,-462.320000,-561.600000,-464.040000,-560.540000,-465.900000C-560.020000,-466.810000,-559.390000,-467.660000,-558.670000,-468.420000C-557.950000,-469.190000,-557.220000,-469.940000,-556.520000,-470.740000C-556,-471.290000,-555.530000,-471.890000,-555.120000,-472.530000C-554.140000,-474.250000,-552.940000,-475.830000,-551.560000,-477.250000C-551.080000,-477.760000,-550.630000,-478.280000,-550.190000,-478.820000L-549.870000,-479.230000L-549.710000,-479.440000C-549.650000,-479.520000,-549.570000,-479.650000,-549.500000,-479.750000C-549.200000,-480.190000,-548.970000,-480.680000,-548.830000,-481.200000C-548.040000,-484.130000,-549.780000,-487.150000,-552.710000,-487.940000C-552.890000,-487.990000,-553.060000,-488.030000,-553.240000,-488.050000C-553.620000,-488.110000,-554.010000,-488.120000,-554.390000,-488.100000C-554.730000,-488.070000,-555.060000,-488.020000,-555.390000,-487.950000C-555.880000,-487.850000,-556.380000,-487.740000,-556.870000,-487.620000C-557.850000,-487.380000,-558.830000,-487.110000,-559.770000,-486.800000C-560.630000,-486.510000,-561.530000,-486.310000,-562.440000,-486.220000C-563.050000,-486.150000,-563.650000,-486.050000,-564.240000,-485.920000L-581.560000,-481.950000C-582.290000,-481.800000,-583.010000,-481.590000,-583.710000,-481.310000C-584.890000,-480.730000,-586.170000,-480.400000,-587.480000,-480.330000C-588.690000,-480.230000,-589.900000,-480.040000,-591.080000,-479.760000C-591.680000,-479.620000,-592.280000,-479.470000,-592.890000,-479.320000L-593.790000,-479.090000L-594.020000,-479.030000L-594.130000,-479.010000C-594.200000,-478.990000,-594.280000,-478.980000,-594.350000,-478.980000C-595.010000,-478.930000,-595.630000,-479.270000,-595.960000,-479.840000C-596.040000,-479.980000,-596.100000,-480.140000,-596.120000,-480.300000L-596.140000,-480.430000L-596.170000,-480.670000L-596.220000,-481.160000C-596.280000,-481.810000,-596.320000,-482.460000,-596.330000,-483.120000C-596.380000,-484.350000,-596.560000,-485.570000,-596.880000,-486.760000C-597.170000,-487.950000,-597.320000,-489.160000,-597.320000,-490.380000C-597.310000,-491.750000,-597.480000,-493.110000,-597.850000,-494.430000C-598.090000,-495.310000,-598.220000,-496.220000,-598.240000,-497.140000C-598.280000,-498.200000,-598.310000,-499.250000,-598.370000,-500.320000C-598.390000,-500.930000,-598.460000,-501.540000,-598.570000,-502.140000C-599.020000,-504.200000,-599.290000,-506.400000,-599.720000,-508.440000C-600.020000,-509.770000,-600.190000,-511.130000,-600.220000,-512.500000C-600.270000,-514.650000,-600.490000,-516.790000,-600.870000,-518.900000L-601.040000,-519.930000C-601.050000,-520,-601.080000,-520.140000,-601.110000,-520.260000L-601.200000,-520.630000C-601.260000,-520.880000,-601.350000,-521.120000,-601.450000,-521.360000C-601.860000,-522.320000,-602.560000,-523.120000,-603.450000,-523.670000C-604.320000,-524.200000,-605.320000,-524.460000,-606.330000,-524.430000C-607.360000,-524.400000,-608.350000,-524.060000,-609.180000,-523.450000C-609.390000,-523.300000,-609.580000,-523.130000,-609.750000,-522.950000C-609.930000,-522.780000,-610.090000,-522.590000,-610.240000,-522.380000L-610.460000,-522.080000L-610.610000,-521.860000L-610.890000,-521.420000L-612.040000,-519.660000C-612.810000,-518.500000,-613.610000,-517.350000,-614.420000,-516.210000C-614.860000,-515.590000,-615.290000,-514.930000,-615.710000,-514.280000C-617.120000,-512.050000,-618.600000,-509.870000,-619.930000,-507.570000C-620.780000,-506.110000,-621.710000,-504.610000,-622.670000,-503.230000C-623.740000,-501.740000,-624.680000,-500.150000,-625.470000,-498.490000C-626,-497.380000,-626.640000,-496.340000,-627.390000,-495.370000C-628.150000,-494.410000,-628.840000,-493.400000,-629.470000,-492.340000C-630.170000,-491.110000,-630.890000,-489.920000,-631.650000,-488.770000L-631.790000,-488.550000C-631.830000,-488.490000,-631.870000,-488.430000,-631.910000,-488.370000C-631.960000,-488.300000,-632.010000,-488.240000,-632.070000,-488.190000C-632.180000,-488.080000,-632.320000,-487.990000,-632.460000,-487.930000C-632.740000,-487.800000,-633.050000,-487.780000,-633.350000,-487.850000C-633.580000,-487.910000,-633.860000,-488.030000,-634.050000,-488.050000L-634.210000,-488.080000C-634.300000,-488.130000,-634.410000,-488.190000,-634.510000,-488.240000C-634.710000,-488.350000,-634.920000,-488.470000,-635.120000,-488.600000C-635.530000,-488.850000,-635.930000,-489.120000,-636.340000,-489.400000C-637.150000,-489.960000,-637.950000,-490.570000,-638.770000,-491.120000C-639.780000,-491.790000,-640.710000,-492.560000,-641.550000,-493.430000C-643.280000,-495.170000,-645.210000,-496.690000,-647.290000,-497.980000C-647.800000,-498.300000,-648.310000,-498.580000,-648.800000,-498.930000C-649.160000,-499.170000,-649.490000,-499.450000,-649.770000,-499.780000C-650.460000,-500.850000,-651.420000,-501.710000,-652.560000,-502.280000C-653.070000,-502.580000,-653.510000,-502.970000,-653.880000,-503.430000C-654.470000,-504.110000,-655.180000,-504.690000,-655.960000,-505.140000C-657.270000,-505.950000,-658.520000,-506.850000,-659.710000,-507.820000C-660.970000,-508.790000,-662.020000,-509.870000,-663.200000,-510.820000C-663.790000,-511.290000,-664.420000,-511.720000,-665.060000,-512.150000C-665.400000,-512.370000,-665.610000,-512.540000,-666.190000,-512.870000C-666.440000,-513.020000,-666.710000,-513.140000,-666.980000,-513.240000C-667.250000,-513.350000,-667.540000,-513.430000,-667.830000,-513.480000C-668.170000,-513.550000,-668.520000,-513.600000,-668.860000,-513.640000C-669.220000,-513.660000,-669.580000,-513.640000,-669.930000,-513.590000C-670.630000,-513.470000,-671.300000,-513.210000,-671.890000,-512.830000C-672.480000,-512.440000,-672.990000,-511.940000,-673.400000,-511.360000C-674.210000,-510.170000,-674.460000,-508.700000,-674.100000,-507.310000C-674.080000,-507.200000,-674.040000,-507.090000,-674.010000,-506.980000L-673.920000,-506.690000L-673.750000,-506.110000L-673.420000,-504.940000C-673.210000,-504.160000,-673.020000,-503.370000,-672.840000,-502.580000C-672.480000,-501,-672.180000,-499.400000,-671.920000,-497.780000C-671.680000,-496.280000,-671.350000,-494.740000,-671.090000,-493.230000C-670.710000,-491.060000,-670.040000,-489.010000,-669.560000,-486.880000C-668.820000,-483.530000,-668.070000,-480.190000,-667.330000,-476.840000C-667.110000,-475.660000,-666.760000,-474.500000,-666.300000,-473.390000C-665.930000,-472.570000,-665.690000,-471.700000,-665.570000,-470.810000C-665.500000,-470.290000,-665.410000,-469.760000,-665.330000,-469.230000L-665.190000,-468.440000C-665.170000,-468.350000,-665.160000,-468.260000,-665.160000,-468.170000C-665.160000,-468.100000,-665.160000,-468.040000,-665.160000,-467.970000C-665.220000,-467.450000,-665.470000,-466.980000,-665.870000,-466.630000C-666.040000,-466.460000,-666.260000,-466.330000,-666.500000,-466.270000C-666.560000,-466.260000,-666.620000,-466.250000,-666.680000,-466.230000L-667.050000,-466.180000L-667.800000,-466.100000C-668.800000,-466,-669.790000,-465.930000,-670.780000,-465.860000C-671.700000,-465.820000,-672.610000,-465.680000,-673.500000,-465.450000C-674.510000,-465.150000,-675.560000,-465,-676.620000,-464.990000C-678.010000,-464.940000,-679.390000,-464.770000,-680.760000,-464.500000C-681.500000,-464.320000,-682.250000,-464.200000,-683.010000,-464.130000C-685.010000,-464.150000,-687,-463.480000,-688.970000,-463.510000C-689.430000,-463.500000,-689.880000,-463.430000,-690.330000,-463.320000C-691.800000,-462.940000,-693.320000,-462.760000,-694.840000,-462.780000C-695.300000,-462.770000,-695.760000,-462.730000,-696.220000,-462.670000L-704.110000,-461.710000L-705.620000,-461.520000L-706,-461.470000L-706.190000,-461.450000C-706.250000,-461.440000,-706.310000,-461.440000,-706.410000,-461.420000C-706.790000,-461.360000,-707.160000,-461.270000,-707.520000,-461.140000C-709.020000,-460.590000,-710.210000,-459.430000,-710.800000,-457.940000C-711.170000,-457.050000,-711.250000,-456.070000,-711.030000,-455.130000C-710.730000,-453.990000,-710.100000,-452.960000,-709.210000,-452.180000C-708.990000,-452,-708.760000,-451.840000,-708.530000,-451.670000L-708.030000,-451.350000L-707.050000,-450.720000C-705.090000,-449.470000,-703.070000,-448.240000,-701.060000,-447.120000C-699.680000,-446.350000,-698.390000,-445.560000,-697.120000,-444.670000C-695.420000,-443.360000,-693.590000,-442.230000,-691.660000,-441.290000C-691.110000,-441.010000,-690.590000,-440.680000,-690.090000,-440.320000C-686.050000,-437.690000,-681.980000,-435.080000,-677.990000,-432.400000C-677.260000,-431.910000,-676.550000,-431.450000,-675.830000,-431.010000C-675.470000,-430.790000,-675.110000,-430.580000,-674.750000,-430.380000C-674.570000,-430.290000,-674.400000,-430.180000,-674.240000,-430.050000C-673.970000,-429.820000,-673.800000,-429.500000,-673.760000,-429.150000C-673.720000,-428.790000,-673.820000,-428.430000,-674.040000,-428.140000L-674.640000,-427.440000C-674.890000,-427.150000,-675.130000,-426.850000,-675.370000,-426.540000C-675.850000,-425.930000,-676.310000,-425.310000,-676.750000,-424.660000C-677.080000,-424.150000,-677.460000,-423.660000,-677.870000,-423.210000C-678.600000,-422.430000,-679.230000,-421.570000,-679.770000,-420.650000C-680.160000,-420.020000,-680.580000,-419.380000,-680.950000,-418.760000C-681.340000,-418.110000,-681.810000,-417.500000,-682.340000,-416.960000C-682.750000,-416.540000,-683.170000,-416.100000,-683.580000,-415.710000C-685.240000,-414.140000,-686.730000,-412.400000,-688.010000,-410.510000C-688.520000,-409.740000,-689.090000,-409,-689.710000,-408.310000C-690.960000,-406.950000,-692.110000,-405.500000,-693.150000,-403.970000C-694.850000,-401.590000,-696.540000,-399.220000,-698.490000,-396.990000C-698.620000,-396.840000,-698.720000,-396.720000,-698.860000,-396.530000C-699.020000,-396.290000,-699.180000,-396.040000,-699.330000,-395.780000C-699.460000,-395.510000,-699.570000,-395.220000,-699.670000,-394.940000C-699.750000,-394.650000,-699.820000,-394.350000,-699.860000,-394.050000C-700.130000,-392.030000,-699.190000,-390.040000,-697.450000,-388.980000C-696.630000,-388.470000,-695.670000,-388.220000,-694.710000,-388.250000C-694.480000,-388.250000,-694.250000,-388.270000,-694.020000,-388.320000L-693.680000,-388.390000C-693.580000,-388.410000,-693.490000,-388.430000,-693.390000,-388.460000L-692.450000,-388.740000C-691.720000,-388.970000,-690.980000,-389.150000,-690.220000,-389.280000C-687.160000,-389.730000,-684.120000,-390.350000,-681.130000,-391.140000C-679.620000,-391.500000,-678.050000,-391.850000,-676.650000,-392.300000C-675.220000,-392.800000,-673.740000,-393.130000,-672.230000,-393.260000C-671.670000,-393.300000,-671.070000,-393.370000,-670.470000,-393.460000C-667.130000,-393.940000,-663.840000,-395.100000,-660.470000,-395.580000C-659.560000,-395.740000,-658.670000,-395.980000,-657.810000,-396.300000C-657.160000,-396.530000,-656.510000,-396.730000,-655.840000,-396.900000C-655.510000,-396.990000,-655.170000,-397.070000,-654.830000,-397.140000L-654.570000,-397.190000L-654.420000,-397.210000C-654.330000,-397.220000,-654.240000,-397.220000,-654.140000,-397.210000C-653.580000,-397.150000,-653.050000,-396.910000,-652.650000,-396.510000C-652.510000,-396.360000,-652.410000,-396.180000,-652.350000,-395.990000C-652.320000,-395.890000,-652.300000,-395.790000,-652.290000,-395.680000C-652.280000,-395.650000,-652.270000,-395.520000,-652.260000,-395.430000L-652.230000,-395.140000C-652.160000,-394.380000,-652.180000,-393.610000,-652.080000,-392.870000C-651.820000,-390.990000,-651.680000,-389.150000,-651.610000,-387.330000C-651.580000,-386.410000,-651.470000,-385.500000,-651.260000,-384.600000C-650.550000,-381.610000,-650.100000,-378.560000,-649.920000,-375.490000C-649.790000,-373.170000,-649.500000,-370.860000,-649.040000,-368.580000C-648.570000,-366.310000,-648.280000,-364,-648.190000,-361.680000C-648.140000,-360.490000,-648.030000,-359.350000,-647.880000,-358.230000C-647.800000,-357.670000,-647.720000,-357.110000,-647.630000,-356.540000L-647.560000,-356.120000L-647.540000,-356.010000L-647.510000,-355.860000L-647.440000,-355.550000C-647.340000,-355.130000,-647.180000,-354.720000,-646.980000,-354.340000C-646.480000,-353.430000,-645.720000,-352.690000,-644.800000,-352.220000C-643.900000,-351.760000,-642.880000,-351.570000,-641.870000,-351.660000C-640.850000,-351.760000,-639.870000,-352.160000,-639.080000,-352.810000C-638.890000,-352.980000,-638.700000,-353.150000,-638.530000,-353.330000L-638.070000,-353.910000L-637.450000,-354.760000C-635.970000,-356.720000,-634.650000,-358.810000,-633.510000,-360.980000C-632.770000,-362.500000,-631.880000,-363.950000,-630.830000,-365.280000C-629.660000,-366.670000,-628.670000,-368.200000,-627.880000,-369.840000C-627.610000,-370.390000,-627.280000,-370.920000,-626.900000,-371.410000C-624.850000,-373.930000,-623.090000,-376.650000,-621.580000,-379.520000Z" fill="rgb(0,0,0)" stroke="none" stroke-width="1"/></g><script><![CDATA[!function(t,n){"object"==typeof exports&&"undefined"!=typeof module?module.exports=n():"function"==typeof define&&define.amd?define(n):(t="undefined"!=typeof globalThis?globalThis:t||self).__SVGATOR_PLAYER__=n()}(this,(function(){"use strict";function t(n){return(t="function"==typeof Symbol&&"symbol"==typeof Symbol.iterator?function(t){return typeof t}:function(t){return t&&"function"==typeof Symbol&&t.constructor===Symbol&&t!==Symbol.prototype?"symbol":typeof t})(n)}function n(t,n){if(!(t instanceof n))throw new TypeError("Cannot call a class as a function")}function r(t,n){for(var r=0;r<n.length;r++){var e=n[r];e.enumerable=e.enumerable||!1,e.configurable=!0,"value"in e&&(e.writable=!0),Object.defineProperty(t,e.key,e)}}function e(t,n,e){return n&&r(t.prototype,n),e&&r(t,e),t}function i(t){return(i=Object.setPrototypeOf?Object.getPrototypeOf:function(t){return t.__proto__||Object.getPrototypeOf(t)})(t)}function o(t,n){return(o=Object.setPrototypeOf||function(t,n){return t.__proto__=n,t})(t,n)}function u(t,n){return!n||"object"!=typeof n&&"function"!=typeof n?function(t){if(void 0===t)throw new ReferenceError("this hasn't been initialised - super() hasn't been called");return t}(t):n}function a(t){var n=function(){if("undefined"==typeof Reflect||!Reflect.construct)return!1;if(Reflect.construct.sham)return!1;if("function"==typeof Proxy)return!0;try{return Boolean.prototype.valueOf.call(Reflect.construct(Boolean,[],(function(){}))),!0}catch(t){return!1}}();return function(){var r,e=i(t);if(n){var o=i(this).constructor;r=Reflect.construct(e,arguments,o)}else r=e.apply(this,arguments);return u(this,r)}}function l(t,n,r){return(l="undefined"!=typeof Reflect&&Reflect.get?Reflect.get:function(t,n,r){var e=function(t,n){for(;!Object.prototype.hasOwnProperty.call(t,n)&&null!==(t=i(t)););return t}(t,n);if(e){var o=Object.getOwnPropertyDescriptor(e,n);return o.get?o.get.call(r):o.value}})(t,n,r||t)}var f=Math.abs;function s(t){return t}function c(t,n,r){var e=1-r;return 3*r*e*(t*e+n*r)+r*r*r}function h(){var t=arguments.length>0&&void 0!==arguments[0]?arguments[0]:0,n=arguments.length>1&&void 0!==arguments[1]?arguments[1]:0,r=arguments.length>2&&void 0!==arguments[2]?arguments[2]:1,e=arguments.length>3&&void 0!==arguments[3]?arguments[3]:1;return t<0||t>1||r<0||r>1?null:f(t-n)<=1e-5&&f(r-e)<=1e-5?s:function(i){if(i<=0)return t>0?i*n/t:0===n&&r>0?i*e/r:0;if(i>=1)return r<1?1+(i-1)*(e-1)/(r-1):1===r&&t<1?1+(i-1)*(n-1)/(t-1):1;for(var o,u=0,a=1;u<a;){var l=c(t,r,o=(u+a)/2);if(f(i-l)<1e-5)break;l<i?u=o:a=o}return c(n,e,o)}}function v(){return 1}function y(t){return 1===t?1:0}function d(){var t=arguments.length>0&&void 0!==arguments[0]?arguments[0]:1,n=arguments.length>1&&void 0!==arguments[1]?arguments[1]:0;if(1===t){if(0===n)return y;if(1===n)return v}var r=1/t;return function(t){return t>=1?1:(t+=n*r)-t%r}}function g(t){var n=arguments.length>1&&void 0!==arguments[1]?arguments[1]:2;if(Number.isInteger(t))return t;var r=Math.pow(10,n);return Math.round(t*r)/r}var p=Math.PI/180;function m(t,n,r){return t>=.5?r:n}function b(t,n,r){return 0===t||n===r?n:t*(r-n)+n}function w(t,n,r){var e=b(t,n,r);return e<=0?0:e}function x(t,n,r){return 0===t?n:1===t?r:{x:b(t,n.x,r.x),y:b(t,n.y,r.y)}}function k(t,n,r){var e=function(t,n,r){return Math.round(b(t,n,r))}(t,n,r);return e<=0?0:e>=255?255:e}function A(t,n,r){return 0===t?n:1===t?r:{r:k(t,n.r,r.r),g:k(t,n.g,r.g),b:k(t,n.b,r.b),a:b(t,null==n.a?1:n.a,null==r.a?1:r.a)}}function _(t,n,r){if(0===t)return n;if(1===t)return r;var e=n.length;if(e!==r.length)return m(t,n,r);for(var i=[],o=0;o<e;o++)i.push(A(t,n[o],r[o]));return i}function S(t,n){for(var r=[],e=0;e<t;e++)r.push(n);return r}function O(t,n){if(--n<=0)return t;var r=(t=Object.assign([],t)).length;do{for(var e=0;e<r;e++)t.push(t[e])}while(--n>0);return t}var M,j=function(){function t(r){n(this,t),this.list=r,this.length=r.length}return e(t,[{key:"setAttribute",value:function(t,n){for(var r=this.list,e=0;e<this.length;e++)r[e].setAttribute(t,n)}},{key:"removeAttribute",value:function(t){for(var n=this.list,r=0;r<this.length;r++)n[r].removeAttribute(t)}},{key:"style",value:function(t,n){for(var r=this.list,e=0;e<this.length;e++)r[e].style[t]=n}}]),t}(),F=/-./g,P=function(t,n){return n.toUpperCase()};function B(t){return"function"==typeof t?t:m}function I(t){return t?"function"==typeof t?t:Array.isArray(t)?function(t){var n=arguments.length>1&&void 0!==arguments[1]?arguments[1]:s;if(!Array.isArray(t))return n;switch(t.length){case 1:return d(t[0])||n;case 2:return d(t[0],t[1])||n;case 4:return h(t[0],t[1],t[2],t[3])||n}return n}(t,null):function(t,n){var r=arguments.length>2&&void 0!==arguments[2]?arguments[2]:s;switch(t){case"linear":return s;case"steps":return d(n.steps||1,n.jump||0)||r;case"bezier":case"cubic-bezier":return h(n.x1||0,n.y1||0,n.x2||0,n.y2||0)||r}return r}(t.type,t.value,null):null}function R(t,n,r){var e=arguments.length>3&&void 0!==arguments[3]&&arguments[3],i=n.length-1;if(t<=n[0].t)return e?[0,0,n[0].v]:n[0].v;if(t>=n[i].t)return e?[i,1,n[i].v]:n[i].v;var o,u=n[0],a=null;for(o=1;o<=i;o++){if(!(t>n[o].t)){a=n[o];break}u=n[o]}return null==a?e?[i,1,n[i].v]:n[i].v:u.t===a.t?e?[o,1,a.v]:a.v:(t=(t-u.t)/(a.t-u.t),u.e&&(t=u.e(t)),e?[o,t,r(t,u.v,a.v)]:r(t,u.v,a.v))}function q(t,n){var r=arguments.length>2&&void 0!==arguments[2]?arguments[2]:null;return t&&t.length?"function"!=typeof n?null:("function"!=typeof r&&(r=null),function(e){var i=R(e,t,n);return null!=i&&r&&(i=r(i)),i}):null}function E(t,n){return t.t-n.t}function T(n,r,e,i,o){var u,a="@"===e[0],l="#"===e[0],f=M[e],s=m;switch(a?(u=e.substr(1),e=u.replace(F,P)):l&&(e=e.substr(1)),t(f)){case"function":if(s=f(i,o,R,I,e,a,r,n),l)return s;break;case"string":s=q(i,B(f));break;case"object":if((s=q(i,B(f.i),f.f))&&"function"==typeof f.u)return f.u(r,s,e,a,n)}return s?function(t,n,r){var e=arguments.length>3&&void 0!==arguments[3]&&arguments[3];if(e)return t instanceof j?function(e){return t.style(n,r(e))}:function(e){return t.style[n]=r(e)};if(Array.isArray(n)){var i=n.length;return function(e){var o=r(e);if(null==o)for(var u=0;u<i;u++)t[u].removeAttribute(n);else for(var a=0;a<i;a++)t[a].setAttribute(n,o)}}return function(e){var i=r(e);null==i?t.removeAttribute(n):t.setAttribute(n,i)}}(r,e,s,a):null}function N(n,r,e,i){if(!i||"object"!==t(i))return null;var o=null,u=null;return Array.isArray(i)?u=function(t){if(!t||!t.length)return null;for(var n=0;n<t.length;n++)t[n].e&&(t[n].e=I(t[n].e));return t.sort(E)}(i):(u=i.keys,o=i.data||null),u?T(n,r,e,u,o):null}function C(t,n,r){if(!r)return null;var e=[];for(var i in r)if(r.hasOwnProperty(i)){var o=N(t,n,i,r[i]);o&&e.push(o)}return e.length?e:null}function z(t,n){if(!n.duration||n.duration<0)return null;var r=function(t,n){if(!n)return null;var r=[];if(Array.isArray(n))for(var e=n.length,i=0;i<e;i++){var o=n[i];if(2===o.length){var u=null;if("string"==typeof o[0])u=t.getElementById(o[0]);else if(Array.isArray(o[0])){u=[];for(var a=0;a<o[0].length;a++)if("string"==typeof o[0][a]){var l=t.getElementById(o[0][a]);l&&u.push(l)}u=u.length?1===u.length?u[0]:new j(u):null}if(u){var f=C(t,u,o[1]);f&&(r=r.concat(f))}}}else for(var s in n)if(n.hasOwnProperty(s)){var c=t.getElementById(s);if(c){var h=C(t,c,n[s]);h&&(r=r.concat(h))}}return r.length?r:null}(t,n.elements);return r?function(t,n){var r=arguments.length>2&&void 0!==arguments[2]?arguments[2]:1/0,e=arguments.length>3&&void 0!==arguments[3]?arguments[3]:1,i=arguments.length>4&&void 0!==arguments[4]&&arguments[4],o=arguments.length>5&&void 0!==arguments[5]?arguments[5]:1,u=t.length,a=e>0?n:0;i&&r%2==0&&(a=n-a);var l=null;return function(f,s){var c=f%n,h=1+(f-c)/n;s*=e,i&&h%2==0&&(s=-s);var v=!1;if(h>r)c=a,v=!0,-1===o&&(c=e>0?0:n);else if(s<0&&(c=n-c),c===l)return!1;l=c;for(var y=0;y<u;y++)t[y](c);return v}}(r,n.duration,n.iterations||1/0,n.direction||1,!!n.alternate,n.fill||1):null}var L=function(){function t(r,e){var i=arguments.length>2&&void 0!==arguments[2]?arguments[2]:{};n(this,t),this._id=0,this._running=!1,this._rollingBack=!1,this._animations=r,this.duration=e.duration,this.alternate=e.alternate,this.fill=e.fill,this.iterations=e.iterations,this.direction=i.direction||1,this.speed=i.speed||1,this.fps=i.fps||100,this.offset=i.offset||0,this.rollbackStartOffset=0}return e(t,[{key:"_rollback",value:function(){var t=this,n=1/0,r=null;this.rollbackStartOffset=this.offset,this._rollingBack||(this._rollingBack=!0,this._running=!0);this._id=window.requestAnimationFrame((function e(i){if(t._rollingBack){null==r&&(r=i);var o=i-r,u=t.rollbackStartOffset-o,a=Math.round(u*t.speed);if(a>t.duration&&n!=1/0){var l=!!t.alternate&&a/t.duration%2>1,f=a%t.duration;a=(f+=l?t.duration:0)||t.duration}var s=t.fps?1e3/t.fps:0,c=Math.max(0,a);if(c<n-s){t.offset=c,n=c;for(var h=t._animations,v=h.length,y=0;y<v;y++)h[y](c,t.direction)}var d=!1;if(t.iterations>0&&-1===t.fill){var g=t.iterations*t.duration,p=g==a;a=p?0:a,t.offset=p?0:t.offset,d=a>g}a>0&&t.offset>=a&&!d?t._id=window.requestAnimationFrame(e):t.stop()}}))}},{key:"_start",value:function(){var t=this,n=arguments.length>0&&void 0!==arguments[0]?arguments[0]:0,r=-1/0,e=null,i={},o=function o(u){t._running=!0,null==e&&(e=u);var a=Math.round((u-e+n)*t.speed),l=t.fps?1e3/t.fps:0;if(a>r+l&&!t._rollingBack){t.offset=a,r=a;for(var f=t._animations,s=f.length,c=0,h=0;h<s;h++)i[h]?c++:(i[h]=f[h](a,t.direction),i[h]&&c++);if(c===s)return void t._stop()}t._id=window.requestAnimationFrame(o)};this._id=window.requestAnimationFrame(o)}},{key:"_stop",value:function(){this._id&&window.cancelAnimationFrame(this._id),this._running=!1,this._rollingBack=!1}},{key:"play",value:function(){!this._rollingBack&&this._running||(this._rollingBack=!1,this.rollbackStartOffset>this.duration&&(this.offset=this.rollbackStartOffset-(this.rollbackStartOffset-this.offset)%this.duration,this.rollbackStartOffset=0),this._start(this.offset))}},{key:"stop",value:function(){this._stop(),this.offset=0,this.rollbackStartOffset=0;var t=this.direction,n=this._animations;window.requestAnimationFrame((function(){for(var r=0;r<n.length;r++)n[r](0,t)}))}},{key:"reachedToEnd",value:function(){return this.iterations>0&&this.offset>=this.iterations*this.duration}},{key:"restart",value:function(){this._stop(),this.offset=0,this._start()}},{key:"pause",value:function(){this._stop()}},{key:"reverse",value:function(){this.direction=-this.direction}}],[{key:"build",value:function(n,r){return(n=function(t,n){if(M=n,!t||!t.root||!Array.isArray(t.animations))return null;for(var r=document.getElementsByTagName("svg"),e=!1,i=0;i<r.length;i++)if(r[i].id===t.root&&!r[i].svgatorAnimation){(e=r[i]).svgatorAnimation=!0;break}if(!e)return null;var o=t.animations.map((function(t){return z(e,t)})).filter((function(t){return!!t}));return o.length?{element:e,animations:o,animationSettings:t.animationSettings,options:t.options||void 0}:null}(n,r))?{el:n.element,options:n.options||{},player:new t(n.animations,n.animationSettings,n.options)}:null}}]),t}();!function(){for(var t=0,n=["ms","moz","webkit","o"],r=0;r<n.length&&!window.requestAnimationFrame;++r)window.requestAnimationFrame=window[n[r]+"RequestAnimationFrame"],window.cancelAnimationFrame=window[n[r]+"CancelAnimationFrame"]||window[n[r]+"CancelRequestAnimationFrame"];window.requestAnimationFrame||(window.requestAnimationFrame=function(n){var r=Date.now(),e=Math.max(0,16-(r-t)),i=window.setTimeout((function(){n(r+e)}),e);return t=r+e,i},window.cancelAnimationFrame=window.clearTimeout)}();var D=/\.0+$/g;function Q(t){return Number.isInteger(t)?t+"":t.toFixed(6).replace(D,"")}function U(t){var n=arguments.length>1&&void 0!==arguments[1]?arguments[1]:" ";return t&&t.length?t.map(Q).join(n):""}function V(t){return t?null==t.a||t.a>=1?"rgb("+t.r+","+t.g+","+t.b+")":"rgba("+t.r+","+t.g+","+t.b+","+t.a+")":"transparent"}var $={f:null,i:function(t,n,r){return 0===t?n:1===t?r:{x:w(t,n.x,r.x),y:w(t,n.y,r.y)}},u:function(t,n){return function(r){var e=n(r);t.setAttribute("rx",Q(e.x)),t.setAttribute("ry",Q(e.y))}}},G={f:null,i:function(t,n,r){return 0===t?n:1===t?r:{width:w(t,n.width,r.width),height:w(t,n.height,r.height)}},u:function(t,n){return function(r){var e=n(r);t.setAttribute("width",Q(e.width)),t.setAttribute("height",Q(e.height))}}},H=Math.sin,Y=Math.cos,Z=Math.acos,J=Math.asin,K=Math.tan,W=Math.atan2,X=Math.PI/180,tt=180/Math.PI,nt=Math.sqrt,rt=function(){function t(){var r=arguments.length>0&&void 0!==arguments[0]?arguments[0]:1,e=arguments.length>1&&void 0!==arguments[1]?arguments[1]:0,i=arguments.length>2&&void 0!==arguments[2]?arguments[2]:0,o=arguments.length>3&&void 0!==arguments[3]?arguments[3]:1,u=arguments.length>4&&void 0!==arguments[4]?arguments[4]:0,a=arguments.length>5&&void 0!==arguments[5]?arguments[5]:0;n(this,t),this.m=[r,e,i,o,u,a],this.i=null,this.w=null,this.s=null}return e(t,[{key:"determinant",get:function(){var t=this.m;return t[0]*t[3]-t[1]*t[2]}},{key:"isIdentity",get:function(){if(null===this.i){var t=this.m;this.i=1===t[0]&&0===t[1]&&0===t[2]&&1===t[3]&&0===t[4]&&0===t[5]}return this.i}},{key:"point",value:function(t,n){var r=this.m;return{x:r[0]*t+r[2]*n+r[4],y:r[1]*t+r[3]*n+r[5]}}},{key:"translateSelf",value:function(){var t=arguments.length>0&&void 0!==arguments[0]?arguments[0]:0,n=arguments.length>1&&void 0!==arguments[1]?arguments[1]:0;if(!t&&!n)return this;var r=this.m;return r[4]+=r[0]*t+r[2]*n,r[5]+=r[1]*t+r[3]*n,this.w=this.s=this.i=null,this}},{key:"rotateSelf",value:function(){var t=arguments.length>0&&void 0!==arguments[0]?arguments[0]:0;if(t%=360){var n=H(t*=X),r=Y(t),e=this.m,i=e[0],o=e[1];e[0]=i*r+e[2]*n,e[1]=o*r+e[3]*n,e[2]=e[2]*r-i*n,e[3]=e[3]*r-o*n,this.w=this.s=this.i=null}return this}},{key:"scaleSelf",value:function(){var t=arguments.length>0&&void 0!==arguments[0]?arguments[0]:1,n=arguments.length>1&&void 0!==arguments[1]?arguments[1]:1;if(1!==t||1!==n){var r=this.m;r[0]*=t,r[1]*=t,r[2]*=n,r[3]*=n,this.w=this.s=this.i=null}return this}},{key:"skewSelf",value:function(t,n){if(n%=360,(t%=360)||n){var r=this.m,e=r[0],i=r[1],o=r[2],u=r[3];t&&(t=K(t*X),r[2]+=e*t,r[3]+=i*t),n&&(n=K(n*X),r[0]+=o*n,r[1]+=u*n),this.w=this.s=this.i=null}return this}},{key:"resetSelf",value:function(){var t=arguments.length>0&&void 0!==arguments[0]?arguments[0]:1,n=arguments.length>1&&void 0!==arguments[1]?arguments[1]:0,r=arguments.length>2&&void 0!==arguments[2]?arguments[2]:0,e=arguments.length>3&&void 0!==arguments[3]?arguments[3]:1,i=arguments.length>4&&void 0!==arguments[4]?arguments[4]:0,o=arguments.length>5&&void 0!==arguments[5]?arguments[5]:0,u=this.m;return u[0]=t,u[1]=n,u[2]=r,u[3]=e,u[4]=i,u[5]=o,this.w=this.s=this.i=null,this}},{key:"recomposeSelf",value:function(){var t=arguments.length>0&&void 0!==arguments[0]?arguments[0]:null,n=arguments.length>1&&void 0!==arguments[1]?arguments[1]:null,r=arguments.length>2&&void 0!==arguments[2]?arguments[2]:null,e=arguments.length>3&&void 0!==arguments[3]?arguments[3]:null,i=arguments.length>4&&void 0!==arguments[4]?arguments[4]:null;return this.isIdentity||this.resetSelf(),t&&(t.x||t.y)&&this.translateSelf(t.x,t.y),n&&this.rotateSelf(n),r&&(r.x&&this.skewSelf(r.x,0),r.y&&this.skewSelf(0,r.y)),!e||1===e.x&&1===e.y||this.scaleSelf(e.x,e.y),i&&(i.x||i.y)&&this.translateSelf(i.x,i.y),this}},{key:"decompose",value:function(){var t=arguments.length>0&&void 0!==arguments[0]?arguments[0]:0,n=arguments.length>1&&void 0!==arguments[1]?arguments[1]:0,r=this.m,e=r[0]*r[0]+r[1]*r[1],i=[[r[0],r[1]],[r[2],r[3]]],o=nt(e);if(0===o)return{origin:{x:r[4],y:r[5]},translate:{x:t,y:n},scale:{x:0,y:0},skew:{x:0,y:0},rotate:0};i[0][0]/=o,i[0][1]/=o;var u=r[0]*r[3]-r[1]*r[2]<0;u&&(o=-o);var a=i[0][0]*i[1][0]+i[0][1]*i[1][1];i[1][0]-=i[0][0]*a,i[1][1]-=i[0][1]*a;var l=nt(i[1][0]*i[1][0]+i[1][1]*i[1][1]);if(0===l)return{origin:{x:r[4],y:r[5]},translate:{x:t,y:n},scale:{x:o,y:0},skew:{x:0,y:0},rotate:0};i[1][0]/=l,i[1][1]/=l,a/=l;var f=0;return i[1][1]<0?(f=Z(i[1][1])*tt,i[0][1]<0&&(f=360-f)):f=J(i[0][1])*tt,u&&(f=-f),a=W(a,nt(i[0][0]*i[0][0]+i[0][1]*i[0][1]))*tt,u&&(a=-a),{origin:{x:r[4],y:r[5]},translate:{x:t,y:n},scale:{x:o,y:l},skew:{x:a,y:0},rotate:f}}},{key:"toString",value:function(){return null===this.s&&(this.s="matrix("+this.m.map(it).join(" ")+")"),this.s}}]),t}(),et=/\.0+$/;function it(t){return Number.isInteger(t)?t:t.toFixed(14).replace(et,"")}function ot(t,n,r){return t+(n-t)*r}function ut(t,n,r){var e=arguments.length>3&&void 0!==arguments[3]&&arguments[3],i={x:ot(t.x,n.x,r),y:ot(t.y,n.y,r)};return e&&(i.a=at(t,n)),i}function at(t,n){return Math.atan2(n.y-t.y,n.x-t.x)}Object.freeze({M:2,L:2,Z:0,H:1,V:1,C:6,Q:4,T:2,S:4,A:7});var lt={},ft=null;function st(n){var r=function(){if(ft)return ft;if("object"!==("undefined"==typeof document?"undefined":t(document)))return{};var n=document.createElementNS("http://www.w3.org/2000/svg","svg");return n.style.position="absolute",n.style.opacity="0.01",n.style.zIndex="-9999",n.style.left="-9999px",n.style.width="1px",n.style.height="1px",ft={svg:n}}().svg;if(!r)return function(t){return null};var e=document.createElementNS(r.namespaceURI,"path");e.setAttributeNS(null,"d",n),e.setAttributeNS(null,"fill","none"),e.setAttributeNS(null,"stroke","none"),r.appendChild(e);var i=e.getTotalLength();return function(t){var n=e.getPointAtLength(i*t);return{x:n.x,y:n.y}}}function ct(t){return lt[t]?lt[t]:lt[t]=st(t)}function ht(t,n,r,e){if(!t||!e)return!1;var i=["M",t.x,t.y];if(n&&r&&(i.push("C"),i.push(n.x),i.push(n.y),i.push(r.x),i.push(r.y)),n?!r:r){var o=n||r;i.push("Q"),i.push(o.x),i.push(o.y)}return n||r||i.push("L"),i.push(e.x),i.push(e.y),i.join(" ")}function vt(t,n,r,e){var i=arguments.length>4&&void 0!==arguments[4]?arguments[4]:1,o=ht(t,n,r,e),u=ct(o);try{return u(i)}catch(t){return null}}function yt(t,n,r,e){var i=1-e;return i*i*t+2*i*e*n+e*e*r}function dt(t,n,r,e){return 2*(1-e)*(n-t)+2*e*(r-n)}function gt(t,n,r,e){var i=arguments.length>4&&void 0!==arguments[4]&&arguments[4],o=vt(t,n,null,r,e);return o||(o={x:yt(t.x,n.x,r.x,e),y:yt(t.y,n.y,r.y,e)}),i&&(o.a=pt(t,n,r,e)),o}function pt(t,n,r,e){return Math.atan2(dt(t.y,n.y,r.y,e),dt(t.x,n.x,r.x,e))}function mt(t,n,r,e,i){var o=i*i;return i*o*(e-t+3*(n-r))+3*o*(t+r-2*n)+3*i*(n-t)+t}function bt(t,n,r,e,i){var o=1-i;return 3*(o*o*(n-t)+2*o*i*(r-n)+i*i*(e-r))}function wt(t,n,r,e,i){var o=arguments.length>5&&void 0!==arguments[5]&&arguments[5],u=vt(t,n,r,e,i);return u||(u={x:mt(t.x,n.x,r.x,e.x,i),y:mt(t.y,n.y,r.y,e.y,i)}),o&&(u.a=xt(t,n,r,e,i)),u}function xt(t,n,r,e,i){return Math.atan2(bt(t.y,n.y,r.y,e.y,i),bt(t.x,n.x,r.x,e.x,i))}function kt(t,n,r){var e=arguments.length>3&&void 0!==arguments[3]&&arguments[3];if(_t(n)){if(St(r))return gt(n,r.start,r,t,e)}else if(_t(r)){if(n.end)return gt(n,n.end,r,t,e)}else{if(n.end)return r.start?wt(n,n.end,r.start,r,t,e):gt(n,n.end,r,t,e);if(r.start)return gt(n,r.start,r,t,e)}return ut(n,r,t,e)}function At(t,n,r){var e=kt(t,n,r,!0);return e.a=function(t){var n=arguments.length>1&&void 0!==arguments[1]&&arguments[1];return n?t+Math.PI:t}(e.a)/p,e}function _t(t){return!t.type||"corner"===t.type}function St(t){return null!=t.start&&!_t(t)}var Ot=new rt;var Mt={f:Q,i:b},jt={f:Q,i:function(t,n,r){var e=b(t,n,r);return e<=0?0:e>=1?1:e}};function Ft(t,n,r,e,i,o,u,a){return n=function(t,n,r){for(var e,i,o,u=t.length-1,a={},l=0;l<=u;l++)(e=t[l]).e&&(e.e=n(e.e)),e.v&&"g"===(i=e.v).t&&i.r&&(o=r.getElementById(i.r))&&(a[i.r]=o.querySelectorAll("stop"));return a}(t,e,a),function(e){var i,o=r(e,t,Pt);return o?"c"===o.t?V(o.v):"g"===o.t?(n[o.r]&&function(t,n){for(var r=0,e=t.length;r<e;r++)t[r].setAttribute("stop-color",V(n[r]))}(n[o.r],o.v),(i=o.r)?"url(#"+i+")":"none"):"none":"none"}}function Pt(t,n,r){if(0===t)return n;if(1===t)return r;if(n&&r){var e=n.t;if(e===r.t)switch(n.t){case"c":return{t:e,v:A(t,n.v,r.v)};case"g":if(n.r===r.r)return{t:e,v:_(t,n.v,r.v),r:n.r}}}return m(t,n,r)}var Bt={fill:Ft,"fill-opacity":jt,stroke:Ft,"stroke-opacity":jt,"stroke-width":Mt,"stroke-dashoffset":{f:Q,i:b},"stroke-dasharray":{f:function(t){var n=arguments.length>1&&void 0!==arguments[1]?arguments[1]:" ";return t&&t.length>0&&(t=t.map((function(t){return Math.floor(1e4*t)/1e4}))),U(t,n)},i:function(t,n,r){var e,i,o,u=n.length,a=r.length;if(u!==a)if(0===u)n=S(u=a,0);else if(0===a)a=u,r=S(u,0);else{var l=(o=(e=u)*(i=a)/function(t,n){for(var r;n;)r=n,n=t%n,t=r;return t||1}(e,i))<0?-o:o;n=O(n,Math.floor(l/u)),r=O(r,Math.floor(l/a)),u=a=l}for(var f=[],s=0;s<u;s++)f.push(g(w(t,n[s],r[s]),6));return f}},opacity:jt,transform:function(n,r,e,i){if(!(n=function(n,r){if(!n||"object"!==t(n))return null;var e=!1;for(var i in n)n.hasOwnProperty(i)&&(n[i]&&n[i].length?(n[i].forEach((function(t){t.e&&(t.e=r(t.e))})),e=!0):delete n[i]);return e?n:null}(n,i)))return null;var o=function(t,i,o){var u=arguments.length>3&&void 0!==arguments[3]?arguments[3]:null;return n[t]?e(i,n[t],o):r&&r[t]?r[t]:u};return r&&r.a&&n.o?function(t){var r=e(t,n.o,At);return Ot.recomposeSelf(r,o("r",t,b,0)+r.a,o("k",t,x),o("s",t,x),o("t",t,x)).toString()}:function(t){return Ot.recomposeSelf(o("o",t,kt,null),o("r",t,b,0),o("k",t,x),o("s",t,x),o("t",t,x)).toString()}},r:Mt,"#size":G,"#radius":$,_:function(t,n){if(Array.isArray(t))for(var r=0;r<t.length;r++)this[t[r]]=n;else this[t]=n}};return function(t){!function(t,n){if("function"!=typeof n&&null!==n)throw new TypeError("Super expression must either be null or a function");t.prototype=Object.create(n&&n.prototype,{constructor:{value:t,writable:!0,configurable:!0}}),n&&o(t,n)}(u,t);var r=a(u);function u(){return n(this,u),r.apply(this,arguments)}return e(u,null,[{key:"build",value:function(t){var n=l(i(u),"build",this).call(this,t,Bt);n.el,n.options;var r=n.player;return function(t,n,r){t.play()}(r),r}}]),u}(L)}));
__SVGATOR_PLAYER__.build({"root":"eQgljEKYH5x1","animations":[{"duration":3000,"direction":1,"iterations":0,"fill":1,"alternate":false,"speed":1,"elements":{"eQgljEKYH5x3":{"transform":{"data":{"o":{"x":-624.4434204101562,"y":-438.03489685058594,"type":"corner"},"t":{"x":624.4434204101562,"y":438.03489685058594}},"keys":{"s":[{"t":0,"v":{"x":1,"y":1},"e":[0.42,0,0.58,1]},{"t":2000,"v":{"x":0.4444783630656178,"y":0.4444783630656178}},{"t":3000,"v":{"x":0.7384299691836759,"y":0.7384299691836759}}]}}}}}],"options":{"start":"load","hover":"freeze","click":"freeze","scroll":25,"font":"embed","exportedIds":"unique","svgFormat":"animated","title":"filled_star"},"animationSettings":{"duration":3000,"direction":1,"iterations":0,"fill":1,"alternate":false,"speed":1}})]]></script></svg>