<?xml version="1.0" encoding="utf-8"?>
<!-- Generator: Adobe Illustrator 25.1.0, SVG Export Plug-In . SVG Version: 6.00 Build 0)  -->
<svg version="1.1" id="Layer_1" xmlns="http://www.w3.org/2000/svg" xmlns:xlink="http://www.w3.org/1999/xlink" x="0px" y="0px"
	 viewBox="0 0 76.54 98.65" style="enable-background:new 0 0 76.54 98.65;" xml:space="preserve">
<path id="Path_11" d="M51.23,34.22c-1.56-0.7-0.73-0.86-0.53-1.73c-2.78-0.39-2.98-1.85-5-2.58c-0.3-0.12,0.24-0.54-0.24-0.4
	c-0.29,0.06-0.59,0.01-0.85-0.14c0.02-0.21,0.95-0.07,0.95-0.17c0.04-0.15,0.12,0.3,0.32-0.79c0.01-0.18,0.21-0.31,0.36-0.44
	c1.07-0.72,0.4-1.85,1.13-2.62c0.37-0.4,1.1-0.94,1.16-1.46c-0.28-0.7,1.09-1.71,1.33-2.46c-0.28-0.46-0.74-1.09-1.01-1.57
	c-0.89-0.25-2.04,0.5-2.96,0.12c-0.15,0.11-6.12,0.14-5.8,0.58c0.01,0.43-0.14,0.52-0.16,0.2c0-0.55-0.04-0.31-0.19-0.21
	c-0.23,0.17-0.37,0.11-0.06-0.22c0.2-0.19-0.01-0.05-0.14-0.02c-0.21,0.06-0.2-0.04,0-0.13c0.54-0.34-0.79-0.88-0.51-1.46
	c0.3-1.19-0.45-2.31-1.01-3.23c-0.54-0.76-0.23-2.54-0.75-3.22c-0.8-1.21-2.49-0.06-3.24,0.06c-2.14,0.85-3.4,3.61-4.29,5.61
	c0.34,0.45-0.3-0.06-0.24,0.08c0.07,0.24-0.08,0.32-0.19-0.2c-0.02-0.1-0.02-0.14-0.01,0.03c0,0.71-0.1,0.54-0.22,0.68
	c-0.24,0.16-0.02-0.5,0-0.61c-0.57-0.33-1.22-0.5-1.88-0.49c-0.51-0.32-0.43-1.38-1.2-1.15c-0.19,0.03-0.33-0.17-0.46-0.39
	c-0.54-0.81-1.27-0.33-2-0.94c-0.59-0.32-1.24-1.1-1.95-1.19c-0.53,0.13-1.66,0.53-1.66,1.23c0.35,1.39,0.38,2.84,0.07,4.24
	c-0.02,1.09,0.36,2.53,0.3,3.65c0.02,0.23,0.02,0.45-0.01,0.68c-0.17,0.01,0.93,0.29,0.61,0.35c-0.15,0.05-0.49-0.09-0.48,0
	c0.17,0.35-0.49-0.4-0.25,0.03c0.08,0.22,0.03,0.29-0.06,0.11c-0.31-0.37-0.96,0.56-1.35,0.47c-2.1,0.47-4.23,1.06-6.44,1.64
	c-0.75,0.09-1.28,0.76-1.19,1.51c0.02,0.18,0.08,0.36,0.17,0.52c0.26,1.09,1.98,1.7,1.99,2.87c0.39,0.61,1.8,0.76,2.5,1.3
	c0.4,0.29,1.41,0.99,1.8,1.27c0.15,0.1,0.49,0.29,0.31,0.52c-0.05,0.07-0.06,0.06,0.27,0.01c0.28-0.04,0.4,0.05,0.16,0.11
	c-0.26,0.06-0.29,0.07-0.15,0.14c0.14,0.14-0.35-0.06,0,0.2c0.57,0.45-0.13,0.81-0.55,1.01c-2.18,1.64-2.37,4.35-3.96,6.55
	c0.3,0.69,1.02,1.46,1.88,1.22c0.8-0.04,1.13,0.7,2.26,0.57c1.02,0.3,2.32-1.16,3.17-0.63c0.81,0.22,1.66,0.17,2.44-0.14
	c0.05-0.06,0.14-0.14,0.15,0.08c-0.03,0.16,0.37-0.73,0.36-0.42c-0.01,0.11,0.05,0.07,0.18-0.01c0.19-0.05-0.15,0.36-0.12,0.36
	c0.14,0.14-0.55,0.42-0.23,0.35c0.75,0.39,0.9,1.55,0.99,2.4c-0.01,1.71,1.19,2.26,1.17,4.04c0.04,1.86,0.76,1.9,2.35,1.92
	c1.04-0.26,1.71-2.47,2.64-2.94c0.77-0.06,0.94-1.17,1.5-1.6c0.73-0.28,1.34-0.8,1.73-1.48c-0.03-0.03-0.06-0.07-0.09-0.11
	c-0.08-0.18-0.14-0.36,0.04-0.17c0.07,0.09,0.05-0.01,0.08-0.01s0.09-0.11,0.11,0.16s-0.05,0.25,0.02,0.13
	c0.68-0.31,2.36,2.2,3.46,2.33c0.81,0.66,2.1-0.03,2.96-1.04l0.04,0.03c0.06,0.02,0.11,0.03,0.16,0.05
	c-1.32,3.73,5.87,2.71,2.43-3.45c-0.24-0.96,0.45-2.17-0.24-2.94c-0.23-0.19,0.26-0.73-0.12-0.77c-0.21-0.1,0.27-0.11,0.11-0.28
	c-0.03-0.06-0.16-0.34,0.1-0.15c0-0.08-0.09-0.54,0.25-0.3c3.24,0.04,5.39-2.18,8.21-2.04C52.49,37.2,51.98,34.41,51.23,34.22z"/>
<path id="Path_13" d="M39.5,73.13c-0.1-0.71-0.24-1.41-0.41-2.11c-0.15-0.51-0.32-1.16-0.33-0.86c0,0.03-0.02,0-0.03-0.03
	c-0.08-0.14-0.13-0.17-0.16-0.1c-0.04,0.08-0.12-0.1-0.18-0.12s-0.08-0.02-0.09,0.17c0,0.14-0.04,0.08-0.08,0.01
	c-0.03-0.06-0.07-0.11-0.12-0.14c-0.04-0.02-0.06,0.02-0.1-0.01c-0.04-0.04-0.06,0.04-0.04,0.27s0,0.31-0.08,0.06
	c-0.04-0.12-0.08-0.18-0.08-0.12c-0.03,0.22-0.13,0.1-0.21,0.03c-0.16-0.14-0.23,0.34-0.33,0.13c-0.06-0.12-0.08-0.06-0.06,0.17
	c0.02,0.36-0.02,0.36-0.11,0.16c-0.1-0.23-0.25-0.2-0.26,0.03c-0.01,0.16-0.05,0.17-0.1,0.11c-0.03-0.04-0.08-0.17-0.1-0.15
	c-0.02,0.02-0.04,0.17-0.06,0.22c-0.03,0.05-0.12-0.27-0.12-0.09c0,0.28-0.07,0.23-0.16,0.03c-0.1-0.2-0.14-0.18-0.17-0.05
	c-0.05,0.23-0.17,0.13-0.32-0.15c-0.02-0.03-0.04-0.08-0.04-0.03c0,0.28-0.08,0.12-0.09,0.33c-0.01,0.15-0.04,0.14-0.1,0.07
	c-0.14-0.19-0.26-0.27-0.33-0.13c-0.04,0.07-0.04,0.26-0.13,0.09c-0.07-0.14-0.08,0.04-0.06,0.35c0.01,0.2,0,0.24-0.06,0.13
	c-0.17-0.35-0.29-0.45-0.34-0.19c-0.02,0.08-0.05,0.16-0.1,0.24c-0.02,0.02-0.03,0.05-0.07-0.04c-0.09-0.21-0.14-0.25-0.16-0.15
	c-0.02,0.09-0.07,0.05-0.14-0.1c-0.05-0.1-0.12-0.19-0.2-0.27c-0.04-0.05-0.06-0.03-0.05,0.17c0.01,0.17,0,0.21-0.05,0.08
	c-0.12-0.33-0.18-0.33-0.21-0.18c-0.01-0.02-0.04-0.05-0.04-0.06c-0.01-0.08-0.21-0.24-0.35-0.38c-0.04-0.04-0.08-0.08,0-0.07
	c0.38,0.08,0.31-0.03,0.33-0.11c0.01-0.04,0.03-0.07-0.09-0.17s-0.16-0.16,0.1-0.08c0.07,0.02,0.15,0.04,0.23,0.05
	c0.33,0.05-0.05-0.22,0.28-0.16c0.08,0.01,0.01-0.05-0.08-0.11c-0.14-0.1-0.19-0.16-0.09-0.16c0.08,0,0.06-0.03-0.02-0.1
	c-0.05-0.04,0-0.04,0.03-0.05c0.03-0.01,0.16,0.03,0.16,0.01c-0.01-0.06,0.11-0.06,0.28-0.03c0.09,0.01,0.12,0,0.02-0.07
	c-0.33-0.24-0.35-0.33-0.13-0.32c0.16,0.01,0.24-0.02,0.05-0.18s-0.13-0.19,0.08-0.16c0.21,0.03,0.18-0.05,0.05-0.17
	c-0.15-0.15-0.18-0.24,0.08-0.2c0.23,0.03,0.3,0,0.11-0.16c-0.13-0.11-0.21-0.2,0.04-0.13c0.3,0.08,0.3,0.04,0.14-0.09
	c-0.05-0.04-0.07-0.07,0.01-0.05c0.52,0.13,0.36-0.04,0.26-0.16c-0.02-0.02,0.03-0.01-0.02-0.05c-0.18-0.13-0.06-0.12,0.05-0.12
	s0.07-0.06,0.1-0.09c0.03-0.03-0.03-0.14,0.15-0.12c0.18,0.02,0.21-0.02,0.13-0.11c-0.15-0.17-0.11-0.25-0.04-0.32
	s0.32-0.07,0.07-0.3c-0.02-0.02-0.01-0.02,0-0.03c0.15-0.02-0.43-0.34-0.96-0.63c-0.63-0.33-1.29-0.63-1.95-0.89
	c-0.51-0.18-1.13-0.42-0.89-0.23c0.02,0.02-0.02,0.01-0.04,0.01c-0.16-0.02-0.22,0-0.17,0.08c0.04,0.08-0.15,0.04-0.21,0.08
	c-0.05,0.03-0.07,0.06,0.09,0.17c0.11,0.08,0.04,0.08-0.04,0.07c-0.06-0.01-0.13,0-0.19,0.02c-0.04,0.02-0.02,0.06-0.07,0.07
	s0,0.07,0.2,0.19s0.26,0.18,0.01,0.1c-0.12-0.04-0.19-0.04-0.15,0c0.16,0.15,0.01,0.16-0.1,0.19c-0.21,0.05,0.15,0.38-0.08,0.34
	c-0.13-0.02-0.1,0.03,0.1,0.15c0.31,0.19,0.28,0.22,0.07,0.18c-0.24-0.05-0.31,0.08-0.12,0.23c0.13,0.1,0.11,0.14,0.03,0.14
	c-0.05,0-0.18-0.03-0.18,0s0.12,0.13,0.14,0.18c0.02,0.05-0.3-0.06-0.14,0.05c0.23,0.16,0.15,0.19-0.07,0.15
	c-0.22-0.04-0.23,0.01-0.14,0.11c0.16,0.18,0.01,0.22-0.3,0.17c-0.04,0-0.09-0.01-0.05,0.02c0.23,0.16,0.05,0.14,0.21,0.27
	c0.12,0.09,0.09,0.12,0,0.12c-0.24,0-0.37,0.05-0.3,0.19c0.03,0.07,0.18,0.18,0,0.15c-0.16-0.03-0.02,0.09,0.25,0.26
	c0.17,0.11,0.19,0.14,0.08,0.12c-0.38-0.07-0.53-0.03-0.35,0.17c0.06,0.06,0.1,0.14,0.13,0.22c0.01,0.03,0.02,0.05-0.08,0.03
	c-0.23-0.06-0.28-0.04-0.21,0.04c0.07,0.08,0,0.09-0.17,0.06c-0.11-0.02-0.22-0.02-0.33,0c-0.06,0-0.06,0.03,0.11,0.14
	c0.15,0.09,0.17,0.13,0.03,0.09c-0.52-0.14-0.34,0.04,0,0.3c0.51,0.29,0.37,0.28,0.02,0.18c-0.08-0.02-0.16-0.04-0.24-0.05
	c-0.15-0.03-0.22-0.02-0.2,0.03c-0.04,0.01-0.09,0.03-0.12,0.05c-0.14,0.08-0.21,0.1-0.14-0.01s0.06-0.16-0.05-0.1
	c-0.04,0.02-0.08,0.03-0.04-0.03c0.09-0.11-0.01-0.06-0.12,0c-0.08,0.05-0.14,0.08-0.23,0.14s-0.11,0.05-0.05-0.03
	c0.05-0.06,0.09-0.12,0.16-0.2c0.27-0.31,0.3-0.41,0.14-0.35c-0.06,0.02-0.11,0.04-0.05-0.04c0.14-0.18,0.04-0.16-0.05-0.13
	c-0.15,0.04-0.3,0.08-0.21-0.09c0.02-0.04-0.06,0-0.08-0.01c-0.07-0.02-0.31,0.1-0.48,0.17c-0.05,0.02-0.11,0.05-0.06-0.02
	c0.23-0.31,0.1-0.29,0.04-0.33c-0.03-0.02-0.05-0.06-0.19,0.02c-0.14,0.08-0.2,0.08-0.03-0.12c0.05-0.06,0.1-0.12,0.14-0.18
	c0.18-0.27-0.21-0.03-0.02-0.31c0.05-0.07-0.04-0.03-0.14,0.03c-0.15,0.09-0.22,0.11-0.18,0.02c0.04-0.07-0.01-0.06-0.09-0.02
	c-0.06,0.03-0.04-0.01-0.03-0.05c0.01-0.03,0.09-0.13,0.07-0.14c-0.06-0.01-0.01-0.12,0.09-0.26c0.05-0.07,0.05-0.1-0.06-0.04
	c-0.34,0.21-0.44,0.19-0.33,0c0.08-0.14,0.08-0.22-0.14-0.1s-0.22,0.05-0.11-0.13s0.04-0.18-0.13-0.11
	c-0.19,0.08-0.28,0.07-0.14-0.14c0.13-0.19,0.12-0.27-0.09-0.16c-0.15,0.08-0.26,0.12-0.1-0.08c0.2-0.24,0.16-0.26-0.02-0.16
	c-0.05,0.03-0.09,0.04-0.04-0.03c0.33-0.42,0.12-0.33-0.03-0.29c-0.02,0.01,0-0.03-0.05,0c-0.19,0.12-0.13,0.01-0.09-0.09
	s-0.02-0.08-0.04-0.12c-0.02-0.04-0.13-0.03-0.04-0.17c0.09-0.15,0.07-0.19-0.04-0.16c-0.21,0.07-0.27,0.01-0.3-0.08
	c-0.03-0.09,0.07-0.31-0.23-0.17c-0.02,0.01-0.03,0-0.02-0.01c0.05-0.14-0.48,0.27-0.96,0.63c-0.56,0.45-1.09,0.92-1.6,1.43
	c-0.37,0.39-0.84,0.86-0.58,0.72c0.03-0.01,0,0.02-0.01,0.04c-0.09,0.14-0.09,0.2-0.01,0.18c0.08-0.02-0.03,0.15-0.02,0.21
	c0.01,0.06,0.02,0.08,0.19-0.02c0.12-0.07,0.09-0.01,0.05,0.06c-0.03,0.05-0.05,0.11-0.06,0.18c0,0.04,0.05,0.04,0.04,0.09
	c-0.01,0.05,0.06,0.03,0.25-0.11c0.19-0.14,0.27-0.16,0.09,0.03c-0.09,0.1-0.12,0.15-0.07,0.13c0.2-0.09,0.14,0.05,0.12,0.16
	c-0.04,0.2,0.4,0.01,0.27,0.2c-0.08,0.11-0.02,0.1,0.17-0.04c0.3-0.21,0.31-0.17,0.19,0.01c-0.15,0.2-0.05,0.31,0.15,0.2
	c0.14-0.08,0.17-0.05,0.14,0.03c-0.02,0.04-0.1,0.15-0.08,0.16c0.02,0.01,0.17-0.06,0.22-0.06s-0.17,0.24-0.02,0.15
	c0.24-0.14,0.23-0.06,0.1,0.12s-0.08,0.21,0.04,0.16c0.22-0.08,0.19,0.07,0.02,0.34c-0.02,0.03-0.05,0.08-0.01,0.05
	c0.24-0.15,0.14,0,0.32-0.1c0.13-0.07,0.14-0.04,0.1,0.04c-0.1,0.21-0.11,0.35,0.05,0.34c0.07,0,0.24-0.1,0.13,0.06
	c-0.09,0.13,0.07,0.05,0.33-0.13c0.17-0.12,0.21-0.12,0.14-0.02c-0.22,0.32-0.25,0.47,0,0.38c0.08-0.03,0.16-0.04,0.25-0.04
	c0.03,0,0.05,0-0.01,0.08c-0.14,0.18-0.15,0.24-0.05,0.21c0.1-0.03,0.08,0.03-0.02,0.17c-0.06,0.09-0.11,0.19-0.14,0.3
	c-0.02,0.06,0,0.07,0.17-0.04c0.14-0.1,0.18-0.11,0.09,0c-0.34,0.42-0.11,0.32,0.26,0.11c0.47-0.36,0.4-0.23,0.17,0.05
	c-0.05,0.06-0.1,0.13-0.14,0.2c-0.12,0.16-0.11,0.22,0,0.18h0.01c-0.02,0.21-0.1,0.15-0.19,0.01c-0.04-0.06-0.08-0.09-0.1-0.07
	c-0.08,0.06-0.22-0.23-0.26,0.06c-0.01,0.06-0.04,0.01-0.07-0.07c-0.06-0.13-0.08-0.09-0.07,0.12c0.01,0.26-0.01,0.34-0.09,0.15
	c-0.08-0.19-0.11-0.12-0.15-0.11c-0.13,0.03-0.24,0.16-0.4,0.02c-0.05-0.04-0.08,0.01-0.07,0.24c0,0.11-0.02,0.12-0.05,0.05
	c-0.05-0.1-0.1-0.19-0.16-0.28c-0.02-0.04-0.05-0.08-0.06-0.04c-0.05,0.32-0.21,0.06-0.27,0.29c-0.02,0.09-0.09-0.02-0.1,0.15
	c0,0.06-0.02,0.07-0.05,0c-0.12-0.28-0.09,0.21-0.25-0.28c-0.02-0.07-0.02,0-0.03,0.04c-0.01,0.13-0.04,0.14-0.09,0.04
	c-0.05-0.1-0.07-0.04-0.05,0.23c0.02,0.17,0,0.21-0.05,0.06c-0.09-0.28-0.12-0.29-0.11-0.04c0.01,0.33-0.03,0.41-0.14,0.05
	c-0.11-0.32-0.13-0.3-0.12-0.02c0.01,0.18,0,0.27,0,0.41s-0.03,0.12-0.1-0.12c-0.07-0.24-0.13-0.41-0.14-0.32
	c-0.03,0.25-0.16,0.02-0.24,0c-0.04-0.01-0.1-0.08-0.11,0.07c-0.01,0.17-0.08,0.03-0.09,0.2c-0.01,0.17-0.1-0.06-0.16-0.15
	c-0.02-0.03-0.04-0.05-0.06-0.04c-0.06,0.01-0.12,0.02-0.17,0.05c-0.03,0.02-0.07,0-0.07,0.22c0.01,0.17-0.02,0.18-0.07,0.08
	c-0.07-0.14-0.12-0.2-0.15-0.14c-0.03,0.06-0.09-0.02-0.13,0.03c-0.02,0.03-0.06,0-0.09-0.01c-0.12-0.05-0.27-0.25-0.3,0.16
	c0,0.07-0.04,0.01-0.06-0.01c-0.12-0.12-0.24-0.21-0.27,0.16c-0.02,0.24-0.05,0.44-0.17,0.18c-0.04-0.08-0.05,0.01-0.07,0
	c-0.08-0.04-0.15,0.03-0.26-0.16c-0.09-0.16-0.07,0.19,0.01,0.81c0.04,0.27,0.1,0.61,0.17,0.94c0.1,0.46,0.21,0.9,0.31,1.36
	c0.03,0.25,0.11,0.5,0.23,0.73c0.02,0.02,0.02-0.03,0.03-0.05c0.03-0.1,0.05-0.26,0.1-0.3c0.05-0.04,0.14,0.16,0.15-0.12
	c0.09,0.07,0.17,0.15,0.24,0.24c0.07,0.09,0.18,0.37,0.17,0.03c0-0.06,0.02-0.03,0.04,0.02c0.06,0.13,0.1,0.14,0.11,0
	c0.01-0.07,0.03-0.06,0.06-0.01c0.1,0.17,0.16,0.11,0.23,0.1c0.07-0.01,0.09-0.22,0.18-0.07c0.02,0.03,0.03-0.03,0.03-0.09
	c0.02-0.31,0.12-0.24,0.24-0.09c0.22,0.28,0.37,0.21,0.42-0.41c0.01-0.08,0.02-0.1,0.07,0.04c0.18,0.53,0.26,0.56,0.29,0.31
	c0.02-0.21,0.08-0.24,0.19-0.04c0.05,0.1,0.08,0.1,0.08-0.09c-0.01-0.41,0.06-0.38,0.23,0.18c0.05,0.15,0.07,0.16,0.06,0.01
	c-0.04-0.49,0.02-0.53,0.15-0.22c0.03,0.08,0.07,0.12,0.06,0.03c0-0.21,0.04-0.15,0.1-0.05c0.11,0.19,0.19,0.18,0.24,0.03
	c0.04-0.17,0.07-0.34,0.09-0.52c0.01-0.06,0.04-0.03,0.08,0.11c0.1,0.3,0.16,0.4,0.2,0.36c0.04-0.03,0.15,0.16,0.16-0.13
	c0-0.07,0.04,0.02,0.06,0.08c0.1,0.22,0.14,0.13,0.12-0.21c-0.01-0.19,0.02-0.2,0.06-0.1c0.05,0.1,0.1,0.23,0.14,0.29
	c0.03,0.05,0.06,0.1,0.06-0.01c-0.02-0.36,0.04-0.34,0.13-0.14c0.06,0.14,0.1,0.15,0.12,0.06c0.03-0.13,0.07-0.15,0.15-0.04
	s0.13,0.1,0.13-0.12c0-0.11,0.03-0.1,0.08,0.02c0.03,0.07,0.05,0.12,0.07,0.11c0.08-0.01,0.17-0.04,0.25-0.05
	c0.01,0.02,0.02,0.03,0.04,0.04c0.21,0.17,0.11,0.2-0.07,0.19c-0.07,0-0.12,0.01-0.12,0.04c0,0.1-0.32,0.05-0.1,0.24
	c0.05,0.04-0.01,0.04-0.1,0.02c-0.14-0.03-0.12,0.01,0.06,0.13c0.22,0.14,0.27,0.21,0.07,0.16c-0.2-0.04-0.16,0.02-0.18,0.06
	c-0.05,0.12-0.01,0.29-0.21,0.34c-0.06,0.01-0.04,0.07,0.15,0.2c0.09,0.06,0.08,0.08,0.01,0.07c-0.11-0.02-0.22-0.03-0.33-0.03
	c-0.04,0-0.1-0.01-0.06,0.02c0.23,0.22-0.07,0.21,0.08,0.39c0.06,0.07-0.07,0.06,0.06,0.17c0.05,0.04,0.05,0.06-0.02,0.04
	c-0.3-0.07,0.11,0.19-0.37,0.04c-0.07-0.02-0.02,0.02,0.02,0.05c0.1,0.08,0.1,0.11-0.02,0.1s-0.07,0.04,0.16,0.17
	c0.14,0.08,0.17,0.12,0.02,0.07c-0.28-0.09-0.31-0.07-0.1,0.07c0.27,0.18,0.32,0.26-0.05,0.14c-0.33-0.1-0.32-0.06-0.08,0.08
	c0.15,0.1,0.22,0.16,0.33,0.24c0.11,0.08,0.08,0.1-0.16,0.01s-0.41-0.13-0.35-0.07c0.19,0.17-0.08,0.14-0.14,0.2
	c-0.03,0.03-0.12,0.04,0,0.13c0.14,0.11-0.03,0.08,0.11,0.19s-0.11,0.05-0.22,0.04c-0.04,0-0.06,0.01-0.07,0.02
	c-0.03,0.05-0.05,0.11-0.06,0.17c-0.01,0.04-0.05,0.06,0.14,0.18c0.15,0.1,0.14,0.12,0.03,0.1c-0.16-0.03-0.23-0.02-0.2,0.04
	s-0.07,0.06-0.05,0.12c0.01,0.04-0.03,0.05-0.06,0.06c-0.11,0.07-0.36,0.07-0.04,0.34c0.05,0.04-0.01,0.04-0.04,0.04
	c-0.17,0.03-0.31,0.08-0.03,0.31c0.18,0.15,0.33,0.29,0.05,0.25c-0.09-0.02-0.02,0.04-0.05,0.06c-0.08,0.05-0.06,0.14-0.29,0.12
	c-0.18-0.02,0.11,0.17,0.66,0.47c0.24,0.13,0.55,0.28,0.87,0.41c0.44,0.18,0.86,0.36,1.29,0.54c0.23,0.12,0.47,0.2,0.73,0.23
	c0.02,0-0.01-0.03-0.03-0.05c-0.07-0.09-0.18-0.2-0.19-0.26s0.21-0.03-0.01-0.19c0.11-0.03,0.22-0.05,0.33-0.06
	c0.12-0.01,0.41,0.07,0.12-0.12c-0.05-0.03-0.01-0.03,0.04-0.02c0.14,0.03,0.17,0,0.06-0.09c-0.06-0.05-0.03-0.06,0.03-0.05
	c0.2,0.01,0.18-0.07,0.21-0.13c0.03-0.06-0.13-0.2,0.05-0.19c0.04,0-0.01-0.04-0.05-0.08c-0.24-0.2-0.12-0.24,0.06-0.25
	c0.36-0.02,0.39-0.18-0.09-0.58c-0.06-0.05-0.07-0.08,0.07-0.03c0.53,0.17,0.61,0.12,0.42-0.05c-0.16-0.14-0.14-0.2,0.08-0.17
	c0.11,0.01,0.13-0.01-0.02-0.12c-0.34-0.23-0.28-0.27,0.28-0.08c0.15,0.05,0.17,0.04,0.04-0.04c-0.42-0.26-0.42-0.32-0.09-0.24
	c0.09,0.02,0.14,0.02,0.06-0.04c-0.17-0.12-0.09-0.12,0.01-0.11c0.22,0.02,0.26-0.05,0.16-0.17c-0.12-0.13-0.24-0.26-0.37-0.38
	c-0.04-0.04,0-0.04,0.14,0c0.3,0.09,0.42,0.1,0.41,0.05c-0.01-0.07,0.22-0.03-0.02-0.2c-0.05-0.04,0.04-0.02,0.1-0.01
	c0.23,0.04,0.19-0.04-0.1-0.22c-0.16-0.1-0.16-0.13-0.05-0.11c0.11,0.02,0.24,0.05,0.32,0.06c0.05,0,0.12,0.01,0.02-0.05
	c-0.3-0.19-0.25-0.23-0.04-0.18c0.15,0.03,0.18,0,0.12-0.06c-0.09-0.1-0.08-0.15,0.05-0.15c0.13,0,0.16-0.04-0.02-0.18
	c-0.09-0.07-0.07-0.08,0.06-0.05c0.08,0.02,0.12,0.02,0.13,0.01c0.07-0.14,0.13-0.28,0.18-0.42c0.01-0.02,0-0.05-0.13-0.12
	c-0.3-0.17-0.32-0.22-0.07-0.14c0.42,0.12,0.28-0.01,0.26-0.09s-0.2-0.24,0.13-0.16c0.15,0.03,0.07-0.04-0.06-0.13
	s-0.11-0.12,0.05-0.08c0.18,0.04,0.24,0.03,0.02-0.11c-0.14-0.09-0.12-0.11-0.03-0.09s0.22,0.04,0.31,0.05
	c0.05,0,0.1,0.01,0.05-0.03c-0.18-0.14-0.15-0.19-0.32-0.33c-0.11-0.09-0.13-0.13,0.03-0.1c0,0.01,0,0.02,0.03,0.01h0.01
	c0.05,0.01,0.11,0.02,0.17,0.02c-0.01,0.04-0.04,0.08-0.06,0.12c-0.01,0.02,0,0.02,0.01,0.02c0.06,0.06,0.11,0.12,0.17,0.18
	c0.02,0.02,0,0.07,0.1,0.02c0.24-0.13,0.22-0.03,0.14,0.13c-0.03,0.06-0.04,0.11-0.01,0.12c0.09,0.03-0.09,0.3,0.17,0.18
	c0.05-0.03,0.03,0.03-0.02,0.09c-0.09,0.12-0.04,0.11,0.14,0c0.22-0.15,0.29-0.17,0.17-0.01c-0.12,0.16-0.05,0.15-0.02,0.18
	c0.09,0.09,0.25,0.11,0.21,0.32c-0.01,0.06,0.05,0.06,0.24-0.06c0.1-0.06,0.11-0.05,0.06,0.02c-0.07,0.11-0.12,0.2-0.16,0.28
	c-0.02,0.04-0.05,0.08-0.01,0.07c0.29-0.13,0.15,0.14,0.38,0.07c0.09-0.03,0.03,0.09,0.18,0c0.05-0.03,0.07-0.02,0.03,0.04
	c-0.19,0.24,0.22-0.03-0.12,0.35c-0.05,0.05,0.01,0.02,0.05,0c0.11-0.06,0.14-0.04,0.08,0.05c-0.06,0.1,0,0.08,0.22-0.08
	c0.14-0.1,0.18-0.11,0.07,0.01c-0.2,0.22-0.19,0.25,0.02,0.11c0.27-0.18,0.36-0.19,0.11,0.09c-0.23,0.25-0.19,0.26,0.04,0.1
	c0.15-0.1,0.23-0.14,0.35-0.21s0.12-0.04-0.05,0.15c-0.17,0.19-0.29,0.32-0.21,0.29c0.23-0.1,0.09,0.12,0.11,0.2
	c0.01,0.04-0.02,0.12,0.11,0.05c0.15-0.08,0.06,0.06,0.22-0.03s-0.01,0.11-0.05,0.21c-0.02,0.03-0.02,0.06-0.01,0.07
	c0.04,0.04,0.08,0.08,0.12,0.12c0.03,0.02,0.03,0.06,0.22-0.06c0.14-0.1,0.16-0.08,0.1,0.01c-0.09,0.13-0.12,0.2-0.05,0.2
	s0.02,0.09,0.08,0.09c0.04,0,0.02,0.05,0.03,0.08c0.01,0.12-0.09,0.35,0.28,0.16c0.06-0.03,0.03,0.02,0.02,0.06
	c-0.04,0.16-0.06,0.3,0.26,0.14c0.21-0.11,0.4-0.19,0.24,0.04c-0.05,0.07,0.03,0.03,0.03,0.06c0.01,0.09,0.1,0.1-0.02,0.3
	c-0.09,0.16,0.2-0.04,0.69-0.43c0.21-0.17,0.48-0.4,0.72-0.63c0.35-0.33,0.67-0.64,1.01-0.96c0.39-0.37,0.48-0.5,0.51-0.57
	c0.01-0.02-0.03,0-0.06,0.01c-0.1,0.04-0.2,0.07-0.3,0.08c-0.06-0.02,0.07-0.2-0.17-0.06c0.02-0.11,0.05-0.22,0.09-0.32
	c0.04-0.11,0.23-0.34-0.06-0.16c-0.05,0.03-0.03,0-0.01-0.04c0.08-0.12,0.07-0.15-0.05-0.09c-0.06,0.03-0.06,0-0.03-0.04
	c0.1-0.17,0.02-0.19-0.02-0.24c-0.04-0.05-0.23,0.05-0.15-0.11c0.02-0.04-0.04-0.01-0.09,0.02c-0.27,0.14-0.26,0.02-0.19-0.14
	c0.13-0.33,0-0.41-0.54-0.13c-0.07,0.04-0.1,0.03,0-0.07c0.37-0.42,0.36-0.5,0.13-0.4c-0.19,0.09-0.24,0.06-0.12-0.13
	c0.06-0.09,0.05-0.12-0.11-0.02c-0.34,0.22-0.35,0.15,0.04-0.28c0.11-0.12,0.1-0.14-0.02-0.05c-0.4,0.28-0.46,0.26-0.26,0
	c0.06-0.07,0.07-0.12-0.01-0.07c-0.17,0.11-0.14,0.04-0.09-0.05c0.11-0.19,0.06-0.25-0.09-0.21c-0.17,0.06-0.33,0.12-0.49,0.2
	c-0.06,0.02-0.04-0.01,0.06-0.12c0.21-0.24,0.27-0.34,0.22-0.35c-0.07-0.01,0.06-0.21-0.19-0.06c-0.06,0.03,0-0.04,0.04-0.09
	c0.14-0.19,0.05-0.18-0.24,0.01c-0.15,0.1-0.18,0.09-0.12,0c0.06-0.09,0.15-0.2,0.18-0.27c0.02-0.05,0.06-0.1-0.04-0.04
	c-0.3,0.2-0.31,0.15-0.18-0.03c0.09-0.12,0.08-0.16-0.01-0.13c-0.12,0.04-0.17,0.02-0.11-0.1c0.06-0.12,0.03-0.16-0.17-0.04
	c-0.1,0.05-0.1,0.03-0.02-0.07c0.05-0.06,0.07-0.1,0.06-0.11c-0.09-0.11-0.19-0.22-0.29-0.31c-0.01-0.01-0.02-0.01-0.05,0
	c0.01-0.14,0.03-0.2,0.08-0.09c0.07,0.13,0.11,0.13,0.12,0c0.01-0.05,0.02-0.08,0.04-0.02c0.06,0.13,0.06,0.02,0.06-0.11
	c0-0.09,0.01-0.17,0-0.27c-0.01-0.1,0.02-0.12,0.05-0.03c0.03,0.07,0.06,0.13,0.09,0.23c0.13,0.38,0.21,0.46,0.24,0.3
	c0.01-0.06,0.03-0.12,0.07-0.02c0.09,0.21,0.12,0.11,0.15,0.02c0.05-0.15,0.09-0.3,0.2-0.14c0.03,0.04,0.03-0.05,0.05-0.06
	c0.06-0.16,0.1-0.33,0.11-0.5c0.01-0.05,0.02-0.12,0.05-0.04c0.15,0.35,0.21,0.24,0.28,0.2c0.04-0.02,0.08-0.01,0.09-0.17
	c0.01-0.16,0.04-0.22,0.13,0.04c0.03,0.07,0.05,0.15,0.09,0.22c0.15,0.3,0.15-0.17,0.29,0.14c0.04,0.08,0.05-0.02,0.05-0.13
	c0-0.18,0.02-0.25,0.08-0.16c0.04,0.07,0.06,0.03,0.07-0.07c0.01-0.06,0.04-0.03,0.06,0s0.07,0.15,0.08,0.13
	c0.04-0.04,0.11,0.05,0.19,0.21c0.04,0.08,0.07,0.1,0.07-0.03c0-0.4,0.07-0.47,0.18-0.29c0.09,0.14,0.16,0.18,0.17-0.07
	s0.08-0.22,0.18-0.03c0.1,0.19,0.14,0.12,0.17-0.05c0.03-0.21,0.09-0.28,0.21-0.05c0.11,0.21,0.18,0.24,0.19,0
	c0.01-0.17,0.04-0.29,0.12-0.04c0.11,0.3,0.15,0.26,0.15,0.06c0-0.06,0.02-0.09,0.05-0.02c0.19,0.5,0.24,0.27,0.28,0.12
	c0.01-0.03,0.03,0.01,0.03-0.04c0-0.23,0.06-0.12,0.13-0.03s0.08,0.02,0.13,0.03c0.06,0.01,0.1-0.1,0.18,0.05
	c0.08,0.15,0.14,0.16,0.17,0.04c0.05-0.22,0.14-0.23,0.24-0.22c0.1,0.02,0.24,0.22,0.28-0.12c0-0.03,0.01-0.02,0.02-0.01
	C39.64,74.39,39.56,73.73,39.5,73.13z M32.88,71.36c-0.01-0.01-0.01-0.01-0.02-0.02l0.06,0.01C32.93,71.43,32.9,71.4,32.88,71.36
	L32.88,71.36z M29.26,70.44h-0.02c0-0.02,0-0.05-0.01-0.07c0.02,0.01,0.02,0.02,0.04,0.03C29.35,70.44,29.31,70.45,29.26,70.44
	L29.26,70.44z M30.38,77.38c-0.01-0.02-0.02-0.05-0.03-0.08C30.44,77.25,30.44,77.28,30.38,77.38L30.38,77.38z M33.62,70.96
	c0.01,0,0.01,0,0.01-0.01c-0.01,0.08-0.02,0.16-0.02,0.25C33.52,71.07,33.42,70.95,33.62,70.96L33.62,70.96z M33.51,71.31
	c0.03,0.01,0.07,0.01,0.1,0.01c0.05,0.52-0.01,0.44-0.12,0.15c0.05-0.01,0.05-0.04,0-0.1C33.44,71.33,33.41,71.29,33.51,71.31
	L33.51,71.31z M32.79,71.34L32.79,71.34z M29.24,70.23c0-0.06,0-0.12,0.02-0.18l0,0C29.35,70.15,29.4,70.24,29.24,70.23z
	 M26.44,76.63c-0.01-0.12-0.01-0.19,0.01-0.19c0,0.01,0,0.02,0.01,0.02c0.01,0.01,0.01,0.01,0.02,0.02c0.02,0.03,0.03,0.07,0.04,0.1
	l0.01,0.04C26.5,76.63,26.46,76.63,26.44,76.63L26.44,76.63z M33.61,75.39l0.02-0.02c0.03,0.02,0.05,0.03,0.08,0.05
	C33.49,75.57,33.45,75.57,33.61,75.39L33.61,75.39z"/>
<path id="Path_14" d="M66.61,78.23c0-0.04,0.04-0.06,0.02-0.1c-0.1-0.18,0.03-0.25,0.15-0.33s0.11-0.2,0.16-0.3
	c0.07-0.14,0.05-0.32,0.22-0.42c0.15-0.07,0.22-0.25,0.17-0.41c-0.06-0.26-0.04-0.53,0.05-0.79c0.06-0.27,0.29-0.54,0.06-0.83
	c-0.01-0.02-0.01-0.05,0-0.07c0.11-0.21-0.38-0.38-0.82-0.51c-0.53-0.1-1.07-0.1-1.6-0.01c-0.4,0.09-0.9,0.14-0.69,0.27
	c0.02,0.01-0.01,0.03-0.03,0.04c-0.12,0.08-0.15,0.15-0.11,0.24s-0.12,0.16-0.16,0.24c-0.03,0.06-0.05,0.13,0.08,0.22
	c0.09,0.07,0.03,0.1-0.04,0.14c-0.06,0.03-0.12,0.07-0.16,0.13c-0.03,0.05-0.02,0.11-0.06,0.15s-0.02,0.1,0.13,0.21
	c0.15,0.11,0.18,0.17-0.02,0.16c-0.1-0.01-0.16,0.02-0.13,0.06c0.11,0.18-0.04,0.25-0.16,0.33c-0.2,0.15-0.04,0.55-0.24,0.55
	c-0.11,0-0.1,0.06,0.01,0.2c0.19,0.22,0.11,0.28-0.06,0.26c-0.16-0.01-0.3,0.1-0.31,0.26c0,0.03,0,0.07,0.01,0.1
	c0.04,0.13-0.01,0.18-0.1,0.2c-0.05,0.01-0.15-0.03-0.17,0.01c-0.03,0.06-0.01,0.17-0.03,0.24s-0.24-0.08-0.2,0.07
	c0.06,0.22-0.04,0.26-0.23,0.19s-0.24-0.01-0.26,0.12c-0.04,0.25-0.25,0.25-0.5,0.15c-0.03-0.01-0.07-0.04-0.07,0.01
	c0.03,0.23-0.12,0.15-0.13,0.33c-0.01,0.12-0.07,0.14-0.16,0.11c-0.22-0.06-0.41-0.08-0.55,0.07c-0.06,0.07-0.1,0.24-0.22,0.12
	c-0.11-0.09-0.14,0.05-0.16,0.3c-0.01,0.16-0.05,0.2-0.12,0.13c-0.24-0.22-0.42-0.31-0.58-0.09c-0.06,0.08-0.15,0.15-0.25,0.18
	c-0.03,0.02-0.08,0.03-0.11-0.04c-0.09-0.17-0.16-0.19-0.24-0.12s-0.15,0.03-0.22-0.1c-0.08-0.14-0.16-0.17-0.24-0.24
	c-0.05-0.04-0.09-0.04-0.15,0.11c-0.05,0.13-0.09,0.15-0.12,0.03c-0.11-0.42-0.27-0.26-0.49,0.02c-0.18,0.4-0.26,0.28-0.29-0.01
	c-0.01-0.07-0.03-0.14-0.05-0.2c-0.04-0.16-0.11-0.2-0.21-0.15c-0.13,0.06-0.28,0.11-0.33-0.08c-0.03-0.12-0.09-0.16-0.24,0
	c-0.05,0.05-0.07,0.01-0.08-0.03c-0.03-0.13-0.11-0.12-0.24-0.04c-0.1,0.07-0.16,0.05-0.16-0.06c-0.01-0.07-0.05-0.1-0.04-0.18
	c0.01-0.15-0.05-0.18-0.19-0.1c-0.11,0.06-0.13,0-0.16-0.06c-0.09-0.16-0.08-0.42-0.36-0.33c-0.03,0.01-0.03-0.03-0.05-0.04
	c-0.18-0.15-0.33-0.34-0.43-0.55c-0.01-0.03-0.04-0.06-0.13-0.02c-0.25,0.11-0.32,0.05-0.27-0.1c0.02-0.05,0.03-0.1,0-0.11
	c-0.22-0.05-0.16-0.31-0.25-0.45c-0.08-0.1-0.1-0.22-0.27-0.27c-0.06-0.02-0.08-0.06-0.03-0.13s0.04-0.11,0.01-0.15
	c-0.09-0.11-0.19-0.21-0.3-0.29c-0.08-0.05-0.09-0.12,0.08-0.25c0.11-0.09,0.22-0.17,0.12-0.19c-0.18-0.03-0.26-0.11-0.14-0.24
	c0.14-0.14-0.25-0.14-0.17-0.26c0.02-0.03,0-0.06,0.05-0.1c0.1-0.08,0.03-0.11-0.05-0.16c-0.12-0.06-0.27-0.13-0.27-0.22
	c-0.01-0.11-0.13-0.23,0.08-0.36c0.23-0.13,0.04-0.24,0.11-0.36c0.02-0.02,0.05-0.03,0.07-0.04c0.09-0.04,0.11-0.08,0.04-0.12
	c-0.2-0.12-0.16-0.25,0.03-0.35c0.09-0.04,0.1-0.08,0.01-0.14c-0.04-0.02-0.05-0.05-0.02-0.06c0.11-0.04,0.03-0.1-0.17-0.19
	c-0.15-0.06-0.19-0.12-0.09-0.14c0.33-0.07,0.32-0.2,0.14-0.39c-0.09-0.09-0.04-0.14,0.05-0.18c0.2-0.08,0.59-0.06,0.28-0.32
	c-0.04-0.03,0-0.05,0.01-0.06c0.08-0.12,0.13-0.26,0.13-0.41c0-0.04,0.05-0.05,0.08-0.08c0.1-0.06,0.21-0.11,0.32-0.15
	c-0.18-0.22,0.11-0.16,0.07-0.3c-0.02-0.07,0.15-0.02,0.11-0.1c-0.1-0.2,0.03-0.24,0.01-0.38c-0.01-0.1,0.03-0.19,0.09-0.26
	c0.07-0.14,0.22-0.22,0.38-0.21c0.03,0.01,0.04-0.02,0.03-0.06c-0.03-0.1,0.04-0.1,0.12-0.09c0.03,0.01,0.06-0.01,0.07-0.04
	c0.07-0.17,0.21-0.24,0.45-0.17c0.07,0.02,0.11,0,0.04-0.14c-0.13-0.32-0.05-0.37,0.12-0.26c0.1,0.06,0.2,0.13,0.2,0.04
	c0.01-0.2,0.12-0.25,0.29-0.16c0.02,0.01,0.03-0.01,0.04-0.01l0.42-0.2c0.05-0.02,0.11,0,0.12-0.09c0.04-0.23,0.18-0.21,0.33-0.13
	c0.05,0.04,0.11,0.05,0.16,0.03c0.15-0.07,0.34,0.11,0.45-0.11c0.03-0.05,0.07-0.01,0.11,0.04c0.07,0.1,0.12,0.06,0.15-0.1
	c0.04-0.2,0.11-0.27,0.19-0.13s0.16,0.1,0.24,0.09c0.12-0.01,0.23-0.04,0.35-0.05c0.12,0,0.24,0.03,0.35,0.09
	c0.07,0.04,0.14,0,0.22-0.15c0.04-0.08,0.08-0.07,0.11-0.01c0.05,0.09,0.1,0.17,0.15,0.26c0.02,0.03,0.04,0.08,0.08,0.05
	c0.23-0.21,0.36,0.07,0.59-0.04c0.09-0.05,0.14,0.07,0.25-0.02c0.04-0.03,0.07-0.03,0.08,0.03c0.02,0.25,0.27-0.05,0.23,0.34
	c-0.01,0.05,0.03,0.02,0.07,0c0.09-0.06,0.14-0.04,0.16,0.06s0.08,0.08,0.22-0.08c0.09-0.1,0.14-0.11,0.11,0.01
	c-0.05,0.22-0.01,0.26,0.14,0.14c0.2-0.16,0.32-0.15,0.24,0.13c-0.07,0.25-0.02,0.26,0.15,0.14c0.09-0.06,0.19-0.11,0.29-0.15
	c0.11-0.06,0.14-0.01,0.06,0.17s-0.12,0.3-0.05,0.29c0.22-0.04,0.21,0.2,0.29,0.31c0.04,0.05,0.06,0.15,0.18,0.12
	c0.14-0.03,0.11,0.11,0.26,0.08s0.07,0.15,0.05,0.26c-0.01,0.03,0,0.07,0.02,0.09c0.06,0.09,0.13,0.17,0.2,0.25
	c0.05,0.05,0.06,0.11,0.23,0.07c0.13-0.03,0.16,0.02,0.12,0.1c-0.06,0.12-0.07,0.2,0,0.25s0.04,0.15,0.11,0.21
	c0.04,0.04,0.03,0.09,0.04,0.14c0.05,0.2-0.06,0.43,0.29,0.51c0.06,0.01,0.03,0.07,0.02,0.1c-0.04,0.2-0.09,0.38,0.22,0.5
	c0.2,0.08,0.35,0.19,0.17,0.35c-0.06,0.05,0.01,0.09,0.01,0.13c-0.01,0.14,0.03,0.28-0.12,0.43c-0.12,0.11,0.14,0.19,0.61,0.27
	c0.24,0.04,0.48,0.05,0.72,0.02c0.35-0.03,0.69-0.08,1.03-0.12c0.4-0.05,0.51-0.15,0.55-0.25c0.01-0.03-0.02-0.06-0.04-0.1
	c-0.09-0.12-0.17-0.26-0.23-0.4c-0.04-0.14,0.09-0.32-0.13-0.43c0.04-0.18,0.07-0.35,0.11-0.54c0.04-0.16,0.21-0.37-0.07-0.45
	c-0.05-0.02-0.03-0.06-0.01-0.1c0.07-0.07,0.06-0.18-0.01-0.24c-0.02-0.02-0.04-0.03-0.07-0.04c-0.06-0.03-0.08-0.1-0.05-0.15
	c0,0,0,0,0,0c0.04-0.19,0-0.4-0.11-0.56c-0.08-0.16-0.29-0.26-0.26-0.47c0.01-0.05-0.06-0.07-0.11-0.09
	c-0.25-0.08-0.4-0.32-0.38-0.58c-0.01-0.24-0.11-0.47-0.28-0.63c-0.19-0.18-0.44-0.28-0.71-0.27c-0.08,0-0.12-0.03-0.08-0.14
	c0.18-0.42,0.05-0.61-0.23-0.62c-0.2,0.02-0.37-0.12-0.39-0.32c0-0.01,0-0.02,0-0.03c-0.02-0.12-0.09-0.17-0.24-0.12
	c-0.33,0.12-0.44,0.01-0.34-0.46c0.03-0.13-0.02-0.17-0.13-0.1c-0.34,0.22-0.48,0.15-0.51-0.15c-0.01-0.08-0.05-0.14-0.12-0.11
	c-0.16,0.08-0.22,0-0.27-0.11c-0.1-0.21-0.32-0.34-0.55-0.32c-0.21,0.03-0.42,0.09-0.61,0.17c-0.07,0.02-0.1-0.02-0.12-0.14
	c-0.03-0.26-0.12-0.37-0.25-0.38c-0.17-0.01-0.29-0.22-0.5-0.05c-0.05,0.04-0.08-0.04-0.11-0.09c-0.12-0.19-0.29-0.17-0.47,0.07
	c-0.1,0.12-0.16,0.12-0.23,0.03c-0.06-0.09-0.12-0.18-0.2-0.26c-0.05-0.04-0.11-0.09-0.16-0.01c-0.16,0.26-0.29,0.23-0.42,0.06
	c-0.1-0.11-0.2-0.14-0.3-0.07c-0.12,0.1-0.29,0.11-0.43,0.03c-0.13-0.09-0.31-0.06-0.4,0.07c-0.01,0.01-0.02,0.02-0.02,0.03
	c-0.06,0.09-0.12,0.09-0.19,0c-0.03-0.05-0.09-0.07-0.14-0.07c-0.42,0.06-0.84,0.15-1.24,0.28c-0.05,0.01-0.11,0.05-0.11,0.17
	c-0.01,0.27-0.07,0.33-0.23,0.18c-0.27-0.24-0.4-0.06-0.54,0.05s-0.24,0.34-0.52,0.21c-0.13-0.06-0.18,0.04-0.19,0.19
	s-0.09,0.19-0.23,0.13s-0.26-0.04-0.24,0.17c0.01,0.14-0.04,0.16-0.14,0.14c-0.1-0.02-0.2-0.04-0.31-0.05c-0.05,0-0.11,0-0.12,0.06
	c-0.02,0.23-0.15,0.32-0.17,0.53c-0.01,0.15-0.06,0.22-0.21,0.19c-0.17-0.06-0.35,0.03-0.41,0.19c0,0.01-0.01,0.01-0.01,0.02
	c-0.1,0.41-0.4,0.74-0.81,0.87c-0.06,0.02-0.11,0.05-0.14,0.1c-0.12,0.15-0.3,0.25-0.33,0.46c-0.02,0.13-0.09,0.24-0.21,0.31
	c-0.14,0.08-0.21,0.19-0.08,0.4c0.08,0.14,0.04,0.21-0.09,0.25s-0.24,0.08-0.23,0.18c0.01,0.23-0.14,0.44-0.37,0.5
	c-0.06,0.02-0.1,0.07-0.03,0.13c0.27,0.23,0.18,0.35,0.26,0.52c0.05,0.11,0,0.17-0.16,0.22c-0.32,0.09-0.34,0.28-0.16,0.49
	c0.04,0.05,0.11,0.11,0.14,0.15s0,0.08-0.08,0.08c-0.35,0.02-0.45,0.09-0.26,0.23c0.08,0.05-0.01,0.09-0.1,0.11
	c-0.15,0.04-0.19,0.11-0.09,0.19c0.11,0.07,0.17,0.21,0.15,0.34c0,0.11-0.18,0.21-0.2,0.32s0.14,0.22,0.22,0.33
	c0.02,0.03-0.04,0.07-0.04,0.1c-0.03,0.14,0.02,0.29,0.12,0.39c0.2,0.17,0.24,0.47,0.08,0.68c-0.05,0.12-0.09,0.23-0.12,0.36
	c-0.08,0.18,0.14,0.29,0.17,0.44c0.05,0.24,0.09,0.48,0.16,0.72c0.02,0.09,0.07,0.17,0.28,0.17c0.16,0,0.21,0.04,0.17,0.13
	c-0.04,0.09-0.07,0.18-0.07,0.27c-0.01,0.08-0.05,0.19,0.03,0.24c0.15,0.09,0.14,0.25,0.12,0.42c-0.01,0.08,0.02,0.15,0.15,0.14
	c0.16-0.01,0.23,0.04,0.17,0.16c-0.07,0.15,0.04,0.21,0.14,0.26c0.05,0.03,0.18,0.02,0.15,0.1c-0.11,0.24,0.28,0.15,0.17,0.4
	c-0.02,0.05,0.03,0.07,0.08,0.07c0.19,0,0.26,0.06,0.18,0.27c-0.02,0.05,0.01,0.08,0.03,0.1c0.12,0.15,0.24,0.3,0.37,0.43
	c0.1,0.11,0.23,0.18,0.25,0.37c0.01,0.05,0.03,0.11,0.1,0.09c0.2-0.06,0.25,0.04,0.33,0.12c0.12,0.13,0.29,0.2,0.46,0.22
	c0.12,0,0.23,0.07,0.27,0.18c0.07,0.16,0.12,0.38,0.4,0.21c0.07-0.04,0.09,0.02,0.12,0.06c0.25,0.25,0.54,0.41,0.8,0.68
	c0.09,0.11,0.25,0.14,0.37,0.06c0.13-0.07,0.24-0.09,0.3,0.04c0.04,0.12,0.17,0.18,0.28,0.14c0.01,0,0.01,0,0.02-0.01
	c0.05-0.02,0.1-0.03,0.13,0.03c0.05,0.12,0.14,0.06,0.23-0.01c0.07-0.05,0.14-0.1,0.2-0.15c0.07-0.07,0.12-0.06,0.15,0.03
	c0.03,0.07,0.06,0.14,0.08,0.21c0.09,0.32,0.25,0.41,0.43,0.33c0.07-0.03,0.15-0.06,0.2,0.02c0.11,0.19,0.26,0.14,0.39,0.08
	c0.22-0.09,0.42-0.19,0.64-0.04c0.05,0.04,0.11-0.04,0.17-0.04c0.19-0.04,0.36-0.24,0.53-0.38c0.05-0.04,0.1-0.09,0.15-0.03
	c0.24,0.25,0.45,0.14,0.66,0.09c0.1-0.03,0.22-0.03,0.29-0.17s0.16-0.2,0.31-0.03c0.05,0.05,0.1,0.1,0.16,0.13
	c0.3,0.18,0.43-0.23,0.74-0.09c0.08,0.04,0.12-0.06,0.15-0.15c0.04-0.15,0.11-0.23,0.23-0.21c0.09,0.02,0.15-0.04,0.19-0.14
	c0.03-0.06,0.09-0.06,0.15-0.06s0.15,0.06,0.19,0.03c0.13-0.07,0.29-0.08,0.43-0.03c0.09,0.02,0.15,0,0.16-0.11
	c0.03-0.36,0.18-0.5,0.45-0.51c0.2,0,0.36-0.08,0.38-0.31c-0.01-0.17,0.13-0.32,0.3-0.33c0.02,0,0.05,0,0.07,0.01
	c0.23,0,0.32-0.14,0.34-0.34c0.03-0.24,0.12-0.42,0.39-0.44c0.25-0.02,0.38-0.15,0.34-0.39c-0.02-0.17-0.02-0.32,0.2-0.29
	c0.27,0.02,0.32-0.1,0.26-0.29c-0.02-0.06-0.01-0.11,0.06-0.11C66.64,78.75,66.63,78.44,66.61,78.23z"/>
</svg>
