<svg id="edrbfltp1ai81" xmlns="http://www.w3.org/2000/svg" xmlns:xlink="http://www.w3.org/1999/xlink" viewBox="0 0 65 85" shape-rendering="geometricPrecision" text-rendering="geometricPrecision"><style><![CDATA[#edrbfltp1ai83_ts {animation: edrbfltp1ai83_ts__ts 2000ms linear infinite normal backwards}@keyframes edrbfltp1ai83_ts__ts { 0% {transform: translate(31.799999px,31.799999px) scale(0.500000,0.500000)} 25% {transform: translate(31.799999px,31.799999px) scale(0.750000,0.750000)} 50% {transform: translate(31.799999px,31.799999px) scale(0.500000,0.500000)} 100% {transform: translate(31.799999px,31.799999px) scale(0.500000,0.500000)} }#edrbfltp1ai84_tr {animation: edrbfltp1ai84_tr__tr 2000ms linear infinite normal backwards}@keyframes edrbfltp1ai84_tr__tr { 0% {transform: translate(19.499999px,64.900002px) rotate(0deg)} 15% {transform: translate(19.499999px,64.900002px) rotate(30.784212deg)} 30% {transform: translate(19.499999px,64.900002px) rotate(-0.864944deg)} 100% {transform: translate(19.499999px,64.900002px) rotate(-0.864944deg)} }]]></style><g id="edrbfltp1ai82" transform="matrix(1 0 0 1 4 -5)"><g id="edrbfltp1ai83_ts" transform="translate(31.799999,31.799999) scale(0.500000,0.500000)"><path id="edrbfltp1ai83" d="M42.300000,49.600000L34.600000,43.600000C34.200000,43.300000,33.600000,43.400000,33.400000,43.800000L28.200000,52C27.800000,52.700000,26.700000,52.400000,26.600000,51.700000L25.400000,42.100000C25.300000,41.600000,24.900000,41.300000,24.400000,41.400000L14.900000,43.600000C14.100000,43.800000,13.600000,42.900000,14,42.300000L20,34.600000C20.300000,34.200000,20.200000,33.600000,19.800000,33.400000L11.600000,28.200000C10.900000,27.800000,11.200000,26.700000,11.900000,26.600000L21.500000,25.400000C22,25.300000,22.300000,24.900000,22.200000,24.400000L20,14.900000C19.800000,14.100000,20.700000,13.600000,21.300000,14L29,20C29.400000,20.300000,30,20.200000,30.200000,19.800000L35.400000,11.600000C35.800000,10.900000,36.900000,11.200000,37,11.900000L38.200000,21.500000C38.300000,22,38.700000,22.300000,39.200000,22.200000L48.700000,20C49.500000,19.800000,50,20.700000,49.600000,21.300000L43.600000,29C43.300000,29.400000,43.400000,30,43.800000,30.200000L52,35.400000C52.700000,35.800000,52.400000,36.900000,51.700000,37L42.100000,38.200000C41.600000,38.300000,41.300000,38.700000,41.400000,39.200000L43.600000,48.700000C43.900000,49.500000,43,50.100000,42.300000,49.600000Z" transform="translate(-31.799999,-31.799999)" fill="rgb(0,0,0)" stroke="none" stroke-width="1"/></g></g><g id="edrbfltp1ai84_tr" transform="translate(19.499999,64.900002) rotate(0)"><g id="edrbfltp1ai84" transform="translate(-29.499999,-73.900002)"><line id="edrbfltp1ai85" x1="25.400000" y1="66.800000" x2="34.100000" y2="81.800000" fill="none" stroke="rgb(0,0,0)" stroke-width="3" stroke-linecap="round" stroke-miterlimit="10"/><line id="edrbfltp1ai86" x1="21.400000" y1="74.900000" x2="37.600000" y2="73" fill="none" stroke="rgb(0,0,0)" stroke-width="3" stroke-linecap="round" stroke-miterlimit="10"/><line id="edrbfltp1ai87" x1="33.100000" y1="66" x2="26" y2="81.800000" fill="none" stroke="rgb(0,0,0)" stroke-width="3" stroke-linecap="round" stroke-miterlimit="10" stroke-dashoffset="17.320000" stroke-dasharray="0"/></g></g></svg>