<svg id="Layer_1" data-name="Layer 1" xmlns="http://www.w3.org/2000/svg" viewBox="0 0 19.49 19.11"><defs><style>.cls-1{fill:#fff;}</style></defs><path id="Path_13" data-name="Path 13" class="cls-1" d="M21.21,10.74c-.1-.71-.24-1.41-.41-2.11-.15-.51-.32-1.16-.33-.86,0,0,0,0,0,0s-.13-.17-.16-.1-.12-.1-.18-.12-.08,0-.09.17,0,.08-.08,0a.33.33,0,0,0-.12-.14s-.06,0-.1,0-.06,0,0,.27,0,.31-.08.06-.08-.18-.08-.12c0,.22-.13.1-.21,0s-.23.34-.33.13-.08-.06-.06.17,0,.36-.11.16-.25-.2-.26,0-.05.17-.1.11-.08-.17-.1-.15a2.18,2.18,0,0,0-.06.22s-.12-.27-.12-.09-.07.23-.16,0-.14-.18-.17-.05-.17.13-.32-.15c0,0,0-.08,0,0,0,.28-.08.12-.09.33s0,.14-.1.07S17,8.3,17,8.44s0,.26-.13.09-.08,0-.06.35,0,.24-.06.13c-.17-.35-.29-.45-.34-.19a.82.82,0,0,1-.1.24s0,0-.07,0-.14-.25-.16-.15-.07.05-.14-.1a1.05,1.05,0,0,0-.2-.27c0-.05-.06,0,0,.17s0,.21-.05.08c-.12-.33-.18-.33-.21-.18l0-.06c0-.08-.21-.24-.35-.38s-.08-.08,0-.07c.38.08.31,0,.33-.11s0-.07-.09-.17-.16-.16.1-.08l.23,0c.33,0-.05-.22.28-.16.08,0,0,0-.08-.11s-.19-.16-.09-.16.06,0,0-.1,0,0,0,0,.16,0,.16,0,.11-.06.28,0,.12,0,0-.07c-.33-.24-.35-.33-.13-.32s.24,0,0-.18-.13-.19.08-.16.18,0,.05-.17-.18-.24.08-.2.3,0,.11-.16-.21-.2,0-.13.3,0,.14-.09-.07-.07,0,0c.52.13.36,0,.26-.16s0,0,0,0-.06-.12.05-.12.07-.06.1-.09,0-.14.15-.12.21,0,.13-.11-.11-.25,0-.32.32-.07.07-.3c0,0,0,0,0,0s-.43-.34-1-.63a20.13,20.13,0,0,0-1.95-.89c-.51-.18-1.13-.42-.89-.23,0,0,0,0,0,0s-.22,0-.17.08-.15,0-.21.08-.07.06.09.17,0,.08,0,.07a.41.41,0,0,0-.19,0s0,.06-.07.07,0,.07.2.19.26.18,0,.1-.19,0-.15,0,0,.16-.1.19.15.38-.08.34-.1,0,.1.15.28.22.07.18-.31.08-.12.23.11.14,0,.14-.18,0-.18,0,.12.13.14.18-.3-.06-.14.05.15.19-.07.15-.23,0-.14.11,0,.22-.3.17c0,0-.09,0,0,0,.23.16,0,.14.21.27s.09.12,0,.12c-.24,0-.37,0-.3.19S12.15,6,12,6s0,.09.25.26.19.14.08.12c-.38-.07-.53,0-.35.17a.61.61,0,0,1,.13.22s0,.05-.08,0-.28,0-.21,0,0,.09-.17.06a.91.91,0,0,0-.33,0c-.06,0-.06,0,.11.14s.17.13,0,.09c-.52-.14-.34,0,0,.3.51.29.37.28,0,.18l-.24-.05c-.15,0-.22,0-.2,0l-.12,0c-.14.08-.21.1-.14,0s.06-.16-.05-.1-.08,0,0,0,0-.06-.12,0l-.23.14c-.09.06-.11.05-.05,0l.16-.2c.27-.31.3-.41.14-.35s-.11,0-.05,0,0-.16,0-.13-.3.08-.21-.09-.06,0-.08,0A1.63,1.63,0,0,0,9.69,7s-.11,0-.06,0c.23-.31.1-.29,0-.33s-.05-.06-.19,0-.2.08,0-.12l.14-.18c.18-.27-.21,0,0-.31,0-.07,0,0-.14,0s-.22.11-.18,0,0-.06-.09,0,0,0,0,0,.09-.13.07-.14,0-.12.09-.26.05-.1-.06,0c-.34.21-.44.19-.33,0s.08-.22-.14-.1-.22,0-.11-.13,0-.18-.13-.11-.28.07-.14-.14.12-.27-.09-.16S8,5,8.19,4.84s.16-.26,0-.16-.09,0,0,0c.33-.42.12-.33,0-.29s0,0,0,0-.13,0-.09-.09,0-.08,0-.12-.13,0,0-.17.07-.19,0-.16-.27,0-.3-.08.07-.31-.23-.17c0,0,0,0,0,0s-.48.27-1,.63a19.68,19.68,0,0,0-1.6,1.43c-.37.39-.84.86-.58.72,0,0,0,0,0,0s-.09.2,0,.18,0,.15,0,.21,0,.08.19,0,.09,0,0,.06A.48.48,0,0,0,4.29,7s0,0,0,.09.06,0,.25-.11.27-.16.09,0-.12.15-.07.13c.2-.09.14,0,.12.16s.4,0,.27.2,0,.1.17,0,.31-.17.19,0,0,.31.15.2.17,0,.14,0-.1.15-.08.16.17-.06.22-.06-.17.24,0,.15.23-.06.1.12-.08.21,0,.16.19.07,0,.34c0,0,0,.08,0,0,.24-.15.14,0,.32-.1s.14,0,.1,0-.11.35,0,.34.24-.1.13.06.07.05.33-.13.21-.12.14,0c-.22.32-.25.47,0,.38a.69.69,0,0,1,.25,0s0,0,0,.08-.15.24,0,.21.08,0,0,.17A1,1,0,0,0,7,9.9c0,.06,0,.07.17,0s.18-.11.09,0c-.34.42-.11.32.26.11.47-.36.4-.23.17,0a1.43,1.43,0,0,0-.14.2c-.12.16-.11.22,0,.18h0c0,.21-.1.15-.19,0s-.08-.09-.1-.07-.22-.23-.26.06c0,.06,0,0-.07-.07s-.08-.09-.07.12,0,.34-.09.15-.11-.12-.15-.11-.24.16-.4,0-.08,0-.07.24,0,.12,0,.05A2.54,2.54,0,0,0,6,10.52s0-.08-.06,0c-.05.32-.21.06-.27.29s-.09,0-.1.15,0,.07,0,0c-.12-.28-.09.21-.25-.28,0-.07,0,0,0,0s0,.14-.09,0-.07,0-.05.23,0,.21,0,.06-.12-.29-.11,0,0,.41-.14,0-.13-.3-.12,0,0,.27,0,.41,0,.12-.1-.12-.13-.41-.14-.32c0,.25-.16,0-.24,0s-.1-.08-.11.07-.08,0-.09.2-.1-.06-.16-.15,0-.05-.06,0a.48.48,0,0,0-.17,0s-.07,0-.07.22,0,.18-.07.08-.12-.2-.15-.14-.09,0-.13,0-.06,0-.09,0-.27-.25-.3.16c0,.07,0,0-.06,0s-.24-.21-.27.16-.05.44-.17.18c0-.08,0,0-.07,0s-.15,0-.26-.16-.07.19,0,.81c0,.27.1.61.17.94s.21.9.31,1.36a2.14,2.14,0,0,0,.23.73s0,0,0,0,0-.26.1-.3.14.16.15-.12a1.36,1.36,0,0,1,.24.24c.07.09.18.37.17,0,0-.06,0,0,0,0s.1.14.11,0,0-.06.06,0,.16.11.23.1.09-.22.18-.07,0,0,0-.09c0-.31.12-.24.24-.09s.37.21.42-.41c0-.08,0-.1.07,0,.18.53.26.56.29.31s.08-.24.19,0,.08.1.08-.09c0-.41.06-.38.23.18,0,.15.07.16.06,0,0-.49,0-.53.15-.22,0,.08.07.12.06,0s0-.15.1-.05.19.18.24,0a4.34,4.34,0,0,0,.09-.52c0-.06,0,0,.08.11.1.3.16.4.2.36s.15.16.16-.13c0-.07,0,0,.06.08.1.22.14.13.12-.21,0-.19,0-.2.06-.1s.1.23.14.29.06.1.06,0c0-.36,0-.34.13-.14s.1.15.12.06.07-.15.15,0,.13.1.13-.12,0-.1.08,0,0,.12.07.11L8,14.61a.08.08,0,0,0,0,0c.21.17.11.2-.07.19s-.12,0-.12,0-.32,0-.1.24c.05,0,0,0-.1,0s-.12,0,.06.13.27.21.07.16-.16,0-.18.06,0,.29-.21.34,0,.07.15.2.08.08,0,.07a1.84,1.84,0,0,0-.33,0s-.1,0-.06,0c.23.22-.07.21.08.39s-.07.06.06.17,0,.06,0,0c-.3-.07.11.19-.37,0-.07,0,0,0,0,.05s.1.11,0,.1-.07,0,.16.17.17.12,0,.07-.31-.07-.1.07.32.26,0,.14-.32-.06-.08.08l.33.24c.11.08.08.1-.16,0s-.41-.13-.35-.07-.08.14-.14.2-.12,0,0,.13,0,.08.11.19-.11.05-.22,0a.1.1,0,0,0-.07,0,.49.49,0,0,0-.06.17s-.05.06.14.18.14.12,0,.1-.23,0-.2,0-.07.06,0,.12,0,0-.06.06-.36.07,0,.34c.05,0,0,0,0,0s-.31.08,0,.31.33.29,0,.25c-.09,0,0,0,0,.06S6,20,5.78,20s.11.17.66.47a9,9,0,0,0,.87.41l1.29.54a2.08,2.08,0,0,0,.73.23s0,0,0-.05-.18-.2-.19-.26.21,0,0-.19a1.91,1.91,0,0,1,.33-.06c.12,0,.41.07.12-.12-.05,0,0,0,0,0s.17,0,.06-.09,0-.06,0-.05.18-.07.21-.13-.13-.2,0-.19,0,0,0-.08c-.24-.2-.12-.24.06-.25.36,0,.39-.18-.09-.58-.06-.05-.07-.08.07,0,.53.17.61.12.42-.05s-.14-.2.08-.17.13,0,0-.12c-.34-.23-.28-.27.28-.08.15.05.17,0,0,0-.42-.26-.42-.32-.09-.24.09,0,.14,0,.06,0s-.09-.12,0-.11.26-.05.16-.17-.24-.26-.37-.38,0,0,.14,0c.3.09.42.1.41.05s.22,0,0-.2c0,0,0,0,.1,0,.23,0,.19,0-.1-.22s-.16-.13,0-.11l.32.06s.12,0,0-.05c-.3-.19-.25-.23,0-.18s.18,0,.12-.06-.08-.15,0-.15.16,0,0-.18-.07-.08.06,0,.12,0,.13,0a3.79,3.79,0,0,0,.18-.42s0-.05-.13-.12c-.3-.17-.32-.22-.07-.14.42.12.28,0,.26-.09s-.2-.24.13-.16c.15,0,.07,0-.06-.13s-.11-.12.05-.08.24,0,0-.11-.12-.11,0-.09l.31.05c.05,0,.1,0,.05,0s-.15-.19-.32-.33-.13-.13,0-.1c0,0,0,0,0,0h0l.17,0a.67.67,0,0,1-.06.12s0,0,0,0l.17.18s0,.07.1,0,.22,0,.14.13,0,.11,0,.12-.09.3.17.18c.05,0,0,0,0,.09s0,.11.14,0,.29-.17.17,0-.05.15,0,.18.25.11.21.32.05.06.24-.06.11-.05.06,0a3.08,3.08,0,0,0-.16.28s-.05.08,0,.07c.29-.13.15.14.38.07s0,.09.18,0,.07,0,0,0c-.19.24.22,0-.12.35,0,0,0,0,.05,0s.14,0,.08,0,0,.08.22-.08.18-.11.07,0-.19.25,0,.11.36-.19.11.09-.19.26,0,.1l.35-.21c.12-.07.12,0,0,.15s-.29.32-.21.29c.23-.1.09.12.11.2s0,.12.11.05.06.06.22,0,0,.11-.05.21,0,.06,0,.07l.12.12s0,.06.22-.06.16-.08.1,0-.12.2,0,.2,0,.09.08.09,0,.05,0,.08-.09.35.28.16c.06,0,0,0,0,.06s-.06.3.26.14.4-.19.24,0c-.05.07,0,0,0,.06s.1.1,0,.3.2,0,.69-.43c.21-.17.48-.4.72-.63l1-1a2.29,2.29,0,0,0,.51-.57s0,0-.06,0a1.11,1.11,0,0,1-.3.08c-.06,0,.07-.2-.17-.06a1.68,1.68,0,0,1,.09-.32c0-.11.23-.34-.06-.16,0,0,0,0,0,0s.07-.15-.05-.09-.06,0,0,0,0-.19,0-.24-.23.05-.15-.11,0,0-.09,0c-.27.14-.26,0-.19-.14.13-.33,0-.41-.54-.13-.07,0-.1,0,0-.07.37-.42.36-.5.13-.4s-.24.06-.12-.13.05-.12-.11,0c-.34.22-.35.15,0-.28.11-.12.1-.14,0-.05-.4.28-.46.26-.26,0,.06-.07.07-.12,0-.07s-.14,0-.09-.05.06-.25-.09-.21a4.19,4.19,0,0,0-.49.2c-.06,0,0,0,.06-.12s.27-.34.22-.35.06-.21-.19-.06c-.06,0,0,0,0-.09s.05-.18-.24,0-.18.09-.12,0a2.52,2.52,0,0,0,.18-.27s.06-.1,0,0c-.3.2-.31.15-.18,0s.08-.16,0-.13-.17,0-.11-.1,0-.16-.17,0-.1,0,0-.07.07-.1.06-.11a2.87,2.87,0,0,0-.29-.31h-.05c0-.14,0-.2.08-.09s.11.13.12,0,0-.08,0,0,.06,0,.06-.11a2.43,2.43,0,0,0,0-.27c0-.1,0-.12,0,0a1.85,1.85,0,0,1,.09.23c.13.38.21.46.24.3s0-.12.07,0,.12.11.15,0,.09-.3.2-.14,0-.05.05-.06a1.72,1.72,0,0,0,.11-.5c0-.05,0-.12.05,0,.15.35.21.24.28.2s.08,0,.09-.17,0-.22.13,0a2,2,0,0,0,.09.22c.15.3.15-.17.29.14,0,.08.05,0,.05-.13s0-.25.08-.16.06,0,.07-.07,0,0,.06,0,.07.15.08.13.11.05.19.21.07.1.07,0c0-.4.07-.47.18-.29s.16.18.17-.07.08-.22.18,0,.14.12.17,0,.09-.28.21-.05.18.24.19,0,0-.29.12,0,.15.26.15.06,0-.09,0,0c.19.5.24.27.28.12s0,0,0,0c0-.23.06-.12.13,0s.08,0,.13,0,.1-.1.18.05.14.16.17,0,.14-.23.24-.22.24.22.28-.12c0,0,0,0,0,0S21.27,11.34,21.21,10.74ZM14.59,9l0,0h.06c0,.08,0,0,0,0ZM11,8.05h0a.17.17,0,0,0,0-.07l0,0c.08,0,0,.05,0,0ZM12.09,15l0-.08c.09-.05.09,0,0,.08Zm3.24-6.42h0a2,2,0,0,0,0,.25c-.09-.13-.19-.25,0-.24Zm-.11.35h.1c0,.52,0,.44-.12.15.05,0,.05,0,0-.1s-.08-.08,0-.06ZM14.5,9ZM11,7.84a.55.55,0,0,1,0-.18h0C11.06,7.76,11.11,7.85,11,7.84Zm-2.8,6.4c0-.12,0-.19,0-.19s0,0,0,0l0,0a.42.42,0,0,1,0,.1v0ZM15.32,13l0,0,.08,0c-.22.15-.26.15-.1,0Z" transform="translate(-1.87 -2.5)"/></svg>