<?xml version="1.0" encoding="utf-8"?>
<!-- Generator: Adobe Illustrator 25.1.0, SVG Export Plug-In . SVG Version: 6.00 Build 0)  -->
<svg version="1.1" id="Layer_1" xmlns="http://www.w3.org/2000/svg" xmlns:xlink="http://www.w3.org/1999/xlink" x="0px" y="0px"
	 viewBox="0 0 41.88 84.12" style="enable-background:new 0 0 41.88 84.12;" xml:space="preserve">
<path id="Path_228" d="M33.5,34.08c0.26,0.15,0.43,0.11,0.31-0.33c-0.08-0.29-0.02-0.34,0.12-0.28c0.15,0.08,0.31,0.13,0.48,0.17
	c0.08,0.01,0.18,0.02,0.15-0.11c-0.09-0.48,0.04-0.74-0.08-1.22c-0.1-0.37-0.09-0.55,0.2-0.48c0.43,0.08,0.55-0.22,0.46-0.69
	c-0.2-1.19-0.27-2,0.41-2.68c0.09-0.1,0.14-0.22,0.16-0.35c0.07-0.42,0.28-0.86,0.18-1.32c-0.09-0.15-0.05-0.35,0.09-0.45
	c0.18-0.15,0.19-0.31-0.19-0.52c-0.25-0.14-0.22-0.24-0.02-0.33c0.2-0.09,0.38-0.18,0.3-0.3c-0.19-0.28-0.06-0.51,0.4-0.7
	c0.1-0.04,0.14-0.1-0.01-0.16c-0.65-0.24-0.54-0.41-0.74-0.61c-0.14-0.14-0.07-0.23,0.23-0.3c0.59-0.15,0.55-0.37,0.17-0.64
	c-0.1-0.06-0.2-0.12-0.29-0.2c-0.03-0.04,0-0.1,0.14-0.1c0.7-0.01,0.87-0.1,0.48-0.28c-0.16-0.07,0-0.11,0.19-0.14
	c0.3-0.04,0.35-0.12,0.15-0.22c-0.33-0.17-0.28-0.31-0.28-0.45c0-0.14,0.37-0.23,0.41-0.37s-0.28-0.31-0.4-0.46
	c-0.03-0.05,0.09-0.07,0.1-0.11c0.09-0.18,0.03-0.4-0.13-0.52c-0.4-0.34-0.31-0.62,0.09-0.87c0.14-0.11,0.28-0.24,0.4-0.37
	c0.22-0.17-0.1-0.4-0.06-0.6c0.05-0.31,0.12-0.61,0.22-0.9c0.04-0.11,0.01-0.22-0.36-0.37c-0.28-0.11-0.35-0.2-0.2-0.26
	c0.14-0.06,0.26-0.14,0.37-0.25c0.1-0.08,0.27-0.17,0.19-0.27c-0.16-0.21,0.01-0.36,0.22-0.52c0.1-0.07,0.13-0.15-0.1-0.26
	c-0.27-0.12-0.33-0.22-0.09-0.3c0.3-0.18,0.2-0.45,0.11-0.67c-0.05-0.13-0.26-0.27-0.11-0.37c0.5-0.36-0.19-0.62,0.31-1
	c0.1-0.08,0.06-0.17-0.02-0.22c-0.28-0.19-0.31-0.38,0.13-0.76c0.08-0.07,0.12-0.16,0.13-0.26c0.07-0.45,0.16-0.91,0.19-1.35
	c-0.01-0.39,0.08-0.77,0.26-1.11c0.07-0.14,0.11-0.28-0.03-0.27c-0.38,0.03-0.34-0.21-0.36-0.42c0.02-0.28-0.17-0.53-0.44-0.6
	c-0.18-0.06-0.26-0.14-0.2-0.39c0.08-0.35,0.23-0.78-0.3-0.46c-0.12,0.07-0.08-0.06-0.1-0.12c-0.23-0.57-0.58-1.08-1.02-1.51
	c-0.15-0.18-0.34-0.27-0.64-0.07c-0.25,0.17-0.42,0.26-0.45,0.06c-0.04-0.22-0.14-0.27-0.39-0.08c-0.09,0.07-0.17,0.13-0.18,0.01
	c-0.02-0.24-0.18-0.07-0.36,0.15c-0.13,0.16-0.26,0.3-0.4,0.49c-0.14,0.19-0.22,0.23-0.25,0.06c-0.02-0.13-0.04-0.25-0.06-0.42
	c-0.05-0.68-0.31-0.83-0.72-0.41c-0.15,0.15-0.3,0.28-0.4,0.16c-0.12-0.16-0.27-0.13-0.43-0.03c-0.14,0.11-0.26,0.23-0.38,0.37
	c-0.46,0.5-0.85,0.96-1.31,0.91c-0.12-0.01-0.22,0.2-0.33,0.28c-0.38,0.38-0.69,0.83-0.91,1.33c-0.07,0.13-0.15,0.28-0.28,0.21
	c-0.25-0.13-0.54-0.14-0.79-0.02c-0.09,0.03-0.17,0.08-0.24,0.14l-0.16,0.14c-0.16,0.07-0.26,0.23-0.25,0.4
	c0,0.29-0.08,0.4-0.4,0.12c-0.09-0.09-0.2-0.16-0.31-0.22c-0.5-0.26-0.43,0.48-0.94,0.2c-0.13-0.07-0.14,0.1-0.13,0.28
	C25.05,9.81,25,9.96,24.82,9.9c-0.14-0.04-0.19,0.05-0.22,0.21c-0.01,0.11-0.1,0.1-0.18,0.09c-0.08-0.01-0.24-0.14-0.28-0.09
	c-0.12,0.13-0.35,0.07-0.61-0.06c-0.14-0.07-0.22-0.06-0.2,0.15c0.06,0.65-0.14,0.86-0.54,0.73c-0.29-0.09-0.52-0.06-0.52,0.35
	c0,0.41-0.22,0.46-0.55,0.3c-0.34-0.17-0.46,0.01-0.52,0.33c-0.07,0.37-0.25,0.59-0.64,0.39c-0.36-0.18-0.58-0.14-0.6,0.28
	c-0.01,0.28-0.07,0.51-0.38,0.25c-0.38-0.32-0.49-0.21-0.49,0.13c0,0.1-0.04,0.17-0.14,0.09c-0.68-0.52-0.78-0.09-0.88,0.21
	c-0.02,0.05-0.09,0.02-0.08,0.11c0.03,0.36-0.18,0.28-0.39,0.23c-0.18-0.04-0.27,0.09-0.4,0.14c-0.18,0.08-0.29,0.3-0.57,0.18
	c-0.29-0.13-0.45-0.06-0.52,0.18c-0.1,0.34-0.37,0.6-0.71,0.69c-0.33,0.12-0.8,0.01-0.86,0.6c0,0.03-0.02,0.05-0.05,0.05
	c-0.01,0-0.01,0-0.02,0c-0.32-0.03,0,0.91,0.29,1.78c0.31,0.77,0.7,1.5,1.16,2.19l-0.02,0.01l0,0l0,0l-0.02-0.03
	c-0.12-0.21-0.25-0.44-0.38-0.65c-0.39-0.58-0.87-1.1-1.43-1.52c-0.4-0.41-1.05-0.42-1.46-0.02c-0.03,0.03-0.06,0.06-0.08,0.09
	c-0.1,0.14-0.16,0.3-0.18,0.47c-0.12,0.67-0.1,1.36,0.06,2.02c0.03,0.34,0.09,0.68,0.18,1.02c0.1,0.35,0.35,0.64,0.69,0.78
	c0.09,0.17,0.2,0.33,0.33,0.48l0.19,0.22l0.04,0.09c0.05,0.12,0.1,0.25,0.13,0.38c0.06,0.24-0.05,0.7,0.41,0.42
	c0.08-0.05,0.09,0.03,0.08,0.1c-0.03,0.24,0.06,0.33,0.28,0.24c0.11-0.04,0.16,0.02,0.16,0.13c0.02,0.37,0.26,0.44,0.45,0.59
	c0.18,0.14,0.54,0.02,0.57,0.36c0.01,0.08,0.12,0.04,0.2,0c0.5-0.18,0.66,0.1,0.75,0.47c0.18,0.72,0.67,1.01,1.65,0.63
	c0.13-0.05,0.2-0.03,0.12,0.18c-0.29,0.81-0.12,1.02,0.3,0.89c0.36-0.11,0.55,0.01,0.54,0.4c-0.01,0.2,0.08,0.27,0.33,0.11
	c0.55-0.34,0.69-0.16,0.35,0.67c-0.09,0.23-0.04,0.29,0.14,0.14c0.6-0.46,0.8-0.36,0.68,0.16c-0.03,0.15,0,0.25,0.13,0.17
	c0.28-0.17,0.31-0.02,0.33,0.18c-0.03,0.28,0.17,0.53,0.45,0.56c0.04,0,0.08,0,0.12,0c0.33-0.04,0.65-0.1,0.97-0.2
	c0.11-0.02,0.13,0.06,0.05,0.27c-0.17,0.46-0.15,0.68,0,0.74c0.2,0.07,0.17,0.47,0.59,0.25c0.1-0.05,0.07,0.09,0.05,0.2
	c-0.05,0.39,0.18,0.42,0.62,0.12c0.24-0.16,0.32-0.12,0.31,0.06c-0.03,0.18-0.05,0.36-0.05,0.55c0.01,0.1,0.02,0.22,0.16,0.12
	c0.48-0.31,0.5-0.23,0.64,0.26c0.02,0.27,0.23,0.48,0.5,0.52c0.36,0.03,0.67,0.26,0.82,0.58c0.2,0.37,0.51,0.61,0.85,0.45
	c0.16-0.08,0.26,0.02,0.35,0.32c0.03,0.15,0.11,0.28,0.21,0.39c0.66,0.57,1.46,0.95,2.32,1.11c0.09,0.01,0.19,0.01,0.21-0.24
	c0.03-0.58,0.12-0.61,0.35-0.16c0.41,0.75,0.55,0.43,0.81,0.34c0.27-0.12,0.48-0.49,0.99-0.17c0.24,0.15,0.35-0.07,0.37-0.36
	C33.13,34.01,33.26,33.95,33.5,34.08z M15.91,19.49l-0.01-0.01L15.91,19.49z M29.77,27.09c-0.17-0.25-0.36-0.56-0.24-0.34
	c0.26,0.51,0.17,0.52-0.08,0.04c-0.03-0.06-0.02-0.02-0.02-0.02c-0.04,0.01-0.08,0.01-0.12,0c-0.01,0-0.05-0.12,0,0.1
	c0.11,0.57-0.01,0.33-0.09-0.04c-0.04-0.15-0.05-0.23-0.06-0.21c-0.04,0.05-0.06-0.54-0.1-0.06c-0.01,0.1-0.02-0.01-0.01-0.15
	c0.01-0.26,0.01-0.19-0.05,0.15c-0.08,0.42-0.16,0.5-0.1,0.18c0.05-0.33,0.02-0.24,0-0.25c-0.02-0.01-0.08,0-0.11-0.01
	c-0.02-0.01-0.03-0.03-0.04-0.05c-0.08-0.09-0.15-0.19-0.2-0.3c-0.07-0.14-0.22-0.17-0.53,0.01c-0.15,0.09-0.21,0.05-0.2-0.08
	c0.01-0.2,0-0.39-0.02-0.59c-0.01-0.08-0.01-0.18-0.09-0.16c-0.57,0.14-0.62-0.42-1.12-0.39c-0.19,0.02-0.21-0.23-0.48-0.12
	c-0.1,0.04-0.15,0.01-0.13-0.1c0.1-0.49-0.53-0.04-0.24-0.77c0.04-0.1-0.06-0.06-0.13-0.03c-0.2,0.08-0.3,0.03-0.29-0.17
	c0.01-0.2-0.14-0.19-0.45,0.07c-0.2,0.16-0.29,0.17-0.21-0.06c0.17-0.42,0.09-0.5-0.23-0.29c-0.42,0.29-0.65,0.26-0.44-0.29
	c0.19-0.49,0.08-0.53-0.28-0.28c-0.18,0.12-0.38,0.22-0.58,0.31c-0.21,0.12-0.26,0.02-0.1-0.33c0.15-0.34,0.24-0.62,0.09-0.58
	c-0.44,0.12-0.44-0.34-0.63-0.56c-0.09-0.11-0.15-0.28-0.38-0.19c-0.27,0.11-0.25-0.18-0.53-0.06c-0.29,0.13-0.17-0.28-0.21-0.48
	c-0.01-0.06-0.04-0.12-0.09-0.16c-0.17-0.13-0.34-0.25-0.52-0.36c-0.11-0.06-0.19-0.17-0.48,0.02c-0.23,0.15-0.31,0.09-0.29-0.09
	c0.01-0.09,0.01-0.19-0.01-0.28c0.07-0.05,0.08-0.2,0.01-0.47c-0.08-0.35-0.05-0.5,0.24-0.22c0.15,0.14,0.26,0.18,0.28,0.08
	c0.06-0.4,0.38-0.34,0.66-0.35c0.53-0.02,0.66-0.88,1.01-0.68c0.2,0.11,0.25-0.01,0.17-0.36c-0.13-0.55,0.02-0.6,0.32-0.42
	c0.25,0.15,0.58,0.08,0.73-0.17c0.05-0.08,0.07-0.17,0.08-0.26c0-0.27,0.13-0.34,0.3-0.31c0.1,0.01,0.28,0.15,0.34,0.09
	c0.09-0.09,0.09-0.33,0.17-0.45c0.07-0.12,0.43,0.26,0.4-0.05c-0.03-0.45,0.18-0.47,0.51-0.28c0.3,0.17,0.46,0.08,0.53-0.16
	c0.13-0.45,0.51-0.46,1.02-0.23c0.06,0.03,0.14,0.07,0.13-0.01c-0.05-0.44,0.24-0.31,0.24-0.66c0-0.25,0.12-0.28,0.29-0.24
	c0.46,0.11,0.84,0.06,1.05-0.27c0.1-0.16,0.1-0.47,0.38-0.32c0.24,0.13,0.25-0.18,0.14-0.66c-0.07-0.31-0.02-0.39,0.16-0.3
	c0.21,0.14,0.46,0.21,0.71,0.21c0.09-0.01,0.17-0.05,0.23-0.11c0.07-0.07,0.01-0.1,0-0.2c-0.03-0.12-0.03-0.25,0.01-0.37
	c0.01-0.04,0.03-0.08,0.08,0.05c0.13,0.31,0.16,0.38,0.17,0.21c0.01-0.15,0.06-0.1,0.1,0.16c0.03,0.16,0.05,0.32,0.06,0.49
	c0,0.09,0,0.08,0.04-0.29l0.02-0.18c0.03-0.16,0.04-0.16,0.02,0.04C30.5,14.4,30.49,14,30.81,13.1c0.39-1.23,0.42-1.02,0.17-0.25
	l-0.17,0.51c-0.15,0.42-0.19,0.51-0.06,0.24c0.16-0.34,0.37-0.66,0.13-0.16c-0.17,0.35-0.2,0.38,0.24-0.3c0.14-0.2,0.1-0.11,0.03,0
	c-0.19,0.34-0.1,0.21,0.21-0.16c0.24-0.28,0.27-0.27,0.1-0.02c-0.13,0.18-0.13,0.2-0.3,0.41c-0.31,0.38-0.29,0.35,0.02,0.03
	c0.25-0.25,0.14-0.1,0.07-0.03c-0.17,0.25-0.66,0.66-0.12,0.26c0.06-0.05,0.01,0.01,0,0.02c-0.03,0.13-0.11,0.24-0.23,0.31
	c-0.03,0.02-0.01,0.02,0.18-0.05c0.55-0.19,0.55-0.11,0.28,0c-0.09,0.04-0.17,0.07-0.13,0.07c0.29,0.02-0.16,0.16-0.13,0.19
	c0.01,0.04,0,0,0,0.1c0,0.14,0.04,0.27,0.13,0.37c0.07,0.09,0.07,0.17-0.09,0.24c-0.15,0.07-0.18,0.15-0.17,0.23
	c0.02,0.27,0.09,0.54,0.21,0.79c0.09,0.16,0.04,0.28-0.37,0.36c-0.27,0.05-0.54,0.12-0.38,0.24c0.28,0.22,0.38,0.41,0.07,0.55
	c-0.36,0.16,0.36,0.43,0.13,0.6c-0.06,0.05-0.05,0.11-0.16,0.15c-0.22,0.09-0.11,0.21,0.02,0.33c0.19,0.19,0.45,0.39,0.41,0.55
	c-0.05,0.22,0.16,0.47-0.3,0.64c-0.49,0.17-0.17,0.46-0.34,0.67c-0.04,0.03-0.09,0.05-0.15,0.06c-0.19,0.06-0.22,0.14-0.09,0.24
	c0.37,0.28,0.28,0.51-0.12,0.7c-0.17,0.08-0.19,0.17,0,0.29c0.07,0.05,0.11,0.1,0.04,0.13c-0.22,0.09-0.06,0.22,0.34,0.36
	c0.31,0.11,0.4,0.21,0.18,0.26c-0.66,0.18-0.59,0.46-0.18,0.77c0.2,0.15,0.12,0.26-0.06,0.37c-0.36,0.21-1.11,0.38-0.39,0.73
	c0.09,0.05,0.02,0.09,0,0.12c-0.1,0.27-0.1,0.57,0.01,0.85c0.02,0.07-0.06,0.13-0.11,0.19c-0.15,0.17-0.31,0.35-0.47,0.53
	c0.26,0.13,0.24,0.22,0.18,0.31c-0.03,0.04-0.06,0.08-0.09,0.11c-0.02,0-0.01,0.01,0.04,0.02c0.1,0.03-0.22-0.03-0.06,0.01
	c0.38,0.12,0.24,0.12,0.42,0.23c0.14,0.1,0.16,0.16,0.17,0.21c0.02,0.08,0.04,0.2-0.28-0.01c-0.05-0.03-0.02,0,0.05,0.06
	c0.17,0.17,0.08,0.12-0.03,0.03c-0.06-0.05-0.06-0.03-0.04,0c0.13,0.19,0.05,0.22-0.29-0.2c-0.1-0.12-0.11-0.15,0.15,0.24
	C30.1,27.47,30.08,27.54,29.77,27.09L29.77,27.09z"/>
<path id="Path_229" d="M23.41,68.07c-0.1-0.71-0.24-1.41-0.41-2.1c-0.15-0.51-0.32-1.16-0.33-0.86c0,0.03-0.02-0.01-0.03-0.03
	c-0.08-0.14-0.13-0.18-0.16-0.1c-0.04,0.07-0.12-0.1-0.18-0.12s-0.08-0.02-0.09,0.17c0,0.14-0.04,0.08-0.08,0.01
	c-0.03-0.06-0.07-0.11-0.12-0.14c-0.04-0.02-0.06,0.02-0.1-0.01c-0.04-0.03-0.06,0.04-0.04,0.27s0,0.31-0.08,0.06
	c-0.04-0.12-0.08-0.18-0.08-0.12c-0.03,0.22-0.13,0.1-0.21,0.03c-0.16-0.14-0.23,0.34-0.33,0.13c-0.06-0.12-0.08-0.07-0.06,0.17
	c0.02,0.36-0.02,0.35-0.11,0.16c-0.1-0.23-0.25-0.2-0.26,0.03c-0.01,0.16-0.05,0.17-0.1,0.1c-0.03-0.04-0.08-0.17-0.1-0.15
	c-0.02,0.02-0.04,0.17-0.06,0.22c-0.03,0.05-0.12-0.27-0.12-0.09c0,0.28-0.07,0.23-0.16,0.03c-0.1-0.2-0.14-0.18-0.17-0.05
	c-0.05,0.23-0.17,0.13-0.32-0.15c-0.02-0.03-0.04-0.08-0.04-0.03c0,0.28-0.08,0.12-0.09,0.33c-0.01,0.15-0.04,0.14-0.1,0.07
	c-0.14-0.19-0.26-0.27-0.33-0.13c-0.04,0.07-0.04,0.26-0.13,0.09c-0.07-0.14-0.08,0.04-0.06,0.35c0.01,0.2,0,0.24-0.06,0.13
	c-0.17-0.35-0.29-0.45-0.34-0.19c-0.02,0.08-0.05,0.16-0.1,0.24c-0.02,0.02-0.03,0.05-0.07-0.04c-0.09-0.22-0.14-0.25-0.16-0.15
	c-0.02,0.09-0.07,0.05-0.14-0.1c-0.05-0.1-0.12-0.19-0.2-0.27c-0.04-0.05-0.06-0.03-0.05,0.17c0.01,0.17,0,0.21-0.05,0.08
	c-0.12-0.33-0.18-0.33-0.21-0.18c-0.01-0.02-0.04-0.05-0.04-0.06c-0.01-0.08-0.21-0.25-0.35-0.38c-0.04-0.04-0.08-0.08,0-0.06
	c0.38,0.08,0.31-0.03,0.33-0.11c0.01-0.04,0.03-0.07-0.09-0.17s-0.16-0.16,0.1-0.08c0.07,0.02,0.15,0.04,0.23,0.05
	c0.33,0.05-0.05-0.22,0.28-0.16c0.08,0.01,0.01-0.05-0.08-0.12c-0.14-0.1-0.19-0.16-0.09-0.16c0.08,0,0.06-0.04-0.02-0.1
	c-0.05-0.04,0-0.04,0.03-0.05C17.88,64.47,18,64.5,18,64.48c-0.01-0.06,0.11-0.06,0.28-0.03c0.09,0.01,0.12,0,0.02-0.07
	c-0.33-0.24-0.35-0.33-0.13-0.32c0.16,0.01,0.24-0.02,0.05-0.18s-0.13-0.19,0.08-0.16s0.18-0.05,0.05-0.17
	c-0.15-0.15-0.18-0.24,0.08-0.2c0.23,0.03,0.3,0,0.11-0.16c-0.13-0.11-0.21-0.2,0.04-0.13c0.3,0.08,0.3,0.04,0.14-0.09
	c-0.05-0.04-0.07-0.07,0.01-0.05c0.52,0.13,0.36-0.04,0.26-0.16c-0.02-0.02,0.03-0.01-0.02-0.05c-0.18-0.13-0.06-0.12,0.05-0.12
	s0.07-0.06,0.1-0.09s-0.03-0.14,0.15-0.12s0.21-0.02,0.13-0.11c-0.15-0.17-0.11-0.25-0.04-0.32s0.32-0.07,0.07-0.3
	c-0.02-0.02-0.01-0.02,0-0.03c0.15-0.02-0.43-0.34-0.96-0.63c-0.63-0.33-1.29-0.63-1.95-0.89c-0.51-0.18-1.13-0.42-0.89-0.23
	c0.02,0.02-0.02,0.01-0.04,0.01c-0.16-0.02-0.22,0-0.17,0.08s-0.15,0.04-0.21,0.08s-0.07,0.06,0.09,0.17
	c0.11,0.08,0.04,0.08-0.04,0.07c-0.06-0.01-0.13,0-0.19,0.02c-0.04,0.02-0.02,0.06-0.07,0.07s0,0.07,0.2,0.19s0.26,0.18,0.01,0.1
	c-0.12-0.04-0.19-0.04-0.15,0c0.16,0.15,0.01,0.16-0.1,0.19c-0.21,0.05,0.15,0.38-0.08,0.34c-0.13-0.02-0.1,0.03,0.1,0.15
	c0.31,0.19,0.28,0.22,0.07,0.18c-0.24-0.05-0.31,0.08-0.12,0.23c0.13,0.1,0.11,0.14,0.03,0.14c-0.05,0-0.18-0.03-0.18,0
	s0.12,0.13,0.14,0.18s-0.3-0.06-0.14,0.05c0.23,0.16,0.15,0.19-0.07,0.15s-0.23,0.01-0.14,0.11c0.16,0.18,0.01,0.22-0.3,0.17
	c-0.04,0-0.09-0.01-0.05,0.02c0.23,0.16,0.05,0.14,0.21,0.27c0.12,0.09,0.09,0.12,0,0.12c-0.24,0-0.37,0.05-0.3,0.19
	c0.03,0.07,0.18,0.18,0,0.15c-0.16-0.03-0.02,0.09,0.25,0.26c0.17,0.11,0.19,0.14,0.08,0.12c-0.38-0.07-0.53-0.03-0.35,0.17
	c0.06,0.06,0.1,0.14,0.13,0.22c0.01,0.03,0.02,0.05-0.08,0.03c-0.23-0.06-0.28-0.04-0.21,0.04c0.07,0.08,0,0.09-0.17,0.06
	c-0.11-0.02-0.22-0.02-0.33,0c-0.06,0-0.06,0.03,0.11,0.14c0.15,0.09,0.17,0.13,0.03,0.09c-0.52-0.14-0.34,0.04,0,0.3
	c0.51,0.29,0.37,0.28,0.02,0.18c-0.08-0.02-0.16-0.04-0.24-0.05c-0.15-0.03-0.22-0.02-0.2,0.03c-0.04,0.01-0.09,0.03-0.12,0.05
	c-0.14,0.08-0.21,0.1-0.14-0.01s0.06-0.16-0.05-0.1c-0.04,0.02-0.08,0.03-0.04-0.03c0.09-0.11-0.01-0.06-0.12,0
	c-0.08,0.05-0.14,0.08-0.23,0.14s-0.11,0.05-0.05-0.03c0.05-0.06,0.09-0.12,0.16-0.2c0.27-0.31,0.3-0.41,0.14-0.35
	c-0.06,0.02-0.11,0.04-0.05-0.04c0.14-0.18,0.04-0.16-0.05-0.13c-0.15,0.04-0.3,0.08-0.21-0.09c0.02-0.04-0.06,0-0.08-0.01
	c-0.07-0.02-0.31,0.1-0.48,0.17c-0.05,0.02-0.11,0.05-0.06-0.02c0.23-0.31,0.1-0.29,0.04-0.33c-0.03-0.02-0.05-0.06-0.19,0.02
	s-0.2,0.09-0.03-0.12c0.05-0.06,0.1-0.12,0.14-0.18c0.18-0.27-0.21-0.03-0.02-0.31c0.05-0.07-0.04-0.03-0.14,0.03
	c-0.15,0.09-0.22,0.11-0.18,0.02c0.04-0.07-0.01-0.06-0.09-0.02c-0.06,0.03-0.04-0.01-0.03-0.05s0.09-0.13,0.07-0.14
	c-0.06-0.01-0.01-0.12,0.09-0.26c0.05-0.07,0.05-0.1-0.06-0.04c-0.34,0.21-0.44,0.19-0.33,0c0.08-0.14,0.08-0.22-0.14-0.1
	s-0.22,0.05-0.11-0.13s0.04-0.18-0.13-0.11c-0.19,0.08-0.28,0.07-0.14-0.14c0.13-0.19,0.12-0.27-0.09-0.16
	c-0.15,0.08-0.26,0.12-0.1-0.08c0.2-0.24,0.16-0.26-0.02-0.16c-0.05,0.03-0.09,0.03-0.04-0.03c0.33-0.42,0.12-0.33-0.03-0.29
	c-0.02,0.01,0-0.03-0.05,0c-0.19,0.12-0.13,0.01-0.09-0.09s-0.02-0.08-0.04-0.12s-0.13-0.03-0.04-0.17s0.07-0.19-0.04-0.16
	c-0.21,0.07-0.27,0.01-0.3-0.08s0.07-0.31-0.23-0.17c-0.02,0.01-0.03,0-0.02-0.01c0.05-0.14-0.48,0.27-0.96,0.63
	c-0.56,0.45-1.09,0.92-1.6,1.43c-0.37,0.39-0.84,0.86-0.58,0.72c0.03-0.01,0,0.02-0.01,0.04c-0.09,0.14-0.09,0.2-0.01,0.18
	s-0.03,0.15-0.02,0.21c0.01,0.06,0.02,0.08,0.19-0.02c0.12-0.07,0.09-0.01,0.05,0.06c-0.03,0.05-0.05,0.11-0.06,0.17
	c0,0.04,0.05,0.04,0.04,0.09c-0.01,0.05,0.06,0.03,0.25-0.11c0.19-0.13,0.27-0.16,0.09,0.03c-0.09,0.1-0.12,0.15-0.07,0.13
	c0.2-0.09,0.14,0.05,0.12,0.16c-0.04,0.2,0.4,0.01,0.27,0.2c-0.08,0.11-0.02,0.1,0.17-0.04c0.3-0.21,0.31-0.17,0.19,0.01
	c-0.15,0.2-0.05,0.31,0.15,0.2c0.14-0.08,0.17-0.05,0.14,0.03c-0.02,0.04-0.1,0.15-0.08,0.16c0.02,0.01,0.17-0.06,0.22-0.06
	s-0.17,0.24-0.02,0.15c0.24-0.14,0.23-0.06,0.1,0.12c-0.13,0.18-0.08,0.21,0.04,0.16c0.22-0.08,0.19,0.07,0.02,0.34
	C8.03,65.91,8,65.95,8.05,65.92c0.24-0.15,0.14,0.01,0.32-0.1c0.13-0.07,0.14-0.03,0.1,0.04c-0.1,0.21-0.11,0.35,0.05,0.34
	c0.07-0.01,0.24-0.1,0.13,0.06c-0.09,0.13,0.07,0.05,0.33-0.13c0.17-0.12,0.21-0.12,0.14-0.02c-0.22,0.32-0.25,0.47,0,0.38
	c0.08-0.03,0.16-0.04,0.25-0.04c0.03,0,0.05,0-0.01,0.08c-0.14,0.18-0.15,0.24-0.05,0.21c0.1-0.03,0.08,0.03-0.02,0.17
	c-0.06,0.09-0.11,0.19-0.14,0.3c-0.02,0.06,0,0.07,0.17-0.04c0.14-0.1,0.18-0.11,0.09,0.01c-0.34,0.42-0.11,0.32,0.26,0.11
	c0.47-0.36,0.4-0.23,0.17,0.05c-0.05,0.06-0.1,0.13-0.14,0.2c-0.12,0.16-0.11,0.22,0,0.18h0.01c-0.02,0.21-0.1,0.15-0.19,0.01
	c-0.04-0.06-0.08-0.09-0.1-0.07c-0.08,0.06-0.22-0.23-0.26,0.06c-0.01,0.06-0.04,0.01-0.07-0.06c-0.06-0.13-0.08-0.09-0.07,0.12
	c0.01,0.26-0.01,0.34-0.09,0.15c-0.08-0.18-0.11-0.12-0.15-0.11c-0.13,0.03-0.24,0.16-0.4,0.02c-0.05-0.04-0.08,0.01-0.07,0.24
	c0,0.11-0.02,0.11-0.05,0.05c-0.05-0.1-0.1-0.19-0.16-0.28c-0.02-0.04-0.05-0.08-0.06-0.04c-0.05,0.32-0.21,0.06-0.27,0.29
	c-0.02,0.09-0.09-0.02-0.1,0.15c0,0.06-0.02,0.07-0.05,0.01c-0.12-0.29-0.09,0.21-0.25-0.28c-0.02-0.07-0.02,0-0.03,0.04
	c-0.01,0.13-0.04,0.14-0.09,0.04C7.2,67.93,7.18,68,7.2,68.27c0.02,0.17,0,0.21-0.05,0.06c-0.09-0.28-0.12-0.29-0.11-0.04
	c0.01,0.33-0.03,0.41-0.14,0.05c-0.11-0.33-0.13-0.3-0.12-0.02c0.01,0.18,0,0.27,0,0.41s-0.03,0.12-0.1-0.12
	c-0.07-0.24-0.13-0.41-0.14-0.32c-0.03,0.25-0.16,0.02-0.24,0c-0.04-0.01-0.1-0.08-0.11,0.07c-0.01,0.17-0.08,0.03-0.09,0.2
	c-0.01,0.18-0.1-0.06-0.16-0.15c-0.02-0.03-0.04-0.05-0.06-0.04c-0.06,0.01-0.12,0.02-0.17,0.05c-0.03,0.02-0.07,0-0.07,0.22
	c0.01,0.17-0.02,0.18-0.07,0.08c-0.07-0.14-0.12-0.2-0.15-0.14c-0.03,0.06-0.09-0.02-0.13,0.03c-0.02,0.03-0.06,0-0.09-0.01
	c-0.12-0.05-0.27-0.25-0.3,0.16c0,0.07-0.04,0.01-0.06-0.01c-0.12-0.12-0.24-0.21-0.27,0.16c-0.02,0.24-0.05,0.44-0.17,0.18
	c-0.04-0.08-0.05,0.01-0.07,0c-0.08-0.04-0.15,0.03-0.26-0.16c-0.09-0.16-0.07,0.19,0.01,0.81c0.04,0.27,0.1,0.61,0.17,0.94
	c0.1,0.46,0.21,0.9,0.31,1.36c0.03,0.25,0.11,0.5,0.23,0.73c0.02,0.02,0.02-0.03,0.03-0.05c0.03-0.1,0.05-0.26,0.1-0.3
	c0.05-0.04,0.14,0.16,0.15-0.11c0.09,0.07,0.17,0.15,0.24,0.24c0.07,0.09,0.18,0.37,0.17,0.03c0-0.06,0.02-0.03,0.04,0.02
	c0.06,0.13,0.1,0.14,0.11,0c0.01-0.07,0.03-0.06,0.06-0.01c0.1,0.17,0.16,0.11,0.23,0.1c0.07-0.01,0.09-0.22,0.18-0.07
	c0.02,0.04,0.03-0.03,0.03-0.09c0.02-0.31,0.12-0.24,0.24-0.09c0.22,0.28,0.37,0.21,0.42-0.41c0.01-0.08,0.02-0.1,0.07,0.04
	c0.18,0.53,0.26,0.56,0.29,0.31c0.02-0.21,0.08-0.24,0.19-0.04c0.05,0.1,0.08,0.1,0.08-0.09c-0.01-0.41,0.06-0.38,0.23,0.18
	c0.05,0.15,0.07,0.16,0.06,0.01c-0.04-0.49,0.02-0.53,0.15-0.22c0.03,0.08,0.07,0.12,0.06,0.03c0-0.21,0.04-0.15,0.1-0.05
	c0.11,0.19,0.19,0.18,0.24,0.03c0.04-0.17,0.07-0.34,0.09-0.52c0.01-0.06,0.04-0.03,0.08,0.11c0.1,0.3,0.16,0.4,0.2,0.37
	c0.04-0.04,0.15,0.16,0.16-0.13c0-0.07,0.04,0.02,0.06,0.08c0.1,0.22,0.14,0.13,0.12-0.21c-0.01-0.19,0.02-0.2,0.06-0.1
	c0.05,0.1,0.1,0.23,0.14,0.29c0.03,0.05,0.06,0.1,0.06-0.01c-0.02-0.36,0.04-0.34,0.13-0.14c0.06,0.14,0.1,0.15,0.12,0.06
	c0.03-0.13,0.07-0.15,0.15-0.04s0.13,0.1,0.13-0.12c0-0.11,0.03-0.1,0.08,0.02c0.03,0.07,0.05,0.11,0.07,0.11
	c0.08-0.01,0.17-0.04,0.25-0.05c0.01,0.02,0.02,0.03,0.04,0.04c0.21,0.17,0.11,0.2-0.07,0.19c-0.07,0-0.12,0.01-0.12,0.04
	c0,0.1-0.32,0.05-0.1,0.24c0.05,0.04-0.01,0.04-0.1,0.02c-0.14-0.03-0.12,0.01,0.06,0.13c0.22,0.14,0.27,0.21,0.07,0.16
	c-0.2-0.04-0.16,0.02-0.18,0.06c-0.05,0.12-0.01,0.29-0.21,0.34c-0.06,0.01-0.04,0.07,0.15,0.2c0.09,0.06,0.08,0.08,0.01,0.07
	c-0.11-0.02-0.22-0.03-0.33-0.03c-0.04,0-0.1-0.01-0.06,0.02c0.23,0.22-0.07,0.21,0.08,0.39c0.06,0.07-0.07,0.06,0.06,0.17
	C9.47,73.98,9.48,74,9.4,73.99c-0.3-0.07,0.11,0.19-0.37,0.04C8.97,74,9.02,74.04,9.05,74.07c0.1,0.08,0.1,0.11-0.02,0.1
	s-0.07,0.04,0.16,0.17c0.14,0.08,0.17,0.12,0.02,0.07c-0.28-0.09-0.31-0.07-0.1,0.07c0.27,0.18,0.32,0.26-0.05,0.15
	c-0.33-0.1-0.32-0.07-0.08,0.08c0.15,0.1,0.22,0.16,0.33,0.24c0.11,0.08,0.08,0.1-0.16,0.01s-0.41-0.13-0.35-0.07
	c0.19,0.17-0.08,0.14-0.14,0.2c-0.03,0.03-0.12,0.04,0,0.13c0.14,0.11-0.03,0.08,0.11,0.19s-0.11,0.05-0.22,0.04
	c-0.04,0-0.06,0.01-0.07,0.02c-0.03,0.05-0.05,0.11-0.06,0.17c-0.01,0.04-0.05,0.06,0.14,0.18c0.15,0.1,0.14,0.12,0.03,0.1
	c-0.16-0.03-0.23-0.02-0.2,0.04s-0.07,0.06-0.05,0.12c0.01,0.04-0.03,0.05-0.06,0.06c-0.11,0.07-0.36,0.07-0.04,0.34
	c0.05,0.04-0.01,0.04-0.04,0.04c-0.17,0.03-0.31,0.08-0.03,0.32c0.18,0.15,0.33,0.29,0.05,0.24c-0.09-0.02-0.02,0.04-0.05,0.06
	C8.1,77.21,8.12,77.3,7.9,77.28c-0.18-0.02,0.11,0.17,0.66,0.47c0.24,0.13,0.55,0.28,0.87,0.41c0.44,0.18,0.86,0.36,1.29,0.53
	c0.23,0.12,0.47,0.2,0.73,0.23c0.02,0-0.01-0.03-0.03-0.05c-0.07-0.09-0.18-0.2-0.19-0.26s0.21-0.03-0.01-0.19
	c0.11-0.03,0.22-0.05,0.33-0.06c0.12-0.01,0.41,0.06,0.12-0.12c-0.05-0.03-0.01-0.03,0.04-0.02c0.14,0.03,0.17,0,0.06-0.09
	c-0.06-0.05-0.03-0.06,0.03-0.05c0.2,0.01,0.18-0.07,0.21-0.13c0.03-0.06-0.13-0.2,0.05-0.19c0.04,0-0.01-0.04-0.05-0.08
	c-0.24-0.2-0.12-0.24,0.06-0.25c0.36-0.02,0.39-0.18-0.09-0.58c-0.06-0.05-0.07-0.07,0.07-0.03c0.53,0.17,0.61,0.12,0.42-0.05
	c-0.16-0.14-0.14-0.2,0.08-0.17c0.11,0.01,0.13-0.01-0.02-0.11c-0.34-0.23-0.28-0.27,0.28-0.08c0.15,0.05,0.17,0.03,0.04-0.04
	c-0.42-0.26-0.42-0.32-0.09-0.25c0.09,0.02,0.14,0.02,0.06-0.04c-0.17-0.12-0.09-0.12,0.01-0.11c0.22,0.02,0.26-0.05,0.16-0.18
	c-0.12-0.13-0.24-0.26-0.37-0.38c-0.04-0.04,0-0.04,0.14,0c0.3,0.09,0.42,0.1,0.41,0.05c-0.01-0.07,0.22-0.03-0.02-0.2
	c-0.05-0.04,0.04-0.02,0.1-0.01c0.23,0.04,0.19-0.04-0.1-0.22c-0.16-0.1-0.16-0.13-0.05-0.11c0.11,0.02,0.24,0.05,0.32,0.06
	c0.05,0,0.12,0.01,0.02-0.05c-0.3-0.19-0.25-0.23-0.04-0.19c0.15,0.03,0.18,0,0.12-0.06c-0.09-0.1-0.08-0.15,0.05-0.15
	c0.13,0,0.16-0.04-0.02-0.18c-0.09-0.07-0.07-0.08,0.06-0.05c0.08,0.02,0.12,0.02,0.13,0.01c0.07-0.14,0.13-0.28,0.18-0.42
	c0.01-0.02,0-0.05-0.13-0.12c-0.3-0.17-0.32-0.22-0.07-0.14c0.42,0.12,0.28-0.01,0.26-0.09s-0.2-0.24,0.13-0.16
	c0.15,0.03,0.07-0.04-0.06-0.13s-0.11-0.12,0.05-0.08c0.18,0.04,0.24,0.03,0.02-0.11c-0.14-0.09-0.12-0.1-0.03-0.09
	s0.22,0.04,0.31,0.05c0.05,0,0.1,0.01,0.05-0.03c-0.18-0.14-0.15-0.19-0.32-0.33c-0.11-0.09-0.13-0.13,0.03-0.1
	c0,0.01,0,0.02,0.03,0.01h0.01c0.05,0.01,0.11,0.02,0.17,0.02c-0.01,0.04-0.04,0.08-0.06,0.12c-0.01,0.02,0,0.02,0.01,0.02
	c0.06,0.06,0.11,0.12,0.17,0.18c0.02,0.02,0,0.07,0.1,0.02c0.24-0.13,0.22-0.03,0.14,0.13c-0.03,0.07-0.04,0.11-0.01,0.12
	c0.09,0.03-0.09,0.3,0.17,0.18c0.05-0.03,0.03,0.03-0.02,0.09c-0.09,0.12-0.04,0.12,0.14,0c0.22-0.15,0.29-0.17,0.17-0.01
	c-0.12,0.16-0.05,0.15-0.02,0.18c0.09,0.09,0.25,0.11,0.21,0.31C15.31,74,15.37,74,15.56,73.88c0.1-0.06,0.11-0.05,0.06,0.02
	c-0.07,0.11-0.12,0.2-0.16,0.28c-0.02,0.04-0.05,0.08-0.01,0.06c0.29-0.13,0.15,0.14,0.38,0.07c0.09-0.03,0.03,0.09,0.18,0.01
	c0.05-0.03,0.07-0.02,0.03,0.04c-0.19,0.24,0.22-0.03-0.12,0.35c-0.05,0.05,0.01,0.02,0.05,0c0.11-0.06,0.14-0.04,0.08,0.05
	c-0.06,0.1,0,0.08,0.22-0.08c0.14-0.1,0.18-0.11,0.07,0c-0.2,0.22-0.19,0.25,0.02,0.11c0.27-0.18,0.36-0.19,0.11,0.09
	c-0.23,0.26-0.19,0.26,0.04,0.1c0.15-0.1,0.23-0.14,0.35-0.21s0.12-0.04-0.05,0.15c-0.17,0.19-0.29,0.32-0.21,0.29
	c0.23-0.1,0.09,0.12,0.11,0.2c0.01,0.04-0.02,0.12,0.11,0.05c0.15-0.08,0.06,0.06,0.22-0.03s-0.01,0.12-0.05,0.21
	c-0.02,0.04-0.02,0.06-0.01,0.07c0.04,0.04,0.08,0.08,0.12,0.12c0.03,0.02,0.03,0.06,0.22-0.06c0.14-0.1,0.16-0.08,0.1,0.01
	c-0.09,0.13-0.12,0.2-0.05,0.2s0.02,0.09,0.08,0.09c0.04,0,0.02,0.05,0.03,0.08c0.01,0.12-0.09,0.35,0.28,0.16
	c0.06-0.03,0.03,0.02,0.02,0.06c-0.04,0.16-0.06,0.3,0.26,0.14c0.21-0.11,0.4-0.19,0.24,0.04c-0.05,0.07,0.03,0.03,0.03,0.06
	c0.01,0.09,0.1,0.1-0.02,0.3c-0.09,0.16,0.2-0.04,0.69-0.42c0.21-0.17,0.48-0.4,0.72-0.63c0.35-0.33,0.67-0.64,1.01-0.96
	c0.39-0.37,0.48-0.5,0.51-0.57c0.01-0.02-0.03,0-0.06,0.01c-0.1,0.04-0.2,0.07-0.3,0.08c-0.06-0.02,0.07-0.2-0.17-0.06
	c0.02-0.11,0.05-0.22,0.09-0.32c0.04-0.11,0.23-0.34-0.06-0.16c-0.05,0.03-0.03,0-0.01-0.04c0.08-0.12,0.07-0.15-0.05-0.09
	c-0.06,0.03-0.06,0-0.03-0.04c0.1-0.17,0.02-0.18-0.02-0.24c-0.04-0.05-0.23,0.05-0.15-0.11c0.02-0.04-0.04,0-0.09,0.02
	c-0.27,0.14-0.26,0.02-0.19-0.15c0.13-0.33,0-0.41-0.54-0.13c-0.07,0.04-0.1,0.03,0-0.07c0.37-0.42,0.36-0.5,0.13-0.4
	c-0.19,0.09-0.24,0.06-0.12-0.13c0.06-0.09,0.05-0.12-0.11-0.02c-0.34,0.22-0.35,0.15,0.04-0.28c0.11-0.12,0.1-0.14-0.02-0.05
	c-0.4,0.28-0.46,0.26-0.26-0.01c0.06-0.07,0.07-0.12-0.01-0.07c-0.17,0.11-0.14,0.04-0.09-0.05c0.11-0.19,0.06-0.25-0.09-0.21
	c-0.17,0.06-0.33,0.12-0.49,0.2c-0.06,0.02-0.04-0.01,0.06-0.12c0.21-0.24,0.27-0.34,0.22-0.35c-0.07-0.01,0.06-0.21-0.19-0.06
	c-0.06,0.03,0-0.04,0.04-0.09c0.14-0.19,0.05-0.18-0.24,0.01c-0.15,0.1-0.18,0.09-0.12,0c0.06-0.09,0.15-0.2,0.18-0.27
	c0.02-0.05,0.06-0.1-0.04-0.04c-0.3,0.2-0.31,0.15-0.18-0.03c0.09-0.12,0.08-0.16-0.01-0.13c-0.12,0.04-0.17,0.02-0.11-0.1
	c0.06-0.12,0.03-0.16-0.17-0.04c-0.1,0.05-0.1,0.03-0.02-0.07c0.05-0.06,0.07-0.1,0.06-0.12c-0.09-0.11-0.19-0.22-0.29-0.31
	c-0.01-0.01-0.02-0.01-0.05,0c0.01-0.14,0.03-0.2,0.08-0.09c0.07,0.13,0.11,0.13,0.12,0.01c0.01-0.05,0.02-0.08,0.04-0.02
	c0.06,0.13,0.06,0.02,0.06-0.1c0-0.09,0.01-0.17,0-0.27c-0.01-0.1,0.02-0.12,0.05-0.03c0.03,0.07,0.06,0.14,0.09,0.23
	c0.13,0.38,0.21,0.46,0.24,0.3c0.01-0.06,0.03-0.12,0.07-0.02c0.09,0.21,0.12,0.11,0.15,0.02c0.05-0.15,0.09-0.3,0.2-0.14
	c0.03,0.04,0.03-0.05,0.05-0.06c0.06-0.16,0.1-0.33,0.11-0.5c0.01-0.05,0.02-0.12,0.05-0.04c0.15,0.36,0.21,0.24,0.28,0.2
	c0.04-0.02,0.08-0.01,0.09-0.17c0.01-0.16,0.04-0.22,0.13,0.04c0.03,0.07,0.05,0.15,0.09,0.22c0.15,0.3,0.15-0.17,0.29,0.14
	c0.04,0.08,0.05-0.02,0.05-0.13c0-0.18,0.02-0.25,0.08-0.16c0.04,0.06,0.06,0.03,0.07-0.07c0.01-0.06,0.04-0.03,0.06,0
	s0.07,0.15,0.08,0.13c0.04-0.04,0.11,0.05,0.19,0.21c0.04,0.08,0.07,0.1,0.07-0.03c0-0.4,0.07-0.47,0.18-0.29
	c0.09,0.14,0.16,0.18,0.17-0.07s0.08-0.22,0.18-0.03c0.1,0.19,0.14,0.12,0.17-0.05c0.03-0.21,0.09-0.28,0.21-0.05
	c0.11,0.21,0.18,0.24,0.19,0c0.01-0.17,0.04-0.29,0.12-0.04c0.11,0.3,0.15,0.26,0.15,0.06c0-0.06,0.02-0.09,0.05-0.02
	c0.19,0.5,0.24,0.27,0.28,0.12c0.01-0.03,0.03,0.01,0.03-0.04c0-0.23,0.06-0.12,0.13-0.03s0.08,0.02,0.13,0.03
	c0.06,0.01,0.1-0.1,0.18,0.05c0.08,0.15,0.14,0.16,0.17,0.04c0.05-0.22,0.14-0.23,0.24-0.22c0.1,0.02,0.24,0.22,0.28-0.12
	c0-0.03,0.01-0.02,0.02-0.01C23.55,69.32,23.47,68.67,23.41,68.07z M16.79,66.3c-0.01-0.01-0.01-0.01-0.02-0.02l0.06,0.01
	C16.84,66.37,16.81,66.34,16.79,66.3L16.79,66.3z M13.17,65.38h-0.02c0-0.02,0-0.05-0.01-0.07c0.02,0.01,0.02,0.02,0.04,0.03
	C13.26,65.38,13.22,65.38,13.17,65.38L13.17,65.38z M14.29,72.31c-0.01-0.02-0.02-0.05-0.03-0.08
	C14.35,72.19,14.35,72.22,14.29,72.31L14.29,72.31z M17.53,65.89c0.01,0,0.01,0,0.01-0.01c-0.01,0.08-0.02,0.16-0.02,0.25
	C17.43,66.01,17.33,65.89,17.53,65.89L17.53,65.89z M17.42,66.25c0.03,0.01,0.07,0.01,0.1,0.01c0.05,0.52-0.01,0.44-0.12,0.15
	c0.05-0.01,0.05-0.04,0-0.1C17.35,66.26,17.32,66.23,17.42,66.25L17.42,66.25z M16.7,66.27L16.7,66.27z M13.15,65.17
	c0-0.06,0-0.12,0.02-0.18l0,0C13.26,65.08,13.32,65.18,13.15,65.17z M10.35,71.57c-0.01-0.12-0.01-0.18,0.01-0.19
	c0,0.01,0,0.02,0.01,0.02c0.01,0.01,0.01,0.01,0.02,0.02c0.02,0.03,0.03,0.07,0.04,0.1l0.01,0.04
	C10.41,71.57,10.38,71.57,10.35,71.57L10.35,71.57z M17.52,70.33l0.02-0.02c0.03,0.02,0.05,0.03,0.08,0.05
	C17.4,70.51,17.36,70.51,17.52,70.33L17.52,70.33z"/>
</svg>
