<svg id="Layer_1" data-name="Layer 1" xmlns="http://www.w3.org/2000/svg" viewBox="0 0 17.38 17.34"><defs><style>.cls-1{fill:#fff;}</style></defs><path id="Path_14" data-name="Path 14" class="cls-1" d="M19.37,15.86s0-.06,0-.1,0-.25.15-.33.11-.2.16-.3.05-.32.22-.42a.34.34,0,0,0,.17-.41,1.42,1.42,0,0,1,.05-.79c.06-.27.29-.54.06-.83a.09.09,0,0,1,0-.07c.11-.21-.38-.38-.82-.51a4.53,4.53,0,0,0-1.6,0c-.4.09-.9.14-.69.27,0,0,0,0,0,0s-.15.15-.11.24-.12.16-.16.24-.05.13.08.22,0,.1,0,.14a.4.4,0,0,0-.16.13c0,.05,0,.11-.06.15s0,.1.13.21.18.17,0,.16-.16,0-.13.06,0,.25-.16.33,0,.55-.24.55-.1.06,0,.2.11.28-.06.26a.28.28,0,0,0-.31.26.34.34,0,0,0,0,.1c0,.13,0,.18-.1.2s-.15,0-.17,0,0,.17,0,.24-.24-.08-.2.07,0,.26-.23.19-.24,0-.26.12-.25.25-.5.15c0,0-.07,0-.07,0,0,.23-.12.15-.13.33s-.07.14-.16.11-.41-.08-.55.07-.1.24-.22.12-.14.05-.16.3-.05.2-.12.13c-.24-.22-.42-.31-.58-.09a.51.51,0,0,1-.25.18s-.08,0-.11,0-.16-.19-.24-.12-.15,0-.22-.1a.78.78,0,0,0-.24-.24c-.05,0-.09,0-.15.11s-.09.15-.12,0c-.11-.42-.27-.26-.49,0s-.26.28-.29,0a1.17,1.17,0,0,0-.05-.2c0-.16-.11-.2-.21-.15s-.28.11-.33-.08-.09-.16-.24,0-.07,0-.08,0-.11-.12-.24,0-.16,0-.16-.06,0-.1,0-.18-.05-.18-.19-.1-.13,0-.16-.06-.08-.42-.36-.33c0,0,0,0,0,0a1.64,1.64,0,0,1-.43-.55s0-.06-.13,0c-.25.11-.32.05-.27-.1s0-.1,0-.11c-.22-.05-.16-.31-.25-.45s-.1-.22-.27-.27-.08-.06,0-.13,0-.11,0-.15a1.64,1.64,0,0,0-.3-.29c-.08,0-.09-.12.08-.25s.22-.17.12-.19-.26-.11-.14-.24-.25-.14-.17-.26,0-.06,0-.1,0-.11,0-.16-.27-.13-.27-.22-.13-.23.08-.36,0-.24.11-.36l.07,0c.09,0,.11-.08,0-.12s-.16-.25,0-.35.1-.08,0-.14,0-.05,0-.06,0-.1-.17-.19-.19-.12-.09-.14c.33-.07.32-.2.14-.39s0-.14,0-.18.59-.06.28-.32c0,0,0,0,0-.06a.74.74,0,0,0,.13-.41s0-.05.08-.08a1.87,1.87,0,0,1,.32-.15c-.18-.22.11-.16.07-.3s.15,0,.11-.1,0-.24,0-.38a.35.35,0,0,1,.09-.26.39.39,0,0,1,.38-.21s0,0,0-.06,0-.1.12-.09a.06.06,0,0,0,.07,0c.07-.17.21-.24.45-.17.07,0,.11,0,0-.14-.13-.32,0-.37.12-.26s.2.13.2,0,.12-.25.29-.16c0,0,0,0,0,0L9.6,7c.05,0,.11,0,.12-.09s.18-.21.33-.13a.16.16,0,0,0,.16,0c.15-.07.34.11.45-.11,0-.05.07,0,.11,0s.12.06.15-.1.11-.27.19-.13.16.1.24.09l.35,0a.73.73,0,0,1,.35.09c.07,0,.14,0,.22-.15s.08-.07.11,0l.15.26s0,.08.08,0c.23-.21.36.07.59,0s.14.07.25,0,.07,0,.08,0c0,.25.27,0,.23.34,0,0,0,0,.07,0s.14,0,.16.06.08.08.22-.08.14-.11.11,0,0,.26.14.14.32-.15.24.13,0,.26.15.14a1.59,1.59,0,0,1,.29-.15c.11-.06.14,0,.06.17s-.12.3,0,.29.21.2.29.31.06.15.18.12.11.11.26.08.07.15,0,.26a.1.1,0,0,0,0,.09,2.43,2.43,0,0,0,.2.25c.05.05.06.11.23.07s.16,0,.12.1-.07.2,0,.25,0,.15.11.21,0,.09,0,.14c.05.2-.06.43.29.51.06,0,0,.07,0,.1,0,.2-.09.38.22.5s.35.19.17.35,0,.09,0,.13,0,.28-.12.43.14.19.61.27a2.48,2.48,0,0,0,.72,0c.35,0,.69-.08,1-.12s.51-.15.55-.25,0-.06,0-.1a2,2,0,0,1-.23-.4c0-.14.09-.32-.13-.43,0-.18.07-.35.11-.54s.21-.37-.07-.45c-.05,0,0-.06,0-.1a.16.16,0,0,0,0-.24l-.07,0a.11.11,0,0,1-.05-.15h0a.74.74,0,0,0-.11-.56c-.08-.16-.29-.26-.26-.47,0-.05-.06-.07-.11-.09a.55.55,0,0,1-.38-.58.92.92,0,0,0-.28-.63,1,1,0,0,0-.71-.27c-.08,0-.12,0-.08-.14.18-.42.05-.61-.23-.62a.35.35,0,0,1-.39-.32v0c0-.12-.09-.17-.24-.12-.33.12-.44,0-.34-.46,0-.13,0-.17-.13-.1-.34.22-.48.15-.51-.15,0-.08-.05-.14-.12-.11s-.22,0-.27-.11a.56.56,0,0,0-.55-.32,2.51,2.51,0,0,0-.61.17c-.07,0-.1,0-.12-.14s-.12-.37-.25-.38-.29-.22-.5-.05c-.05,0-.08,0-.11-.09s-.29-.17-.47.07-.16.12-.23,0a1.64,1.64,0,0,0-.2-.26s-.11-.09-.16,0c-.16.26-.29.23-.42.06s-.2-.14-.3-.07a.38.38,0,0,1-.43,0,.29.29,0,0,0-.4.07l0,0c-.06.09-.12.09-.19,0a.16.16,0,0,0-.14-.07,7.42,7.42,0,0,0-1.24.28c-.05,0-.11.05-.11.17s-.07.33-.23.18-.4-.06-.54,0-.24.34-.52.21-.18,0-.19.19-.09.19-.23.13-.26,0-.24.17S7.05,5,7,5L6.64,5S6.53,5,6.52,5c0,.23-.15.32-.17.53s-.06.22-.21.19a.32.32,0,0,0-.41.19s0,0,0,0a1.21,1.21,0,0,1-.81.87.24.24,0,0,0-.14.1c-.12.15-.3.25-.33.46a.42.42,0,0,1-.21.31c-.14.08-.21.19-.08.4s0,.21-.09.25-.24.08-.23.18a.49.49,0,0,1-.37.5c-.06,0-.1.07,0,.13.27.23.18.35.26.52s0,.17-.16.22c-.32.09-.34.28-.16.49l.14.15s0,.08-.08.08c-.35,0-.45.09-.26.23s0,.09-.1.11-.19.11-.09.19a.35.35,0,0,1,.15.34c0,.11-.18.21-.2.32s.14.22.22.33,0,.07,0,.1a.43.43,0,0,0,.12.39.5.5,0,0,1,.08.68,2.17,2.17,0,0,0-.12.36c-.08.18.14.29.17.44s.09.48.16.72c0,.09.07.17.28.17S4,15,4,15.11a.68.68,0,0,0-.07.27c0,.08,0,.19,0,.24s.14.25.12.42,0,.15.15.14.23,0,.17.16,0,.21.14.26.18,0,.15.1c-.11.24.28.15.17.4,0,0,0,.07.08.07s.26.06.18.27a.09.09,0,0,0,0,.1,5.2,5.2,0,0,0,.37.43c.1.11.23.18.25.37s0,.11.1.09.25,0,.33.12a.74.74,0,0,0,.46.22A.28.28,0,0,1,6.9,19c.07.16.12.38.4.21.07,0,.09,0,.12.06.25.25.54.41.8.68a.28.28,0,0,0,.37.06c.13-.07.24-.09.3,0a.22.22,0,0,0,.28.14h0c.05,0,.1,0,.13,0s.14.06.23,0l.2-.15q.11-.11.15,0a1.8,1.8,0,0,1,.08.21c.09.32.25.41.43.33s.15-.06.2,0,.26.14.39.08.42-.19.64,0c0,0,.11,0,.17,0s.36-.24.53-.38.1-.09.15,0c.24.25.45.14.66.09s.22,0,.29-.17.16-.2.31,0a.65.65,0,0,0,.16.13c.3.18.43-.23.74-.09.08,0,.12-.06.15-.15s.11-.23.23-.21.15,0,.19-.14.09-.06.15-.06.15.06.19,0a.54.54,0,0,1,.43,0c.09,0,.15,0,.16-.11,0-.36.18-.5.45-.51s.36-.08.38-.31a.32.32,0,0,1,.3-.33h.07c.23,0,.32-.14.34-.34s.12-.42.39-.44.38-.15.34-.39,0-.32.2-.29.32-.1.26-.29,0-.11.06-.11C19.4,16.38,19.39,16.07,19.37,15.86Z" transform="translate(-2.93 -3.38)"/></svg>