<?xml version="1.0" encoding="utf-8"?>
<!-- Generator: Adobe Illustrator 25.1.0, SVG Export Plug-In . SVG Version: 6.00 Build 0)  -->
<svg version="1.1" id="Layer_1" xmlns="http://www.w3.org/2000/svg" xmlns:xlink="http://www.w3.org/1999/xlink" x="0px" y="0px"
	 viewBox="0 0 76.54 98.65" style="enable-background:new 0 0 76.54 98.65;" xml:space="preserve">
<path id="Path_12" d="M52.87,53.99c-0.01-0.02-0.04,0.02-0.06,0.04c-0.1,0.08-0.2,0.21-0.28,0.23s-0.13-0.21-0.26,0.03
	c-0.09-0.1-0.17-0.21-0.24-0.33c-0.06-0.12-0.09-0.42-0.24-0.11c-0.03,0.06-0.04,0.01-0.05-0.03c-0.03-0.15-0.08-0.17-0.16-0.05
	c-0.04,0.06-0.07,0.04-0.09-0.02c-0.07-0.2-0.18-0.17-0.28-0.19s-0.23,0.16-0.29-0.02c-0.02-0.04-0.05,0.02-0.08,0.07
	c-0.18,0.27-0.29,0.15-0.38-0.02c-0.19-0.35-0.44-0.36-0.79,0.18c-0.04,0.07-0.08,0.08-0.08-0.06c-0.01-0.56-0.11-0.62-0.27-0.41
	c-0.13,0.18-0.23,0.17-0.29-0.05c-0.03-0.11-0.08-0.13-0.15,0.04c-0.17,0.37-0.26,0.32-0.25-0.27c0-0.16-0.03-0.18-0.08-0.04
	c-0.18,0.46-0.27,0.47-0.31,0.13c-0.01-0.09-0.04-0.14-0.08-0.05c-0.09,0.19-0.13,0.11-0.16,0c-0.08-0.22-0.19-0.25-0.33-0.14
	c-0.13,0.13-0.26,0.27-0.37,0.43c-0.04,0.05-0.06,0.01-0.07-0.13c0-0.32-0.05-0.44-0.12-0.42c-0.1,0.02-0.15-0.22-0.29,0.05
	c-0.03,0.06-0.04-0.03-0.05-0.1c-0.04-0.24-0.14-0.18-0.28,0.13c-0.08,0.17-0.11,0.17-0.14,0.06c-0.02-0.11-0.04-0.22-0.07-0.33
	c-0.02-0.05-0.04-0.12-0.09-0.01c-0.14,0.33-0.21,0.29-0.25,0.07c-0.03-0.15-0.08-0.18-0.15-0.11c-0.1,0.1-0.18,0.1-0.23-0.03
	s-0.13-0.15-0.25,0.05c-0.05,0.1-0.09,0.08-0.1-0.05c-0.01-0.08-0.02-0.13-0.05-0.13c-0.23-0.05-0.45-0.09-0.69-0.12
	c-0.03,0-0.07,0-0.11,0.15c-0.11,0.32-0.16,0.35-0.17,0.09c-0.01-0.44-0.14-0.28-0.25-0.25s-0.25,0.23-0.29-0.1
	c-0.02-0.15-0.09-0.07-0.16,0.08s-0.12,0.13-0.14-0.04c-0.02-0.19-0.07-0.24-0.16,0c-0.06,0.15-0.1,0.14-0.12,0.04
	s-0.04-0.23-0.07-0.31c-0.02-0.05-0.03-0.1-0.07-0.04c-0.12,0.21-0.21,0.18-0.32,0.37c-0.08,0.13-0.14,0.15-0.16-0.03
	c-0.03-0.28-0.11-0.29-0.22-0.21c-0.1,0.1-0.23,0.15-0.36,0.15c-0.1-0.17-0.08-0.24,0.15-0.12c0.06,0.03,0.07,0.01,0.08,0
	c0.09-0.07,0.16-0.15,0.23-0.24c0.05-0.07,0.08-0.15,0.26-0.11c0.05,0.01,0.1,0.01,0.05-0.06c-0.14-0.2-0.06-0.22-0.01-0.26
	c0.09-0.08,0.12-0.21,0.08-0.32c-0.03-0.11,0-0.17,0.11-0.16c0.14,0.01,0.38,0.09,0.14-0.23c-0.05-0.08,0.01-0.06,0.04-0.07
	c0.2-0.11,0.41-0.2,0.63-0.25c0.09-0.01,0.14-0.06,0.05-0.23c-0.08-0.14-0.09-0.23,0.04-0.19s0.2,0,0.15-0.13
	c-0.02-0.05-0.02-0.09,0.04-0.06c0.14,0.06,0.08-0.04,0.02-0.16c-0.05-0.08-0.08-0.15-0.14-0.24s-0.05-0.12,0.05-0.08
	c0.07,0.03,0.14,0.06,0.23,0.1c0.36,0.19,0.49,0.18,0.44,0.01c-0.02-0.07-0.03-0.13,0.07-0.09c0.22,0.09,0.2-0.03,0.19-0.14
	c-0.02-0.18-0.05-0.37,0.17-0.34c0.05,0.01,0.01-0.08,0.02-0.11c0.04-0.11-0.08-0.36-0.14-0.55c-0.02-0.06-0.04-0.12,0.04-0.09
	c0.36,0.15,0.37-0.02,0.44-0.13c0.06-0.07,0.07-0.17,0.01-0.24c-0.08-0.16-0.07-0.23,0.17-0.1c0.07,0.04,0.14,0.07,0.22,0.09
	c0.33,0.1,0.09-0.3,0.42-0.2c0.08,0.03,0.04-0.07-0.02-0.17c-0.09-0.15-0.1-0.24,0-0.22c0.08,0.01,0.09-0.04,0.05-0.14
	c-0.02-0.06,0.03-0.06,0.07-0.07s0.16,0.06,0.17,0.02c0.03-0.08,0.16-0.07,0.33-0.02c0.09,0.03,0.13,0.01,0.06-0.1
	c-0.21-0.35-0.17-0.49,0.07-0.45c0.18,0.03,0.28-0.01,0.17-0.24s-0.02-0.28,0.19-0.22s0.23-0.05,0.17-0.23
	c-0.07-0.21-0.04-0.35,0.22-0.27c0.24,0.07,0.34,0.02,0.23-0.21c-0.07-0.16-0.11-0.29,0.12-0.17c0.28,0.14,0.31,0.07,0.21-0.11
	c-0.03-0.06-0.03-0.1,0.05-0.06c0.49,0.22,0.42-0.02,0.39-0.2c-0.01-0.03,0.04-0.02,0.01-0.07c-0.12-0.2,0.02-0.17,0.13-0.16
	s0.11-0.07,0.16-0.12c0.07-0.06,0.06-0.19,0.24-0.15s0.25-0.01,0.22-0.14c-0.05-0.17,0.02-0.36,0.17-0.44
	c0.14-0.1,0.41-0.07,0.27-0.4c-0.01-0.03,0-0.03,0.02-0.03c0.17-0.01-0.26-0.5-0.65-0.96c-0.49-0.51-1.02-0.98-1.6-1.39
	c-0.45-0.29-0.98-0.67-0.85-0.4c0.01,0.03-0.02,0.01-0.05,0.01c-0.17-0.04-0.25-0.01-0.25,0.09s-0.2,0.05-0.28,0.09
	c-0.06,0.03-0.11,0.07-0.01,0.25c0.07,0.12-0.01,0.11-0.09,0.1c-0.07-0.02-0.15-0.01-0.22,0.01c-0.06,0.02-0.06,0.08-0.13,0.1
	s-0.05,0.09,0.09,0.28s0.17,0.27-0.06,0.14c-0.11-0.06-0.18-0.07-0.16-0.02c0.08,0.22-0.1,0.22-0.24,0.25
	c-0.27,0.06-0.09,0.54-0.32,0.47c-0.13-0.04-0.13,0.03,0.02,0.21c0.22,0.29,0.16,0.33-0.05,0.26c-0.24-0.09-0.4,0.09-0.29,0.31
	c0.08,0.15,0.03,0.2-0.06,0.2c-0.06,0-0.18-0.06-0.2-0.02c-0.02,0.06,0.05,0.19,0.04,0.26s-0.29-0.1-0.19,0.06
	c0.14,0.24,0.04,0.27-0.18,0.2s-0.26,0-0.23,0.14c0.06,0.26-0.13,0.3-0.46,0.22c-0.04-0.01-0.1-0.03-0.07,0.02
	c0.15,0.24-0.04,0.19,0.06,0.38c0.07,0.14,0.02,0.17-0.08,0.16c-0.27-0.02-0.45,0.04-0.46,0.24c-0.01,0.1,0.08,0.27-0.11,0.21
	c-0.16-0.05-0.08,0.12,0.11,0.37c0.12,0.16,0.12,0.22,0,0.18c-0.38-0.12-0.58-0.08-0.5,0.2c0.03,0.1,0.03,0.21,0.01,0.31
	c-0.01,0.04-0.02,0.08-0.1,0.04c-0.21-0.1-0.29-0.07-0.27,0.04c0.02,0.1-0.06,0.12-0.22,0.06c-0.12-0.04-0.25-0.05-0.38-0.02
	c-0.07,0-0.09,0.04,0.03,0.2c0.1,0.14,0.11,0.19-0.02,0.13c-0.49-0.23-0.41,0.03-0.19,0.41c0.38,0.44,0.23,0.42-0.1,0.25
	c-0.08-0.04-0.16-0.07-0.24-0.09c-0.2-0.07-0.27-0.04-0.24,0.1c0.04,0.17,0.06,0.33-0.16,0.27c-0.16-0.04-0.21,0-0.04,0.24
	c0.05,0.07,0,0.07-0.05,0.06c-0.15-0.04-0.16,0.05-0.07,0.22c0.07,0.13,0.04,0.17-0.07,0.14c-0.08-0.02-0.11,0.01-0.21-0.03
	c-0.17-0.07-0.21-0.01-0.11,0.16c0.08,0.13-0.01,0.13-0.07,0.15c-0.17,0.05-0.48-0.03-0.34,0.3c0.02,0.04-0.02,0.03-0.04,0.05
	c-0.11,0.13-0.25,0.24-0.39,0.33c-0.02-0.04-0.01-0.08,0.02-0.11c0.09-0.11,0.29-0.25-0.1-0.25c-0.09,0-0.04-0.04-0.04-0.07
	c0.02-0.23,0.08-0.45,0.16-0.66c0.04-0.08,0.03-0.15-0.16-0.18c-0.16-0.02-0.24-0.06-0.13-0.15s0.11-0.16-0.02-0.19
	c-0.05-0.01-0.09-0.03-0.03-0.07c0.12-0.08,0.01-0.1-0.12-0.11c-0.09-0.01-0.17-0.02-0.28-0.03s-0.13-0.03-0.04-0.09
	c0.07-0.04,0.13-0.08,0.22-0.13c0.36-0.18,0.43-0.29,0.26-0.35c-0.06-0.02-0.12-0.05-0.04-0.11c0.2-0.13,0.09-0.18-0.01-0.24
	c-0.16-0.09-0.33-0.17-0.18-0.33c0.04-0.04-0.06-0.05-0.07-0.08c-0.06-0.1-0.34-0.14-0.53-0.21c-0.05-0.02-0.12-0.04-0.05-0.09
	c0.33-0.21,0.2-0.31,0.15-0.43c-0.03-0.06-0.03-0.13-0.19-0.15s-0.23-0.07,0.02-0.2c0.07-0.03,0.14-0.08,0.2-0.12
	c0.27-0.21-0.2-0.25,0.09-0.46c0.07-0.05-0.03-0.07-0.14-0.08c-0.18-0.02-0.26-0.06-0.18-0.13c0.06-0.06,0.01-0.1-0.08-0.12
	c-0.06-0.02-0.04-0.06-0.01-0.1s0.14-0.1,0.12-0.13c-0.05-0.07,0.03-0.17,0.18-0.28c0.07-0.06,0.08-0.1-0.04-0.11
	c-0.41-0.03-0.49-0.14-0.33-0.32c0.12-0.13,0.15-0.24-0.1-0.28s-0.23-0.15-0.06-0.28s0.1-0.22-0.09-0.28
	c-0.21-0.07-0.3-0.17-0.09-0.34c0.19-0.15,0.21-0.26-0.03-0.31c-0.17-0.03-0.3-0.08-0.07-0.2c0.28-0.15,0.24-0.21,0.03-0.24
	c-0.06-0.01-0.1-0.03-0.02-0.07c0.47-0.27,0.23-0.36,0.07-0.43c-0.03-0.01,0.01-0.04-0.05-0.05c-0.23-0.02-0.13-0.11-0.05-0.2
	s0.01-0.13,0-0.2c0-0.09-0.12-0.16,0.02-0.28s0.14-0.21,0.01-0.26c-0.17-0.05-0.28-0.22-0.26-0.4c0-0.17,0.18-0.37-0.17-0.46
	c-0.03-0.01-0.03-0.02-0.02-0.04c0.09-0.15-0.56-0.08-1.16-0.03c-0.7,0.1-1.39,0.26-2.06,0.49c-0.5,0.2-1.12,0.41-0.82,0.46
	c0.03,0,0,0.03-0.02,0.04c-0.13,0.11-0.15,0.19-0.07,0.25s-0.08,0.19-0.09,0.28c-0.01,0.07-0.01,0.14,0.19,0.15
	c0.14,0.01,0.09,0.07,0.02,0.13c-0.06,0.05-0.1,0.12-0.12,0.19c-0.02,0.06,0.03,0.1,0,0.16s0.05,0.1,0.28,0.09s0.32,0.02,0.08,0.13
	c-0.12,0.06-0.17,0.11-0.11,0.12c0.23,0.07,0.12,0.21,0.06,0.34c-0.11,0.25,0.39,0.39,0.19,0.53c-0.11,0.08-0.05,0.12,0.18,0.11
	c0.36-0.01,0.36,0.06,0.18,0.19c-0.21,0.15-0.16,0.38,0.08,0.42c0.17,0.03,0.18,0.09,0.12,0.17c-0.03,0.05-0.15,0.12-0.13,0.15
	c0.03,0.05,0.18,0.07,0.24,0.12s-0.26,0.18-0.06,0.19c0.28,0.03,0.24,0.13,0.06,0.26s-0.15,0.21-0.02,0.26
	c0.25,0.1,0.17,0.28-0.09,0.5c-0.03,0.03-0.08,0.06-0.02,0.06c0.28,0.02,0.14,0.14,0.35,0.17c0.15,0.02,0.15,0.08,0.08,0.16
	c-0.17,0.21-0.23,0.39-0.07,0.52c0.07,0.06,0.27,0.09,0.11,0.21c-0.13,0.1,0.05,0.13,0.37,0.12c0.2-0.01,0.24,0.03,0.15,0.1
	c-0.32,0.24-0.4,0.42-0.13,0.53c0.1,0.04,0.19,0.1,0.26,0.18c0.03,0.03,0.05,0.06-0.03,0.1c-0.2,0.12-0.23,0.19-0.12,0.24
	c0.09,0.04,0.06,0.12-0.08,0.22c-0.1,0.08-0.18,0.18-0.24,0.29c-0.04,0.06-0.02,0.1,0.18,0.1c0.17,0,0.22,0.02,0.09,0.09
	c-0.48,0.26-0.21,0.35,0.22,0.4c0.58-0.05,0.47,0.06,0.15,0.23c-0.07,0.04-0.15,0.09-0.21,0.15c-0.17,0.12-0.19,0.2-0.06,0.25
	c0.16,0.07,0.3,0.14,0.12,0.29c-0.12,0.1-0.12,0.17,0.17,0.17c0.09,0,0.06,0.04,0.02,0.07c-0.12,0.1-0.05,0.16,0.14,0.19
	c0.14,0.02,0.16,0.07,0.07,0.14c-0.07,0.05-0.05,0.09-0.14,0.15c-0.15,0.1-0.13,0.16,0.06,0.18c0.15,0.02,0.1,0.08,0.08,0.14
	c-0.06,0.17-0.3,0.38,0.04,0.45c0.04,0.01,0.01,0.04,0.02,0.06c0.04,0.18,0.05,0.37,0.03,0.56c-0.03,0-0.05-0.05-0.06-0.19
	c0-0.07-0.02-0.07-0.04-0.07c-0.1-0.04-0.2-0.06-0.3-0.08c-0.08-0.01-0.16,0.01-0.21-0.16c-0.01-0.05-0.04-0.09-0.07-0.01
	c-0.1,0.22-0.15,0.16-0.21,0.14c-0.09-0.04-0.18-0.02-0.3,0.1c-0.08,0.08-0.14,0.08-0.18-0.01c-0.06-0.13-0.1-0.37-0.26,0
	c-0.04,0.08-0.05,0.02-0.08,0c-0.19-0.11-0.36-0.25-0.5-0.41c-0.06-0.07-0.12-0.09-0.21,0.08c-0.08,0.14-0.14,0.19-0.18,0.06
	s-0.09-0.17-0.17-0.06c-0.03,0.04-0.06,0.06-0.07,0c-0.02-0.14-0.08-0.05-0.14,0.07c-0.04,0.08-0.09,0.15-0.13,0.24
	s-0.08,0.1-0.09,0c-0.01-0.08-0.02-0.15-0.02-0.25c-0.01-0.4-0.08-0.51-0.2-0.38c-0.05,0.05-0.09,0.09-0.11-0.01
	c-0.03-0.23-0.12-0.16-0.2-0.09c-0.14,0.11-0.27,0.23-0.36,0.03c-0.02-0.05-0.07,0.03-0.1,0.04c-0.11,0.02-0.25,0.25-0.39,0.4
	c-0.04,0.04-0.08,0.1-0.09,0.01c-0.05-0.39-0.19-0.31-0.31-0.31c-0.06,0-0.12-0.02-0.21,0.12s-0.15,0.18-0.16-0.09
	c0-0.08-0.01-0.16-0.03-0.24c-0.07-0.33-0.29,0.08-0.36-0.26c-0.02-0.08-0.08,0-0.13,0.1c-0.08,0.16-0.15,0.21-0.18,0.11
	c-0.03-0.08-0.08-0.05-0.13,0.03c-0.04,0.05-0.06,0.01-0.09-0.03s-0.03-0.17-0.06-0.16c-0.08,0.02-0.13-0.1-0.17-0.27
	c-0.02-0.09-0.05-0.12-0.11,0c-0.19,0.36-0.31,0.4-0.4,0.17c-0.06-0.16-0.14-0.23-0.27-0.02s-0.22,0.16-0.27-0.05
	s-0.15-0.17-0.27-0.03c-0.14,0.17-0.26,0.21-0.33-0.05c-0.06-0.24-0.14-0.3-0.28-0.09c-0.09,0.14-0.18,0.24-0.2-0.02
	c-0.02-0.31-0.09-0.3-0.19-0.12c-0.03,0.06-0.07,0.08-0.07-0.01c-0.05-0.54-0.22-0.35-0.34-0.23c-0.02,0.02-0.03-0.03-0.06,0.03
	c-0.1,0.2-0.15,0.08-0.2-0.03s-0.11-0.06-0.17-0.08c-0.08-0.03-0.18,0.05-0.24-0.13s-0.12-0.21-0.22-0.11
	c-0.11,0.13-0.29,0.17-0.44,0.08c-0.14-0.06-0.25-0.31-0.46-0.02c-0.02,0.02-0.03,0.02-0.04,0c-0.09-0.14-0.29,0.48-0.48,1.05
	c-0.19,0.68-0.32,1.38-0.38,2.08c-0.02,0.53-0.08,1.19,0.07,0.93c0.02-0.03,0.02,0.01,0.03,0.04c0.04,0.16,0.1,0.22,0.19,0.16
	s0.13,0.15,0.2,0.2c0.05,0.04,0.11,0.06,0.21-0.12c0.07-0.12,0.1-0.05,0.12,0.03c0.02,0.07,0.06,0.13,0.11,0.19
	c0.04,0.04,0.1,0.01,0.14,0.06s0.1-0.01,0.18-0.22s0.14-0.28,0.14-0.02c0,0.13,0.03,0.19,0.06,0.15c0.15-0.19,0.23-0.03,0.32,0.08
	c0.17,0.2,0.48-0.2,0.53,0.03c0.03,0.13,0.08,0.09,0.17-0.12c0.13-0.34,0.2-0.31,0.23-0.09c0.04,0.25,0.26,0.29,0.39,0.09
	c0.09-0.14,0.15-0.13,0.19-0.05c0.03,0.05,0.04,0.19,0.08,0.18c0.06-0.01,0.14-0.14,0.2-0.17s0.05,0.3,0.14,0.13
	c0.13-0.25,0.2-0.17,0.25,0.05s0.12,0.22,0.22,0.12c0.18-0.19,0.3-0.04,0.39,0.28c0.01,0.04,0.02,0.1,0.05,0.04
	c0.12-0.25,0.17-0.07,0.29-0.25c0.08-0.13,0.13-0.1,0.17-0.02c0.11,0.24,0.24,0.36,0.42,0.27c0.08-0.04,0.18-0.21,0.22-0.02
	c0.04,0.16,0.14,0,0.25-0.29c0.08-0.19,0.12-0.22,0.14-0.1c0.08,0.39,0.2,0.54,0.4,0.33c0.07-0.07,0.16-0.13,0.25-0.17
	c0.03-0.01,0.07-0.03,0.08,0.07c0.02,0.23,0.08,0.29,0.16,0.21s0.12-0.01,0.15,0.16c0.03,0.12,0.08,0.24,0.16,0.33
	c0.03,0.06,0.08,0.06,0.15-0.13c0.06-0.16,0.1-0.19,0.11-0.04c0.04,0.54,0.22,0.33,0.43-0.05c0.18-0.56,0.24-0.41,0.25-0.04
	c0.01,0.08,0.02,0.17,0.04,0.25c0.04,0.2,0.1,0.25,0.19,0.15c0.12-0.12,0.24-0.22,0.3,0c0.04,0.15,0.1,0.18,0.21-0.09
	c0.04-0.08,0.06-0.04,0.07,0.01c0.04,0.15,0.12,0.11,0.21-0.06c0.07-0.12,0.12-0.12,0.15-0.01c0.02,0.08,0.06,0.09,0.08,0.19
	c0.03,0.18,0.09,0.18,0.18,0.02c0.07-0.13,0.11-0.06,0.15-0.02c0.12,0.12,0.2,0.42,0.4,0.13c0.02-0.04,0.04,0,0.05,0.01
	c0.21,0.03,0.4,0.11,0.57,0.23c0.03,0.02,0.06,0.02,0.11-0.1c0.02-0.04,0.03-0.06,0.04-0.1c0.01,0.08-0.01,0.16-0.06,0.23
	c-0.06,0.15-0.23,0.22-0.38,0.15c-0.04-0.01-0.04,0.02-0.01,0.07c0.07,0.12-0.01,0.11-0.1,0.09c-0.05-0.01-0.06,0.01-0.07,0.04
	c-0.02,0.18-0.14,0.25-0.43,0.18c-0.08-0.02-0.12,0,0.02,0.16c0.29,0.35,0.23,0.39,0,0.3c-0.13-0.05-0.27-0.12-0.23-0.02
	c0.1,0.22,0.01,0.28-0.21,0.22c-0.03-0.01-0.02,0.01-0.03,0.02c-0.09,0.11-0.19,0.21-0.28,0.33c-0.03,0.04-0.1,0.04-0.05,0.14
	c0.12,0.26-0.01,0.28-0.21,0.26c-0.08-0.01-0.14,0-0.15,0.04c-0.06,0.14-0.39,0.04-0.28,0.33c0.02,0.06-0.04,0.05-0.12,0.02
	c-0.14-0.05-0.15,0.01-0.02,0.18c0.15,0.22,0.17,0.31-0.02,0.23s-0.2,0.02-0.24,0.07c-0.13,0.17-0.2,0.4-0.46,0.45
	c-0.08,0.01-0.09,0.1,0.04,0.28c0.06,0.1,0.04,0.12-0.04,0.1c-0.11-0.03-0.23-0.06-0.34-0.07c-0.05-0.01-0.1-0.02-0.09,0.03
	c0.11,0.33-0.21,0.28-0.17,0.55c0.02,0.11-0.12,0.08-0.04,0.24c0.03,0.06,0.02,0.08-0.05,0.06c-0.29-0.12,0,0.28-0.44,0.02
	c-0.06-0.04-0.03,0.02-0.01,0.07c0.06,0.12,0.03,0.16-0.08,0.13s-0.1,0.04,0.07,0.25c0.1,0.13,0.11,0.18-0.02,0.1
	c-0.25-0.15-0.3-0.12-0.16,0.08c0.19,0.27,0.19,0.39-0.15,0.2c-0.3-0.17-0.31-0.12-0.15,0.11c0.08,0.11,0.15,0.23,0.21,0.36
	c0.08,0.13,0.03,0.14-0.19,0.01s-0.37-0.22-0.34-0.13c0.09,0.26-0.18,0.19-0.29,0.26c-0.06,0.04-0.16,0.04-0.09,0.18
	c0.08,0.16-0.09,0.11,0,0.28s-0.15,0.05-0.27,0.04c-0.03-0.01-0.07,0-0.09,0.02c-0.07,0.07-0.13,0.15-0.18,0.23
	c-0.03,0.05-0.09,0.08,0.04,0.26c0.1,0.14,0.07,0.18-0.04,0.14c-0.16-0.05-0.25-0.05-0.25,0.04s-0.12,0.08-0.14,0.16
	c-0.01,0.05-0.07,0.06-0.11,0.08c-0.17,0.08-0.45,0.07-0.27,0.46c0.03,0.07-0.04,0.05-0.08,0.06c-0.21,0.03-0.4,0.08-0.24,0.43
	c0.1,0.23,0.17,0.43-0.1,0.34c-0.09-0.03-0.05,0.06-0.09,0.08c-0.12,0.06-0.16,0.19-0.4,0.14c-0.19-0.04,0.01,0.25,0.43,0.7
	c0.22,0.23,0.45,0.44,0.7,0.64c0.37,0.29,0.72,0.56,1.09,0.85c0.42,0.33,0.57,0.39,0.66,0.38c0.03,0,0.01-0.04,0-0.07
	c-0.02-0.13-0.08-0.29-0.04-0.37s0.26-0.02,0.11-0.26c0.14-0.03,0.27-0.04,0.41-0.05c0.14,0,0.41,0.12,0.22-0.16
	c-0.03-0.05,0.01-0.04,0.05-0.03c0.14,0.05,0.19,0.01,0.13-0.12c-0.03-0.07,0.01-0.08,0.07-0.07c0.21,0.04,0.24-0.08,0.32-0.16
	s-0.02-0.29,0.18-0.26c0.04,0.01,0.02-0.06-0.01-0.11c-0.13-0.3,0.02-0.34,0.23-0.34c0.41,0,0.55-0.22,0.28-0.8
	c-0.03-0.07-0.03-0.11,0.1-0.04c0.49,0.27,0.6,0.21,0.5-0.04c-0.08-0.21-0.02-0.3,0.2-0.23c0.11,0.03,0.15,0,0.05-0.16
	c-0.23-0.34-0.13-0.4,0.37-0.1c0.14,0.08,0.17,0.06,0.08-0.06c-0.3-0.39-0.25-0.48,0.06-0.35c0.09,0.04,0.14,0.03,0.09-0.05
	c-0.11-0.18-0.03-0.17,0.09-0.15c0.24,0.04,0.32-0.05,0.3-0.23c-0.04-0.19-0.1-0.37-0.17-0.55c-0.02-0.06,0.03-0.06,0.15,0.01
	c0.28,0.16,0.41,0.18,0.43,0.1c0.03-0.1,0.27-0.03,0.12-0.28c-0.03-0.06,0.05-0.02,0.11,0c0.23,0.08,0.24-0.04,0.04-0.32
	c-0.11-0.15-0.09-0.19,0.02-0.16c0.1,0.04,0.21,0.08,0.32,0.1c0.06,0.01,0.13,0.02,0.06-0.07c-0.21-0.29-0.13-0.33,0.08-0.26
	c0.15,0.05,0.2,0.02,0.18-0.08c-0.03-0.14,0.01-0.22,0.15-0.2s0.2-0.05,0.09-0.25c-0.05-0.1-0.02-0.12,0.1-0.06
	c0.07,0.03,0.12,0.04,0.14,0.02c0.17-0.18,0.33-0.37,0.48-0.56c0.02-0.03,0.03-0.06-0.06-0.18c-0.22-0.26-0.22-0.33,0.01-0.2
	c0.39,0.21,0.32,0.01,0.35-0.1s-0.06-0.34,0.25-0.21c0.14,0.06,0.11-0.04,0.02-0.19s-0.05-0.18,0.11-0.11
	c0.17,0.08,0.24,0.06,0.09-0.15c-0.1-0.14-0.07-0.16,0.03-0.12s0.22,0.08,0.31,0.09c0.05,0.01,0.1,0.02,0.07-0.04
	c-0.11-0.21-0.05-0.28-0.14-0.48c-0.07-0.14-0.06-0.2,0.11-0.13c0.26,0.11,0.31,0.04,0.3-0.09c0,0,0-0.01,0-0.01
	c0.11,0.05,0.1,0.13,0.21,0.18c0.09,0.04,0.15,0.11,0.18,0.2c0.08,0.14,0.04,0.32-0.1,0.4c-0.03,0.03-0.01,0.04,0.05,0.05
	c0.14,0.01,0.08,0.07,0.01,0.13c-0.04,0.03-0.03,0.06,0,0.08c0.13,0.12,0.11,0.26-0.1,0.46c-0.06,0.06-0.07,0.1,0.14,0.08
	c0.45-0.03,0.45,0.04,0.24,0.17c-0.12,0.07-0.25,0.15-0.15,0.17c0.23,0.05,0.24,0.15,0.06,0.3c-0.02,0.02,0,0.03,0,0.04
	c0.03,0.14,0.06,0.28,0.1,0.42c0.01,0.04-0.02,0.1,0.08,0.12c0.28,0.05,0.23,0.17,0.09,0.32c-0.06,0.06-0.08,0.11-0.05,0.15
	c0.08,0.13-0.19,0.34,0.11,0.41c0.06,0.02,0.02,0.06-0.05,0.11c-0.13,0.08-0.08,0.12,0.13,0.12c0.27,0,0.35,0.04,0.17,0.15
	s-0.1,0.17-0.08,0.24c0.06,0.21,0.21,0.39,0.1,0.64c-0.03,0.08,0.03,0.13,0.25,0.14c0.11,0,0.12,0.03,0.06,0.08
	c-0.09,0.07-0.18,0.15-0.26,0.24c-0.03,0.03-0.08,0.07-0.03,0.08c0.33,0.1,0.1,0.33,0.35,0.46c0.1,0.05,0,0.15,0.17,0.18
	c0.06,0.01,0.08,0.04,0.01,0.08c-0.27,0.17,0.23,0.16-0.24,0.37c-0.07,0.03,0,0.04,0.05,0.05c0.13,0.02,0.15,0.07,0.06,0.15
	c-0.09,0.07-0.02,0.11,0.24,0.1c0.17-0.01,0.21,0.01,0.07,0.08c-0.27,0.12-0.27,0.17-0.02,0.18c0.33,0,0.42,0.07,0.07,0.23
	c-0.31,0.14-0.28,0.19,0,0.18c0.14,0,0.28,0.02,0.41,0.03c0.15,0.01,0.13,0.06-0.1,0.16s-0.39,0.18-0.3,0.2
	c0.26,0.07,0.05,0.25,0.04,0.39c0,0.07-0.06,0.15,0.09,0.18c0.18,0.03,0.04,0.14,0.22,0.17s-0.05,0.16-0.12,0.25
	c-0.02,0.02-0.04,0.05-0.03,0.09c0.02,0.1,0.05,0.19,0.08,0.28c0.02,0.06,0.01,0.12,0.24,0.12c0.18,0,0.19,0.05,0.1,0.12
	c-0.13,0.1-0.18,0.17-0.12,0.23s0,0.15,0.05,0.21c0.04,0.04,0.01,0.09,0,0.14c-0.03,0.19-0.21,0.41,0.22,0.49
	c0.07,0.01,0.02,0.06,0,0.1c-0.1,0.19-0.17,0.37,0.21,0.45c0.24,0.05,0.45,0.11,0.22,0.28c-0.08,0.06,0.02,0.08,0.01,0.12
	c-0.02,0.13,0.06,0.24-0.12,0.41c-0.14,0.13,0.21,0.13,0.82,0.06c0.31-0.04,0.62-0.11,0.93-0.2c0.45-0.13,0.88-0.26,1.32-0.39
	c0.51-0.15,0.65-0.24,0.7-0.31c0.02-0.02-0.03-0.03-0.06-0.05c-0.11-0.06-0.28-0.11-0.33-0.18c-0.05-0.07,0.13-0.22-0.14-0.24
	c0.06-0.13,0.12-0.25,0.2-0.37c0.08-0.11,0.34-0.26,0-0.28c-0.06,0-0.03-0.03,0.01-0.06c0.12-0.09,0.12-0.15-0.02-0.17
	c-0.07-0.01-0.06-0.05-0.02-0.09c0.15-0.15,0.08-0.24,0.06-0.35s-0.24-0.15-0.11-0.29c0.03-0.03-0.04-0.04-0.1-0.06
	c-0.32-0.06-0.26-0.22-0.14-0.39c0.24-0.33,0.14-0.58-0.49-0.7c-0.08-0.01-0.1-0.04,0.02-0.1c0.51-0.24,0.52-0.37,0.26-0.43
	c-0.22-0.06-0.25-0.15-0.07-0.3c0.09-0.08,0.08-0.13-0.1-0.13c-0.41-0.01-0.4-0.13,0.14-0.36c0.15-0.06,0.15-0.1,0-0.1
	c-0.49,0.02-0.54-0.07-0.25-0.25c0.08-0.05,0.11-0.1,0.01-0.1c-0.21-0.01-0.16-0.08-0.07-0.16c0.17-0.17,0.15-0.29-0.01-0.38
	c-0.18-0.08-0.36-0.14-0.54-0.19c-0.06-0.02-0.03-0.06,0.1-0.12c0.29-0.13,0.38-0.23,0.33-0.29c-0.06-0.08,0.14-0.23-0.16-0.26
	c-0.07-0.01,0.01-0.06,0.07-0.09c0.2-0.14,0.11-0.21-0.24-0.22c-0.19,0-0.21-0.04-0.11-0.11c0.09-0.06,0.19-0.13,0.27-0.2
	c0.04-0.04,0.09-0.09-0.02-0.09c-0.36,0-0.35-0.08-0.17-0.21c0.13-0.09,0.13-0.15,0.04-0.19c-0.13-0.05-0.17-0.13-0.07-0.24
	s0.08-0.19-0.15-0.22c-0.11-0.01-0.11-0.05,0.01-0.12c0.07-0.04,0.11-0.08,0.1-0.1c-0.05-0.24-0.11-0.48-0.18-0.72
	c-0.01-0.03-0.03-0.06-0.18-0.05c-0.34,0.03-0.39-0.01-0.16-0.13c0.39-0.19,0.2-0.26,0.12-0.34s-0.32-0.15-0.03-0.33
	c0.13-0.08,0.03-0.11-0.14-0.12s-0.17-0.06-0.02-0.15c0.16-0.1,0.19-0.16-0.07-0.16c-0.17,0-0.16-0.04-0.08-0.1
	c0.09-0.06,0.17-0.13,0.26-0.2c0.04-0.03,0.07-0.07,0.01-0.08c-0.24-0.03-0.25-0.12-0.47-0.16c-0.15-0.03-0.19-0.07-0.04-0.17
	c0.24-0.15,0.22-0.23,0.1-0.3c-0.3-0.17-0.44-0.37-0.11-0.69c0.03-0.03,0.05-0.07,0.05-0.11c-0.01-0.11,0.06-0.24-0.06-0.33
	c-0.06-0.03-0.09-0.11-0.06-0.17c0.01-0.02,0.02-0.03,0.03-0.04c0.08-0.1,0.06-0.17-0.22-0.18c-0.13-0.01-0.17-0.04-0.13-0.08
	c0.08-0.06,0.14-0.03,0.21-0.1c0.06-0.06,0.15-0.1,0.24-0.08c0.12,0,0.23,0,0.31,0.25c0.01,0.04,0.03,0.02,0.06-0.03
	c0.07-0.12,0.09-0.05,0.12,0.04c0.02,0.05,0.04,0.05,0.07,0.03c0.15-0.07,0.27,0,0.35,0.27c0.02,0.08,0.06,0.1,0.12-0.1
	c0.15-0.42,0.21-0.4,0.24-0.16c0.02,0.14,0.03,0.29,0.09,0.2c0.13-0.2,0.22-0.16,0.28,0.06c0.01,0.03,0.02,0.01,0.03,0.02
	c0.13,0.02,0.26,0.05,0.4,0.07c0.04,0.01,0.08,0.06,0.14-0.03c0.15-0.24,0.23-0.14,0.3,0.04c0.03,0.07,0.07,0.12,0.11,0.11
	c0.14-0.02,0.21,0.31,0.4,0.07c0.04-0.05,0.06,0.01,0.08,0.09c0.02,0.15,0.08,0.12,0.16-0.08c0.1-0.24,0.17-0.3,0.2-0.1
	s0.11,0.16,0.17,0.17c0.2,0.03,0.42-0.04,0.58,0.16c0.05,0.06,0.12,0.02,0.22-0.18c0.05-0.1,0.08-0.1,0.1-0.02
	c0.03,0.11,0.06,0.22,0.1,0.33c0.02,0.04,0.03,0.1,0.06,0.06c0.21-0.27,0.33,0.04,0.53-0.14c0.08-0.07,0.12,0.06,0.22-0.09
	c0.03-0.05,0.06-0.06,0.07,0.02c0.04,0.31,0.23-0.14,0.23,0.36c0,0.07,0.03,0.01,0.06-0.03c0.07-0.11,0.12-0.11,0.15,0
	s0.08,0.06,0.18-0.19c0.06-0.16,0.1-0.19,0.1-0.03c0,0.29,0.04,0.31,0.14,0.09c0.13-0.3,0.23-0.36,0.23,0.02
	c0,0.34,0.05,0.33,0.16,0.07c0.06-0.13,0.12-0.25,0.19-0.37c0.07-0.14,0.1-0.1,0.1,0.16s0,0.43,0.06,0.36
	c0.16-0.21,0.24,0.05,0.35,0.11c0.06,0.03,0.11,0.11,0.19-0.02c0.1-0.15,0.13,0.02,0.23-0.14s0.12,0.1,0.16,0.21
	c0.02,0.04,0.04,0.06,0.06,0.06c0.09,0.02,0.18,0.03,0.27,0.04c0.06,0,0.11,0.04,0.2-0.17c0.07-0.16,0.11-0.15,0.14-0.04
	c0.03,0.16,0.08,0.24,0.15,0.2s0.12,0.06,0.2,0.03c0.05-0.02,0.08,0.03,0.12,0.05c0.15,0.1,0.27,0.35,0.5-0.01
	c0.04-0.06,0.06,0,0.08,0.04c0.12,0.16,0.25,0.3,0.47-0.02c0.14-0.2,0.27-0.37,0.33-0.09c0.02,0.09,0.07,0.01,0.1,0.04
	c0.1,0.07,0.23,0.04,0.3,0.27c0.06,0.19,0.2-0.14,0.37-0.73c0.08-0.3,0.15-0.62,0.19-0.93c0.06-0.47,0.12-0.91,0.18-1.37
	C52.93,54.22,52.91,54.06,52.87,53.99z"/>
</svg>
